<?xml version="1.0" encoding="UTF-8"?> <svg xmlns="http://www.w3.org/2000/svg" xmlns:xlink="http://www.w3.org/1999/xlink" xmlns:xodm="http://www.corel.com/coreldraw/odm/2003" xml:space="preserve" width="87.2821mm" height="87.2821mm" version="1.1" style="shape-rendering:geometricPrecision; text-rendering:geometricPrecision; image-rendering:optimizeQuality; fill-rule:evenodd; clip-rule:evenodd" viewBox="0 0 640.27 640.27"> <defs> <style type="text/css"> .fil0 {fill:#2B2A29} </style> </defs> <g id="Слой_x0020_1"> <metadata id="CorelCorpID_0Corel-Layer"></metadata> <g id="_2364460407984"> <path class="fil0" d="M14.23 335.25c-0,-0 -0.38,-28.63 0.3,-30.53 0.87,-2.44 -0.4,-6.6 0.5,-9.28 0.6,-1.79 0.01,-4.78 0.59,-6.52 0.53,-1.57 0.08,-3.82 0.59,-5.34 0.36,-1.07 0.39,-4.02 0.77,-5.15 0.38,-1.14 0.18,-2.9 0.59,-4.15 0.33,-1 0.1,-2.2 0.41,-3.14 0.27,-0.82 0.04,0.56 0.32,-0.86l0.65 -5.27c0.06,-0.79 -0.07,0.15 0.06,-0.53l0.5 -1.57c0.06,-0.39 0.01,-0.73 0.06,-1.12l1.71 -7.77c0.1,-0.48 0.03,-0.48 0.18,-1.01 0.02,-0.08 0.05,-0.15 0.07,-0.22l2.19 -9.37c0.02,-0.09 0.02,-0.17 0.04,-0.25l0.21 -0.68c0.02,-0.07 0.06,-0.14 0.08,-0.21l0.61 -1.76c0.02,-0.07 0.05,-0.15 0.07,-0.23 0.02,-0.08 0.04,-0.16 0.06,-0.24l2.66 -9.79c0.03,-0.09 0.13,-0.34 0.16,-0.43l2.46 -7.33c0.02,-0.07 0.05,-0.15 0.07,-0.22l8.9 -23.12c0.02,-0.08 0.04,-0.16 0.06,-0.23l0.89 -2.08c0.03,-0.06 0.07,-0.14 0.1,-0.2l0.69 -1.38c0.06,-0.13 0.13,-0.27 0.2,-0.4 0.03,-0.06 0.07,-0.14 0.1,-0.2 0.03,-0.06 0.07,-0.14 0.1,-0.2l2.57 -5.73c0,0 0.2,-0.4 0.2,-0.4 0.03,-0.06 0.07,-0.14 0.1,-0.2l0.2 -0.39c0.03,-0.06 0.07,-0.14 0.1,-0.2 0.04,-0.08 0.16,-0.31 0.2,-0.39 0.03,-0.06 0.07,-0.14 0.1,-0.2l0.2 -0.4c0.03,-0.06 0.07,-0.14 0.1,-0.2 0.04,-0.08 0.16,-0.31 0.2,-0.4 0.03,-0.06 0.07,-0.14 0.1,-0.2l0.2 -0.4c0.03,-0.06 0.07,-0.14 0.1,-0.2 0.04,-0.08 0.16,-0.31 0.2,-0.4 0.03,-0.06 0.07,-0.14 0.1,-0.2l0.2 -0.4c0.03,-0.06 0.07,-0.14 0.1,-0.2 0.04,-0.08 0.16,-0.31 0.2,-0.39 0.03,-0.06 0.07,-0.14 0.1,-0.2l0.2 -0.4c0.03,-0.06 0.07,-0.14 0.1,-0.2 0.04,-0.08 0.16,-0.31 0.2,-0.4 0.03,-0.06 0.07,-0.14 0.1,-0.2l0.2 -0.4c0.03,-0.06 0.07,-0.14 0.1,-0.2 0.04,-0.08 0.16,-0.31 0.2,-0.4 0.03,-0.06 0.07,-0.14 0.1,-0.2l0.2 -0.39c0.03,-0.06 0.07,-0.14 0.1,-0.2 0.04,-0.08 0.16,-0.31 0.2,-0.39 0.03,-0.06 0.07,-0.14 0.1,-0.2l0.2 -0.4c0.03,-0.06 0.07,-0.14 0.1,-0.2l3.66 -6.72c0.03,-0.06 0.07,-0.14 0.1,-0.2 0.03,-0.06 0.07,-0.14 0.1,-0.2l5.99 -10.31c0.04,-0.05 0.08,-0.12 0.12,-0.18 0.03,-0.05 0.08,-0.13 0.11,-0.19l3.28 -5.31c0.11,-0.16 0.29,-0.37 0.51,-0.67l7.36 -11.02c0.04,-0.05 0.08,-0.13 0.11,-0.19l1.18 -1.78c0.95,-1.58 2.29,-2.87 3.34,-4.36 0.04,-0.05 0.08,-0.13 0.11,-0.18l0.53 -0.95c0.14,-0.2 0.41,-0.45 0.57,-0.62 0.16,-0.17 0.43,-0.42 0.57,-0.62l1.51 -2.05c0.89,-1 0.71,-1.19 2.23,-2.81 0.82,-0.87 1.19,-1.82 2.07,-2.67l1.03 -1.34c0.03,-0.06 0.07,-0.14 0.1,-0.2l11.89 -13.9c0.06,-0.06 0.45,-0.43 0.6,-0.58l17.33 -17.35c0.07,-0.06 0.26,-0.21 0.33,-0.26l1.14 -0.64c0.12,-0.09 0.51,-0.44 0.63,-0.56l3.09 -3.14c0.01,-0.01 0.65,-0.51 0.66,-0.52 0.44,-0.28 0.33,-0.13 0.77,-0.41 0.54,-0.34 0.78,-0.65 1.24,-1.13 0.49,-0.5 0.68,-0.7 1.17,-1.2l1.34 -1.03c0.06,-0.03 0.14,-0.07 0.2,-0.1l4.98 -4.2c0.45,-0.47 0.02,-0.13 0.6,-0.58 0.83,-0.65 -0.59,0.35 0.35,-0.24 0.06,-0.03 0.13,-0.07 0.19,-0.11l3.55 -2.68c0.03,-0.02 0.59,-0.47 0.66,-0.53l6.46 -4.8c0.05,-0.03 0.13,-0.08 0.18,-0.11l3.96 -2.86c0.05,-0.03 0.13,-0.08 0.18,-0.12l3.21 -2.43c0.05,-0.04 0.13,-0.07 0.19,-0.11l3.56 -2.37c0.03,-0.02 0.35,-0.19 0.38,-0.21 0.06,-0.03 0.13,-0.07 0.19,-0.11l11.67 -7.3c0.21,-0.1 0.58,-0.29 0.79,-0.39l6.72 -3.96c0.06,-0.03 0.14,-0.07 0.2,-0.1 0.06,-0.03 0.14,-0.07 0.2,-0.1 0.08,-0.04 0.31,-0.16 0.4,-0.2l1.59 -0.78c0.47,-0.26 0.33,-0.18 0.72,-0.47l8.95 -4.68c0.17,-0.08 0.36,-0.18 0.59,-0.3l0.4 -0.2c0.06,-0.03 0.14,-0.07 0.2,-0.1l0.99 -0.49c0.06,-0.03 0.14,-0.07 0.2,-0.1l0.99 -0.49c0.06,-0.03 0.14,-0.07 0.2,-0.1l3.55 -1.78c0.06,-0.03 0.14,-0.07 0.2,-0.1l5.14 -2.27c0.06,-0.03 0.14,-0.07 0.2,-0.1l9.09 -3.96c0.07,-0.03 0.14,-0.06 0.21,-0.09l0.68 -0.21c0.08,-0.02 0.16,-0.04 0.23,-0.06l0.45 -0.14c0.07,-0.03 0.15,-0.06 0.21,-0.09l5.49 -2.22c0.07,-0.02 0.15,-0.05 0.22,-0.08l7.18 -2.61c0.07,-0.02 0.15,-0.05 0.22,-0.07l5.11 -1.71c0.07,-0.02 0.15,-0.05 0.22,-0.07l1.34 -0.44c0.07,-0.02 0.15,-0.05 0.22,-0.08l14.23 -4.15c0.33,-0.11 0.56,-0.17 0.9,-0.29l14.16 -3.33c0.09,-0.02 0.16,-0.03 0.25,-0.05l7.8 -1.69c0.87,-0.24 1.38,-0.03 2.23,-0.15 2.2,-0.29 -0.38,-0.26 1.82,-0.55 1.12,-0.15 1.32,0.14 2.44,-0.23l3.11 -0.45c1.25,-0.25 1.45,-0.51 3.04,-0.52l1.97 -0.4c1.42,-0.48 2.91,0.07 4.33,-0.41 1.57,-0.53 3.82,-0.08 5.34,-0.59 1.78,-0.6 4.71,0.02 6.52,-0.59 2.57,-0.87 6.87,0.29 9.48,-0.59l0.63 -0.26c0.41,-0.12 28.18,-0.62 30.41,0.17 2.44,0.87 6.6,-0.4 9.28,0.5 0.8,0.27 -0.54,0.03 0.86,0.33 0.36,0.08 0.74,0.08 1.1,0.08 3.81,0.05 2.33,-0.15 5.42,0.51 1.39,0.3 3.19,-0.17 4.48,0.26 1.07,0.36 4.02,0.39 5.15,0.77 1.14,0.38 2.9,0.18 4.15,0.59 1,0.33 2.2,0.1 3.14,0.41 0.82,0.27 -0.56,0.04 0.86,0.32l8.5 1.28c2.15,0.31 -0.31,0.23 1.84,0.53l2.48 0.48c0.08,0.02 0.15,0.04 0.24,0.06l3.18 0.67c0.61,0.05 0.44,-0.03 1.06,0.13 0.08,0.02 0.15,0.05 0.22,0.08l9.36 2.2c0.09,0.02 0.17,0.02 0.25,0.04 0.08,0.02 0.16,0.04 0.24,0.06l2.88 0.97c0.09,0.02 0.17,0.03 0.25,0.04 0.49,0.1 0.48,0.03 1.01,0.17l0.87 0.31c0.53,0.14 0.52,0.08 1.01,0.17l1.59 0.49c0.07,0.02 0.15,0.04 0.23,0.07 0.07,0.02 0.15,0.04 0.23,0.07 0.07,0.02 0.15,0.05 0.22,0.07l6.58 2.01c0.07,0.02 0.15,0.05 0.22,0.08l2 0.67c0.38,0.12 0.61,0.18 0.9,0.28l7.11 2.37c0.25,0.09 0.18,0.07 0.44,0.16 0.07,0.02 0.15,0.05 0.22,0.08l4.52 1.7c0.31,0.1 0.53,0.16 0.91,0.28l0.45 0.15c0.09,0.03 0.33,0.14 0.41,0.18l8.03 3.23c0.07,0.02 0.16,0.04 0.23,0.07l12.68 5.7c0.13,0.06 0.27,0.13 0.4,0.2l2.77 1.38c0.06,0.03 0.14,0.07 0.2,0.1 0.06,0.03 0.14,0.07 0.2,0.1 0,0 0.4,0.2 0.4,0.2 0.06,0.03 0.14,0.07 0.2,0.1l1.38 0.69c0.06,0.03 0.14,0.07 0.2,0.1l0.59 0.3c0.06,0.03 0.14,0.07 0.2,0.1 0.06,0.03 0.14,0.07 0.2,0.1 0.06,0.03 0.14,0.07 0.2,0.1l10.87 5.73c3.02,1.51 5.71,3.45 8.7,4.93l4.74 2.97c1.38,0.67 2.3,1.54 3.57,2.36l0.76 0.43c0.05,0.03 0.13,0.08 0.18,0.12l14.07 9.65c1,0.59 -0.61,-0.38 0.39,0.2 0.06,0.03 0.14,0.07 0.19,0.11l1.79 1.47c0.08,0.05 0.31,0.16 0.39,0.2 0.06,0.03 0.14,0.07 0.19,0.11l2.18 1.67c0.06,0.03 0.14,0.07 0.19,0.11 0.05,0.03 0.13,0.08 0.18,0.11l1.42 1.25c0.06,0.03 0.13,0.07 0.19,0.1l2.11 1.74c0.01,0.01 0.65,0.52 0.66,0.52 0.44,0.28 0.33,0.13 0.77,0.41 1.37,0.86 1.76,1.7 2.58,2.16 1.04,0.59 1.66,1.81 3.17,2.76l2.02 1.54c0.49,0.5 0.68,0.7 1.18,1.2l0.96 0.82c0.06,0.04 0.13,0.07 0.19,0.11l0.94 0.55c0.76,0.59 -0.05,-0.08 0.6,0.58 1.12,1.13 2.26,2.66 3.61,3.51 3.36,2.11 14.37,13.99 18.77,18.28 0.36,0.35 0.29,0.23 0.6,0.59 0.06,0.07 0.21,0.26 0.26,0.33l1.95 2.5c1.22,1.21 2.42,2.36 3.32,3.79 0.82,1.31 2.89,2.97 3.14,3.38l0.41 0.77c0.26,0.41 2.14,2.24 2.96,3.56 0.73,1.16 1.77,1.88 2.06,2.38l2.68 3.55c0.02,0.03 0.47,0.59 0.53,0.66l5.45 7.29c0.04,0.05 0.08,0.13 0.12,0.18l2 2.75c0.03,0.06 0.07,0.14 0.1,0.19 0.03,0.06 0.07,0.13 0.11,0.19l1.08 1.59c0.03,0.06 0.07,0.13 0.11,0.19 0.03,0.05 0.08,0.13 0.12,0.18 0.01,0.01 0.51,0.65 0.52,0.66l3.78 5.71c0.88,1.73 2.22,3.37 3.34,4.96l0.23 0.36c0.04,0.08 0.16,0.31 0.2,0.39 0.03,0.06 0.06,0.14 0.09,0.2l0.38 0.81c0.26,0.47 0.18,0.33 0.47,0.72 0.22,0.3 0.41,0.51 0.51,0.67 0.27,0.42 0.16,0.34 0.43,0.76l10.26 18.2c0.11,0.23 0.28,0.56 0.4,0.79l0.79 1.58c0.11,0.23 0.28,0.56 0.4,0.79 0.04,0.08 0.16,0.31 0.2,0.4l0.49 0.99c0.03,0.06 0.07,0.14 0.1,0.2 0.03,0.06 0.07,0.14 0.1,0.2 0.04,0.08 0.16,0.31 0.2,0.4l0.2 0.39c0.03,0.06 0.07,0.14 0.1,0.2 0.03,0.06 0.07,0.14 0.1,0.2 0.04,0.08 0.16,0.31 0.2,0.4l0.2 0.4c0.03,0.06 0.07,0.14 0.1,0.2 0.03,0.06 0.07,0.14 0.1,0.2 0.04,0.08 0.16,0.31 0.2,0.39l1.38 2.77c0.03,0.06 0.07,0.14 0.1,0.2 0.03,0.06 0.07,0.14 0.1,0.2l0.3 0.59c0.03,0.06 0.07,0.14 0.09,0.2 0.03,0.07 0.06,0.14 0.08,0.21 0.03,0.07 0.05,0.15 0.08,0.22l2.21 4.9c0.03,0.07 0.06,0.14 0.09,0.21l1.09 2.76c0.03,0.06 0.07,0.14 0.1,0.2l0.4 0.79c0.03,0.06 0.07,0.14 0.1,0.2l1.59 3.75c0.03,0.06 0.07,0.13 0.1,0.2l0.18 0.41c0.03,0.07 0.05,0.15 0.08,0.22l0.42 1.36c0.03,0.06 0.06,0.14 0.09,0.2l4.57 12.03c0.03,0.09 0.13,0.34 0.16,0.43 0.02,0.07 0.05,0.15 0.08,0.22l0.36 1.12c0.09,0.27 0.07,0.16 0.16,0.44 0.02,0.07 0.05,0.15 0.08,0.22l0.67 2c0.12,0.38 0.18,0.61 0.28,0.9l0.24 0.65c0.02,0.07 0.05,0.15 0.07,0.22 0.12,0.38 0.18,0.61 0.29,0.9l1.19 3.55c0.33,0.96 -0.01,-0.46 0.29,0.9l2.24 7.84c0.12,0.41 0.07,0.14 0.18,0.71l1.09 3.66c0.13,0.52 0.08,0.55 0.17,1.01l1.07 4.56c0.02,0.09 0.03,0.16 0.04,0.25l0.25 1.23c0.02,0.07 0.06,0.14 0.08,0.21l0.44 1.93c0.02,0.07 0.05,0.15 0.08,0.22l2.45 11.48c0.33,0.96 0.19,1.7 0.32,2.65 0.29,2.2 0.26,-0.38 0.55,1.82 0.15,1.12 -0.14,1.32 0.23,2.44l0.77 3.97c0.48,1.42 -0.06,2.91 0.41,4.33 0.4,1.19 0.21,3 0.59,4.15 0.27,0.8 0.03,-0.53 0.33,0.86 0.3,1.39 -0.17,3.19 0.26,4.48 0.6,1.78 -0.02,4.71 0.59,6.52 1.16,3.44 -0.37,5.82 0.86,10.11l0.11 29.5c-0.21,1.45 -0.11,0.43 -0.28,0.9 -0.87,2.44 0.4,6.6 -0.5,9.28 -0.6,1.79 -0.01,4.78 -0.59,6.52 -0.39,1.15 -0.24,2.84 -0.38,4.37 -0.11,1.29 -0.29,0.62 -0.55,1.83 -0.21,1 0.03,2.4 -0.27,3.29 -0.48,1.43 -0.13,2.83 -0.45,4.3l-0.53 3.02c-0.1,1.31 -0.28,0.62 -0.53,1.84l-1.28 8.5c-0.31,2.15 -0.23,-0.31 -0.53,1.84l-0.48 2.48c-0.02,0.08 -0.04,0.15 -0.06,0.24 -0.02,0.09 -0.03,0.16 -0.04,0.25l-1.96 8.72c-0.02,0.08 -0.05,0.15 -0.08,0.22l-0.58 2.97c-0.02,0.07 -0.06,0.14 -0.09,0.21l-0.38 1.7c-0.02,0.08 -0.04,0.16 -0.06,0.24l-0.23 0.66c-0.02,0.07 -0.06,0.15 -0.08,0.22l-0.95 3.49c-0.02,0.07 -0.06,0.14 -0.08,0.21l-0.33 1.45c-0.02,0.09 -0.02,0.17 -0.04,0.25 -0.02,0.08 -0.04,0.16 -0.06,0.24l-5.06 15.69c-0.02,0.07 -0.05,0.15 -0.07,0.22l-4 10.82c-0.02,0.07 -0.05,0.15 -0.08,0.22l-2.22 5.49c-0.03,0.07 -0.06,0.14 -0.09,0.21l-0.14 0.45c-0.02,0.08 -0.04,0.16 -0.06,0.23l-0.29 0.89c-0.03,0.07 -0.06,0.14 -0.09,0.2l-1 1.96c-0.03,0.06 -0.07,0.14 -0.1,0.2l-1.09 2.76c-0.03,0.07 -0.06,0.15 -0.09,0.21l-3.17 6.91c-0.06,0.13 -0.13,0.27 -0.2,0.4l-0.59 1.19c-0.03,0.06 -0.07,0.14 -0.1,0.2l-0.2 0.39c-0.03,0.06 -0.07,0.14 -0.1,0.2 -0.06,0.11 -0.14,0.29 -0.2,0.39 -0.03,0.06 -0.07,0.14 -0.1,0.2l-0.2 0.4c-0.03,0.06 -0.07,0.14 -0.1,0.2 -0.06,0.11 -0.14,0.29 -0.2,0.4 -0.03,0.06 -0.07,0.14 -0.1,0.2l-0.2 0.4c-0.03,0.06 -0.07,0.14 -0.1,0.2 -0.06,0.11 -0.14,0.29 -0.2,0.4 -0.03,0.06 -0.07,0.14 -0.1,0.2l-0.2 0.4c-0.03,0.06 -0.07,0.14 -0.1,0.2 -0.06,0.11 -0.14,0.29 -0.2,0.39 -0.03,0.06 -0.07,0.14 -0.1,0.2l-0.2 0.4c-0.03,0.06 -0.07,0.14 -0.1,0.2 -0.06,0.11 -0.14,0.29 -0.2,0.4 -0.03,0.06 -0.07,0.14 -0.1,0.2l-0.2 0.4c-0.03,0.06 -0.07,0.14 -0.1,0.2 -0.06,0.11 -0.14,0.29 -0.2,0.4 -0.03,0.06 -0.07,0.14 -0.1,0.2l-0.2 0.39c-0.03,0.06 -0.07,0.14 -0.1,0.2 -0.06,0.11 -0.14,0.29 -0.2,0.39 -0.03,0.06 -0.07,0.14 -0.1,0.2l-0.2 0.4c-0.03,0.06 -0.07,0.14 -0.1,0.2 -0.12,0.23 -0.21,0.42 -0.3,0.59l-2.56 4.55c-0.14,0.22 -0.3,0.55 -0.41,0.77l-5.52 9.9c-0.11,0.23 -0.27,0.55 -0.41,0.77l-4.92 7.53c-0.24,0.36 -0.12,0.24 -0.32,0.57 -0.03,0.06 -0.07,0.13 -0.11,0.19l-2.96 4.75c-0.03,0.05 -0.08,0.13 -0.11,0.18l-1.36 1.61c-0.03,0.06 -0.07,0.14 -0.1,0.19 -0.03,0.06 -0.07,0.14 -0.1,0.19 -0.03,0.06 -0.07,0.13 -0.11,0.19l-2.16 3.18c-0.03,0.06 -0.07,0.14 -0.1,0.19l-1.09 1.28c-0.06,0.06 -0.22,0.25 -0.27,0.32 -0.04,0.05 -0.08,0.13 -0.11,0.18l-1.18 1.79c-0.04,0.05 -0.08,0.13 -0.11,0.19 -0.03,0.06 -0.07,0.14 -0.1,0.19 -0.03,0.06 -0.07,0.14 -0.1,0.19l-4.91 6.35c-0.04,0.05 -0.08,0.13 -0.11,0.18l-1.85 2.3c-0.82,0.87 -1.19,1.82 -2.07,2.67l-0.82 0.95c-0.03,0.06 -0.07,0.13 -0.1,0.19l-0.55 0.94c-0.59,0.76 0.09,-0.06 -0.58,0.6l-5.39 6.17c-0.89,1.52 -3.58,3.57 -5.05,5.92l-20.84 20.36c-1.33,1.36 -2.64,2.77 -4.24,3.77 -1.77,1.11 -2.42,2.55 -3.96,3.45l-2.31 2.13c-0.88,0.82 -1.82,1.19 -2.67,2.07 -0.45,0.47 -0.02,0.13 -0.6,0.58l-0.74 0.45c-0.06,0.03 -0.14,0.07 -0.2,0.1l-10.07 7.71c-0.06,0.03 -0.13,0.07 -0.19,0.11l-0.84 0.64c-0.05,0.04 -0.13,0.08 -0.18,0.12l-2.55 1.89c-0.06,0.03 -0.14,0.07 -0.19,0.1l-1.22 0.85c-0.05,0.04 -0.13,0.08 -0.18,0.12l-2.16 1.4c-0.06,0.03 -0.14,0.07 -0.19,0.1l-0.37 0.22c-0.07,0.05 -0.26,0.21 -0.32,0.27l-4.25 2.86c-0.08,0.04 -0.31,0.16 -0.39,0.2l-1.95 1.31c-0.05,0.03 -0.13,0.08 -0.18,0.12l-3.19 2.15c-0.06,0.03 -0.14,0.06 -0.2,0.09l-10.42 6.18c-0.3,0.22 -0.52,0.43 -0.66,0.52l-5.34 2.96c-0.22,0.14 -0.55,0.3 -0.77,0.41l-1.19 0.58c-0.07,0.03 -0.33,0.16 -0.39,0.2l-5.93 2.96c-0.17,0.08 -0.36,0.18 -0.59,0.3 -0.06,0.03 -0.14,0.07 -0.2,0.1l-0.4 0.2c-0.06,0.03 -0.14,0.07 -0.2,0.1 -0.41,0.21 0.02,-0.01 -0.4,0.2l-0.39 0.2c-0.06,0.03 -0.14,0.07 -0.2,0.1l-0.99 0.49c-0.06,0.03 -0.14,0.07 -0.2,0.1l-18.18 8.21c-0.07,0.03 -0.14,0.06 -0.21,0.09l-4.97 1.84c-0.07,0.02 -0.15,0.05 -0.23,0.07 -0.51,0.16 -0.41,0.09 -0.91,0.28l-11.91 4.4c-0.07,0.02 -0.15,0.05 -0.22,0.07l-1.56 0.52c-0.07,0.02 -0.15,0.05 -0.22,0.07 -0.38,0.12 -0.61,0.18 -0.9,0.29l-2.43 0.83c-0.07,0.02 -0.15,0.05 -0.22,0.07l-2.82 0.74c-1.35,0.3 0.06,-0.04 -0.9,0.29 -0.25,0.09 -0.53,0.17 -0.89,0.29 -0.07,0.02 -0.15,0.05 -0.22,0.07l-5.51 1.6c-0.47,0.09 -0.5,0.04 -1.01,0.17 -0.08,0.02 -0.15,0.05 -0.23,0.07l-7.76 2.02c-0.08,0.02 -0.15,0.04 -0.24,0.06l-3.4 0.75c-0.08,0.02 -0.16,0.04 -0.24,0.06 -0.07,0.02 -0.15,0.05 -0.22,0.08l-2.26 0.41c-1.19,0.17 -0.68,0.18 -0.93,0.26l-2.57 0.69c-0.07,0.02 -0.14,0.06 -0.22,0.08l-5.71 1.11c-0.07,0.02 -0.14,0.06 -0.22,0.08 -0.87,0.24 -1.38,0.03 -2.23,0.15 -2.2,0.29 0.38,0.26 -1.82,0.55 -1.12,0.15 -1.32,-0.14 -2.44,0.23l-3.97 0.77c-1.42,0.48 -2.91,-0.06 -4.33,0.41 -0.82,0.28 0.55,0.03 -0.86,0.33 -1.15,0.24 -2.24,-0.09 -3.29,0.27 -1.31,0.44 -2.72,0.23 -4.37,0.38 -0.88,0.08 -0.35,0.01 -0.97,0.22l-3.17 0.39c-4.91,-0.06 -1.81,0.6 -8.9,0.59 -0.79,-0 -1.62,-0.03 -2.39,-0.02 -0.37,0.01 -0.75,0 -1.1,0.08l-30.58 0.52c-1.39,-0.2 -1.04,-0.6 -2.96,-0.6 -2.07,0.01 -5.3,0.46 -7.22,-0.19l-1.96 -0.41c-1.47,-0.02 -3.31,0.24 -4.56,-0.18 -1.57,-0.53 -3.82,-0.08 -5.34,-0.59 -0.82,-0.28 0.55,-0.03 -0.86,-0.33 -0.73,-0.15 -1.59,0.01 -2.32,-0.05 -1.3,-0.1 -0.61,-0.28 -1.83,-0.54 -1.5,-0.32 -2.86,0.03 -4.3,-0.44 -1,-0.33 -2.2,-0.1 -3.14,-0.41l-3.11 -0.45c-1.42,-0.29 -0.04,-0.05 -0.86,-0.32l-20.39 -4.22c-0.08,-0.02 -0.15,-0.04 -0.24,-0.06l-6.77 -1.83c-0.49,-0.1 -0.48,-0.03 -1.01,-0.17l-9.4 -2.75c-0.36,-0.12 -0.62,-0.19 -0.9,-0.29l-7.77 -2.61c-0.07,-0.02 -0.15,-0.05 -0.22,-0.07l-2.68 -0.88c-0.25,-0.09 -0.18,-0.07 -0.44,-0.16l-12.44 -4.75c-0.06,-0.03 -0.13,-0.07 -0.2,-0.1 -0.01,-0.01 -0.37,-0.21 -0.38,-0.21l-3.37 -1.38c-0.06,-0.03 -0.14,-0.07 -0.2,-0.1l-5.14 -2.27c-0.06,-0.03 -0.14,-0.07 -0.2,-0.1l-3.96 -1.67c-0.07,-0.03 -0.14,-0.06 -0.2,-0.09l-2.16 -1.1c-0.06,-0.03 -0.14,-0.07 -0.2,-0.1 -0.06,-0.03 -0.14,-0.07 -0.2,-0.1 0,0 -0.4,-0.2 -0.4,-0.2l-0.79 -0.4c-0.37,-0.18 -0.03,-0.01 -0.39,-0.2l-0.79 -0.4c-0.37,-0.18 -0.03,-0.01 -0.4,-0.2l-0.79 -0.4c-0.37,-0.18 -0.03,-0.01 -0.4,-0.2l-0.79 -0.39c-0.37,-0.18 -0.03,-0.01 -0.39,-0.2l-0.79 -0.39c-0.37,-0.18 -0.03,-0.01 -0.4,-0.2l-0.79 -0.4c-0.37,-0.18 -0.03,-0.01 -0.4,-0.2l-0.79 -0.4c-0.37,-0.18 -0.03,-0.01 -0.39,-0.2l-5.94 -3.25c-0.22,-0.14 -0.55,-0.3 -0.77,-0.41l-2.38 -1.18c-2.09,-1.02 -3.88,-2.56 -5.92,-3.57l-1.6 -0.77c-0.23,-0.11 -0.55,-0.27 -0.77,-0.41l-1.95 -1.31c-0.05,-0.04 -0.12,-0.09 -0.17,-0.13l-12.71 -8.33c-0.06,-0.03 -0.14,-0.07 -0.19,-0.1l-6.31 -4.36c-0.05,-0.03 -0.13,-0.08 -0.18,-0.12l-1.03 -0.75c-0.06,-0.03 -0.14,-0.07 -0.19,-0.1l-11.7 -9.05c-0.45,-0.47 -0.02,-0.13 -0.6,-0.58l-1.13 -0.65c-0.95,-0.6 0.49,0.41 -0.35,-0.24l-1.19 -1.19c-0.12,-0.12 -0.55,-0.57 -0.58,-0.6 -0.01,-0.01 -0.65,-0.51 -0.66,-0.52l-2.02 -1.54c-1.96,-2.01 -2.16,-1.81 -3.26,-2.67l-1.78 -1.78c-0.49,-0.49 -0.7,-0.69 -1.18,-1.19l-4 -3.41c-3.16,-3.16 -6.32,-6.32 -9.48,-9.49l-7.5 -7.62c-0.04,-0.06 -0.07,-0.13 -0.11,-0.19 -0.29,-0.5 0.09,0.11 -0.2,-0.39 -0.03,-0.06 -0.07,-0.14 -0.1,-0.19l-7.89 -8.71c-0.03,-0.06 -0.07,-0.13 -0.1,-0.19l-1.73 -2.12c-1.08,-1.04 -1.61,-2.23 -2.67,-3.25 -0.47,-0.45 -0.13,-0.02 -0.58,-0.6l-3.02 -4.09c-0.02,-0.03 -0.47,-0.59 -0.53,-0.66l-10.21 -13.8c-0.04,-0.05 -0.08,-0.13 -0.11,-0.18l-3.5 -5.69c-0.01,-0.01 -0.51,-0.64 -0.53,-0.66l-1.73 -2.71c-0.04,-0.05 -0.08,-0.13 -0.12,-0.18l-6.77 -11.31c-0.26,-0.47 -0.17,-0.32 -0.47,-0.72l-5.08 -9.15c-0,0 -0.2,-0.39 -0.2,-0.4l-2.77 -5.53c-0.03,-0.06 -0.07,-0.14 -0.1,-0.2l-0.49 -0.99c-0.03,-0.06 -0.07,-0.14 -0.1,-0.2l-0.49 -0.99c-0.03,-0.06 -0.07,-0.14 -0.1,-0.2l-0.49 -0.99c-0.03,-0.06 -0.07,-0.14 -0.1,-0.2l-1.87 -3.76c-0.03,-0.07 -0.05,-0.15 -0.08,-0.22l-1.81 -4.12c-0.06,-0.13 -0.13,-0.27 -0.2,-0.4 -0.03,-0.06 -0.07,-0.14 -0.1,-0.2l-3.15 -7.52c-0.03,-0.06 -0.07,-0.13 -0.1,-0.2l-2.09 -5.32c-0.03,-0.07 -0.06,-0.15 -0.09,-0.21l-2.61 -6.58c-0.12,-0.38 -0.17,-0.59 -0.28,-0.91l-1.94 -5.77c-0.02,-0.07 -0.05,-0.15 -0.08,-0.22l-3.24 -10.39c-0.02,-0.07 -0.05,-0.15 -0.08,-0.22l-4.06 -15.8c-0.02,-0.08 -0.06,-0.15 -0.08,-0.22 -0.02,-0.07 -0.06,-0.14 -0.09,-0.21 -0.02,-0.07 -0.06,-0.14 -0.09,-0.21l-3.06 -13.84c-0.24,-0.87 -0.03,-1.38 -0.15,-2.23 -0.29,-2.2 -0.26,0.38 -0.55,-1.82 -0.15,-1.12 0.14,-1.32 -0.23,-2.44 -0.27,-0.82 -0.04,0.56 -0.32,-0.86 -0.09,-0.45 -0.05,-0.67 -0.06,-1.12 -0.05,-1.88 -0.57,-2.26 -0.58,-4.16l-0.4 -1.97c-0.48,-1.42 0.07,-2.91 -0.41,-4.33 -0.53,-1.57 -0.08,-3.82 -0.59,-5.34 -0.27,-0.8 -0.03,0.54 -0.33,-0.86 -0.37,-1.73 0.29,-4.02 -0.27,-5.66 -0.27,-0.8 -0.03,0.54 -0.33,-0.86 -0.19,-0.87 -0.06,-3.62 -0.06,-4.68 0,-0.79 0.03,-1.61 0.02,-2.4 -0.01,-2.63 -0.32,-1.2 -0.62,-2.05zm307.98 -335.25l13.51 0c1.03,0.08 1.87,0.21 2.41,0.39 1.68,0.57 4.23,0.19 6.04,0.19 2.06,-0.01 2.39,0.64 4.42,0.62 1.2,-0.01 2.59,-0.21 3.74,0.11 2.68,0.76 4.07,0.18 5.55,0.67 1.44,0.48 3.38,0.13 4.74,0.59 1.38,0.46 2.83,0.15 4.15,0.59 0.81,0.27 -0.55,0.03 0.86,0.33 0.38,0.08 0.72,0.07 1.12,0.07 2.62,0.01 1.84,0.37 3.29,0.56 0.38,0.05 0.79,0 1.17,0.02l7.2 1.4c0.79,0.25 -0.55,0.04 0.86,0.32 0.88,0.18 1.56,-0.06 2.48,0.19l10.17 2.28c1.66,0.23 0.34,0.09 1.14,0.35l6.74 1.86c0.56,0.15 0.73,0.09 1.27,0.22 0.08,0.02 0.16,0.04 0.24,0.06l2.6 0.66c0.09,0.03 0.34,0.13 0.43,0.16 0.07,0.02 0.15,0.06 0.22,0.08 0.07,0.02 0.15,0.05 0.22,0.08 0.34,0.12 0.66,0.22 0.89,0.29l6.83 2.07c0.42,0.09 0.61,0.06 1.03,0.16 1.35,0.3 -0.06,-0.04 0.9,0.29 0.25,0.09 0.53,0.17 0.89,0.29l0.88 0.31c0.07,0.02 0.15,0.05 0.22,0.08l11.86 4.15c0.07,0.02 0.15,0.05 0.23,0.07l6.26 2.34c0.03,0.02 0.35,0.2 0.38,0.21 0.06,0.03 0.13,0.07 0.2,0.1l1.78 0.59c0.07,0.03 0.15,0.06 0.21,0.09 0.06,0.03 0.14,0.07 0.2,0.09 0.06,0.03 0.13,0.07 0.2,0.1 0.06,0.03 0.13,0.07 0.19,0.1l7.11 2.96c0.06,0.03 0.14,0.07 0.2,0.1l0.79 0.4c0.06,0.03 0.13,0.07 0.19,0.1l7.32 3.35c0.06,0.03 0.14,0.07 0.2,0.1l8.7 4.05c0.23,0.11 0.56,0.28 0.79,0.4 0.07,0.03 0.33,0.16 0.4,0.2l15.01 8.4c0.08,0.05 0.31,0.16 0.39,0.2l0.81 0.37c0.08,0.04 0.31,0.16 0.39,0.2l5.93 3.56c1.29,0.76 2.39,1.83 3.74,2.48 0.06,0.03 0.14,0.06 0.2,0.09l13.44 9.08c0.06,0.03 0.14,0.07 0.19,0.1l0.38 0.21c0.96,0.62 -0.49,-0.43 0.35,0.24l4.45 3.25c0.48,0.45 -0.12,0.02 0.59,0.59l0.74 0.45c0.06,0.03 0.14,0.07 0.2,0.1l5.71 4.37c0.07,0.05 0.26,0.21 0.33,0.26l1.68 1.58c0.06,0.03 0.13,0.07 0.19,0.1 0.06,0.03 0.14,0.07 0.2,0.1 0.06,0.03 0.14,0.07 0.2,0.1l0.54 0.35c0.65,0.51 0.22,0.19 0.74,0.74 0.35,0.37 0.23,0.29 0.58,0.6l0.7 0.48c0,0 0.39,0.2 0.39,0.2 1.12,0.65 1.96,1.85 2.9,2.73l1.62 1.05c1.41,0.98 2.3,2.69 3.79,3.62 0.38,0.24 0.24,0.11 0.58,0.31l14.92 14.13c1.87,1.87 4.17,3.7 5.78,5.78 0.65,0.84 -0.36,-0.6 0.24,0.35 1.52,2.42 3.3,3.39 5.55,6.01l1.61 2.24c0.5,0.49 0.7,0.68 1.19,1.18l1.34 1.32c0.06,0.07 0.21,0.26 0.26,0.33l8.52 10.45c0.07,0.12 0.13,0.27 0.2,0.39l1.58 1.98c0.07,0.12 0.13,0.27 0.2,0.39l0.22 0.37c0.8,1.14 1.92,1.97 3.13,3.98l4.74 6.52c0.03,0.06 0.07,0.14 0.1,0.19l3.18 4.53c0.12,0.19 0.27,0.34 0.51,0.67l10.44 16.53c0.05,0.08 0.16,0.31 0.2,0.39l4.83 8.51c0.03,0.07 0.16,0.33 0.2,0.4l0.59 1.19c0.03,0.06 0.07,0.14 0.1,0.2l2.14 3.79c1.03,1.46 1.7,3.31 2.5,4.91l7.51 16.2c0.03,0.06 0.07,0.14 0.1,0.2l0.95 2.31c0.02,0.07 0.04,0.16 0.07,0.23 0.02,0.07 0.05,0.15 0.08,0.22 0.03,0.07 0.06,0.15 0.09,0.21l0.83 1.84c0.16,0.51 0.07,0.4 0.27,0.92l2.31 5.7c0.02,0.07 0.05,0.15 0.08,0.22l0.58 1.79c0.03,0.07 0.06,0.15 0.09,0.21 0.03,0.06 0.07,0.14 0.09,0.2l1.32 3.42c0.1,0.32 0.08,0.36 0.2,0.69l0.36 0.83c0.04,0.08 0.17,0.3 0.21,0.38l0.63 1.74c0.02,0.07 0.05,0.15 0.08,0.22l0.23 0.65c0.02,0.07 0.05,0.15 0.07,0.22l4.08 12.82c0.02,0.07 0.05,0.15 0.07,0.22 0.02,0.07 0.04,0.15 0.07,0.23l5.92 22.84c0.22,2.14 0.94,3.24 1.18,5.05 0.05,0.38 0,0.79 0.02,1.17l0.81 4.23c0.25,0.79 0.03,-0.54 0.31,0.87l0.28 2.09c0.25,0.79 0.04,-0.55 0.32,0.86 0.19,0.95 -0.05,1.73 0.27,2.7l0.4 1.67c0.08,2.64 0.58,2.59 0.59,4.45l0.59 4.45c-0.02,1.1 -0.12,1.54 0.19,2.47l0.41 1.96c0.04,4.33 0.29,2.65 0.56,4.48 0.36,2.42 -0.35,3.11 0.48,6.04 0.67,2.34 -0.32,5.81 0.42,7.88l0.3 2.28 0 32.17c-0.02,0.21 -0.04,0.37 -0.06,0.48 -0.3,1.39 -0.06,0.05 -0.33,0.86 -0.57,1.68 -0.19,4.23 -0.19,6.04l-0.31 2.06c-0.71,1.99 0.03,4.61 -0.68,6.73 -0.51,1.52 0.08,3.46 -0.41,4.92 -0.49,1.46 -0.12,3.15 -0.51,4.53 -0.02,0.07 -0.06,0.14 -0.08,0.21l-0.26 0.63c-0.34,1.19 0.05,2.38 -0.33,3.52 -0.37,1.1 -0.21,2.09 -0.4,3.45 -0.27,1.98 -0.3,-0.17 -0.56,1.81 -0.05,0.38 0,0.79 -0.02,1.17l-0.47 1.9c-0.22,0.84 -0.04,1.27 -0.26,2.11l-0.67 3.18c-0.43,1.34 -0.64,4.15 -1.19,5.92l-1.19 5.34c-0.02,0.07 -0.06,0.14 -0.09,0.21l-1.61 7.28c-0.02,0.08 -0.05,0.15 -0.07,0.23l-2.39 8.28c-0.33,0.96 0.01,-0.46 -0.29,0.9l-1.12 3.92c-0.11,0.34 -0.17,0.57 -0.28,0.9l-2.6 8.36c-0.02,0.07 -0.05,0.15 -0.08,0.22l-0.36 1.13c-0.03,0.09 -0.13,0.34 -0.16,0.43 -0.02,0.07 -0.05,0.15 -0.08,0.22l-2.44 6.75c-0.16,0.51 -0.09,0.41 -0.28,0.91l-1.12 2.73c-0.02,0.07 -0.05,0.15 -0.08,0.22 -0.02,0.07 -0.06,0.15 -0.08,0.22l-0.5 1.57c-0.03,0.07 -0.06,0.15 -0.09,0.21 -0.03,0.06 -0.06,0.14 -0.09,0.2l-5.67 13.6c-0.02,0.07 -0.05,0.15 -0.08,0.22l-0.88 1.79c-0.06,0.13 -0.13,0.27 -0.2,0.39l-2.07 4.16c-0.19,0.52 -0.16,0.62 -0.34,1.15 -0.02,0.07 -0.05,0.15 -0.08,0.22l-3.84 7.71c-0.03,0.06 -0.07,0.14 -0.1,0.2l-0.8 1.57c-0.03,0.05 -0.09,0.12 -0.12,0.18l-0.65 0.83c-0.04,0.05 -0.08,0.13 -0.11,0.18l-6.82 12.45c-0.03,0.06 -0.06,0.14 -0.09,0.2 -0.03,0.06 -0.06,0.14 -0.09,0.2l-13.54 21.14c-0.16,0.17 -0.42,0.42 -0.57,0.62 -0.04,0.05 -0.08,0.13 -0.12,0.18l-1.29 1.97c-0.03,0.06 -0.07,0.14 -0.1,0.19 -0.03,0.06 -0.07,0.14 -0.1,0.19l-1.36 1.61c-0.04,0.05 -0.08,0.13 -0.11,0.18 -0.03,0.06 -0.07,0.13 -0.11,0.19l-2.96 4.15c-0.03,0.06 -0.07,0.14 -0.1,0.19l-1.64 1.91c-1.16,1.23 -2.4,3.65 -3.85,5.04l-0.82 0.95c-0.73,1.17 -0.35,0.88 -1.39,1.87 -0.37,0.35 -0.29,0.23 -0.6,0.58 -0.06,0.07 -0.21,0.26 -0.26,0.33 -0.04,0.05 -0.08,0.13 -0.11,0.18 -0.03,0.06 -0.07,0.13 -0.1,0.19l-1.13 1.54c-0.3,0.29 -0.32,0.31 -0.6,0.58l-1.83 2.03c-0.29,0.5 0.09,-0.11 -0.2,0.39l-1.38 1.58c-1.98,1.94 -2.87,3.46 -4.74,5.33 -1.19,1.19 -2.73,2.31 -3.65,3.76l-2.28 2.76c-2.77,2.77 -10.77,11.31 -12.55,12.35 -0.06,0.03 -0.14,0.07 -0.2,0.1 -0.06,0.03 -0.14,0.07 -0.2,0.1 -0.06,0.03 -0.14,0.07 -0.19,0.11 -0.95,0.6 0.49,-0.41 -0.35,0.24 -1.43,1.11 -2.95,2.93 -4.29,4.3l-1.29 1.08c-0.34,0.2 -0.2,0.07 -0.58,0.31 -0.54,0.34 -2.39,2.65 -3.79,3.62l-0.76 0.42c-1.12,0.65 -1.96,1.85 -2.9,2.73l-1.24 0.83c-0.06,0.03 -0.14,0.07 -0.19,0.1 -0.89,0.56 -1.31,1.4 -2.19,1.96l-2.96 2.37c-0.05,0.03 -0.13,0.07 -0.19,0.1l-2 1.56c-0.05,0.04 -0.13,0.08 -0.18,0.11l-6.93 5.22c-0.05,0.04 -0.13,0.08 -0.18,0.11l-6.01 4.36c-0.06,0.06 -0.25,0.22 -0.32,0.27l-3.75 2.48c-0.05,0.03 -0.13,0.08 -0.19,0.11 -0.08,0.05 -0.31,0.16 -0.38,0.21l-1.21 0.87c-0.05,0.04 -0.13,0.08 -0.19,0.11 -0.08,0.05 -0.31,0.16 -0.38,0.21l-16.61 10.36c-0.22,0.14 -0.55,0.3 -0.77,0.41l-9.1 4.83c-0.06,0.03 -0.14,0.07 -0.2,0.1l-6.51 3.57c-0.06,0.03 -0.14,0.07 -0.2,0.1 -0.06,0.03 -0.14,0.07 -0.2,0.1l-15.02 6.92c-0.06,0.03 -0.14,0.07 -0.2,0.1 -0.06,0.03 -0.14,0.07 -0.2,0.1l-9.06 3.69c-0.07,0.02 -0.15,0.05 -0.22,0.08l-2.73 1.12c-0.07,0.02 -0.15,0.05 -0.22,0.08l-1.57 0.5c-0.07,0.02 -0.15,0.05 -0.22,0.08 -0.07,0.03 -0.15,0.06 -0.21,0.09l-2.74 1.11c-0.09,0.03 -0.34,0.13 -0.44,0.16l-1.14 0.35c-0.07,0.02 -0.15,0.05 -0.22,0.08l-1.82 0.85c-0.37,0.13 -0.54,0.15 -0.92,0.27l-1.1 0.38c-0.38,0.12 -0.61,0.18 -0.9,0.28l-0.88 0.31c-0.38,0.12 -0.61,0.18 -0.9,0.28 -0.09,0.03 -0.34,0.13 -0.43,0.16l-7.28 2.2c-0.09,0.03 -0.34,0.13 -0.43,0.16 -0.07,0.02 -0.15,0.06 -0.22,0.08l-6.83 2.07c-0.07,0.02 -0.15,0.06 -0.22,0.08l-0.43 0.16c-0.07,0.02 -0.15,0.05 -0.23,0.07l-5.43 1.39c-0.07,0.02 -0.15,0.05 -0.22,0.07l-0.65 0.24c-0.07,0.02 -0.15,0.05 -0.23,0.07l-14.31 3.18c-1.02,0.24 -0.11,0.3 -1.58,0.49 -0.38,0.05 -0.79,0 -1.17,0.02 -1.36,0.05 -0.94,0.29 -2.14,0.53 -0.96,0.19 -1.1,-0.03 -2.09,0.28 -0.79,0.25 0.54,0.03 -0.87,0.31 -0.48,0.1 -0.66,0.03 -1.11,0.08 -0.94,0.1 -0.26,-0.04 -0.99,0.2l-5.23 0.99c-1.16,0.04 -1.43,-0.16 -2.48,0.19 -1.1,0.37 -2.09,0.21 -3.45,0.4 -1.38,0.19 -1.02,0.61 -2.97,0.59 -2.16,-0.03 -2.47,0.58 -4.44,0.6 -4.33,0.04 -2.65,0.29 -4.48,0.56 -1.37,0.2 -3.65,-0.21 -4.97,0.07 -2.54,0.55 -1.03,0.54 -4.5,0.53 -5.16,-0.01 -3.86,0.42 -5.5,0.59l-18.8 0 -13.51 0c-1.03,-0.08 -1.87,-0.21 -2.41,-0.39 -0.62,-0.21 -0.09,-0.14 -0.97,-0.22 -0.63,-0.06 -1.7,0.01 -2.38,0.01 -1.34,0.01 -3.76,0.05 -4.74,-0.3 -0.27,-0.1 0.25,-0.04 -0.65,-0.24 -1.69,-0.36 -3.75,0.3 -5.45,-0.18 -0.07,-0.02 -0.14,-0.06 -0.21,-0.08l-0.63 -0.26c-0.68,-0.19 -1.5,-0.14 -2.25,-0.12 -1.06,0.02 -1.59,0.09 -2.46,-0.21 -1.46,-0.49 -3.15,-0.12 -4.53,-0.51 -2.54,-0.72 -3.19,-0.28 -4.36,-0.67l-12.64 -2.18c-1.28,-0.13 -0.62,-0.27 -1.85,-0.52 -0.88,-0.18 -1.56,0.06 -2.48,-0.19l-5.97 -1.44c-0.71,-0.22 -0.49,-0.1 -1.23,-0.25 -1.05,-0.21 -0.45,-0.33 -1.84,-0.53 -0.39,-0.06 -0.73,-0.01 -1.12,-0.06 -1.57,-0.22 -0.79,-0.31 -2.11,-0.56 -0.72,-0.14 -0.34,-0.02 -0.97,-0.21 -0.01,-0 -0.42,-0.16 -0.43,-0.17l-2.6 -0.66c-0.33,-0.11 -0.56,-0.17 -0.9,-0.29l-3.03 -0.83c-0.75,-0.23 -1.2,-0.19 -1.95,-0.42l-0.65 -0.24c-0.07,-0.02 -0.15,-0.05 -0.22,-0.08 -0.34,-0.12 -0.66,-0.22 -0.89,-0.29l-2.39 -0.57c-0.07,-0.02 -0.15,-0.06 -0.22,-0.08 -0.07,-0.02 -0.14,-0.06 -0.21,-0.08l-7.92 -2.46c-0.34,-0.11 -0.57,-0.17 -0.91,-0.28l-2.87 -0.98c-0.38,-0.12 -0.61,-0.18 -0.9,-0.29 -0.09,-0.03 -0.34,-0.13 -0.43,-0.16l-4.12 -1.51c-0.06,-0.03 -0.13,-0.07 -0.2,-0.1 -0.06,-0.03 -0.14,-0.07 -0.2,-0.09 -0.07,-0.03 -0.14,-0.06 -0.21,-0.09 -0.07,-0.03 -0.15,-0.05 -0.22,-0.08l-7.45 -2.63c-0.07,-0.02 -0.15,-0.05 -0.22,-0.08l-1.6 -0.77c-0.07,-0.03 -0.15,-0.05 -0.22,-0.08l-14.79 -6.26c-0.06,-0.03 -0.14,-0.07 -0.2,-0.1l-1.38 -0.69c-0.23,-0.12 -0.56,-0.28 -0.79,-0.4l-4.74 -2.07c-0.13,-0.06 -0.27,-0.13 -0.4,-0.2l-4.15 -2.07c-0.23,-0.11 -0.56,-0.28 -0.79,-0.4l-4.74 -2.67c-0.24,-0.12 -0.42,-0.21 -0.59,-0.3l-10.46 -5.84c-0.06,-0.03 -0.14,-0.06 -0.2,-0.09l-1.36 -0.72c-0.07,-0.05 -0.26,-0.21 -0.33,-0.26 -0.33,-0.25 -0.24,-0.22 -0.5,-0.39l-2.62 -1.53c-0.41,-0.31 -0.1,-0.11 -0.53,-0.36l-4.56 -2.85c-0.05,-0.04 -0.13,-0.08 -0.18,-0.11l-2.44 -1.41c-0.05,-0.04 -0.12,-0.09 -0.17,-0.13l-5.34 -3.56c-0.05,-0.04 -0.13,-0.08 -0.18,-0.12 -0.05,-0.03 -0.13,-0.08 -0.19,-0.11l-0.57 -0.32c-0.05,-0.04 -0.13,-0.08 -0.18,-0.12l-3.02 -2.31c-0.05,-0.04 -0.13,-0.08 -0.18,-0.12l-9.43 -6.58c-1.51,-1.18 -2.17,-2.14 -4.98,-3.91l-1.84 -1.72c-0.53,-0.42 -1.36,-0.72 -2.22,-1.63 -0.87,-0.91 -1.94,-1.32 -2.83,-2.21 -0.29,-0.3 -0.31,-0.32 -0.58,-0.6 -0.29,-0.3 -0.28,-0.28 -0.59,-0.6l-1.06 -1.01c-3.78,-2.63 -2.73,-2.81 -5.7,-4.68 -1.61,-1.01 -3.05,-2.91 -4.35,-4.24l-22.43 -22.63c-0.2,-0.34 -0.07,-0.2 -0.31,-0.58l-5.57 -6.28c-0.3,-0.29 -0.28,-0.28 -0.6,-0.59l-2.83 -3.4c-0.86,-0.86 -1.32,-1.95 -2.22,-2.82l-2.6 -3.33c-1.24,-1.96 -3.23,-3.79 -4.36,-5.72 -0.03,-0.06 -0.07,-0.14 -0.1,-0.19l-1.08 -1.59c-0.03,-0.06 -0.07,-0.14 -0.1,-0.19 -0.03,-0.06 -0.07,-0.14 -0.11,-0.19l-1.37 -1.6c-0.28,-0.43 -0.14,-0.33 -0.42,-0.77l-11.31 -16.84c-0.04,-0.05 -0.09,-0.12 -0.12,-0.18l-0.6 -1.18c-0.03,-0.06 -0.06,-0.14 -0.09,-0.2l-2.75 -4.37c-0.04,-0.05 -0.09,-0.12 -0.12,-0.17l-0.89 -1.78c-0.03,-0.06 -0.08,-0.13 -0.11,-0.18l-4.93 -8.7c-0.03,-0.06 -0.07,-0.14 -0.1,-0.2l-1.55 -2.6c-0.04,-0.05 -0.09,-0.12 -0.12,-0.17l-1.19 -2.36c-0.03,-0.06 -0.07,-0.14 -0.1,-0.2l-1.68 -3.36c-0.08,-0.15 -0.1,-0.2 -0.2,-0.4l-1.89 -3.74c-0.03,-0.06 -0.07,-0.13 -0.1,-0.2 -0.03,-0.06 -0.07,-0.14 -0.09,-0.2l-5.03 -11.27c-0.03,-0.06 -0.07,-0.14 -0.1,-0.2 -0.03,-0.06 -0.07,-0.14 -0.1,-0.2 -0.03,-0.06 -0.07,-0.14 -0.1,-0.2l-0.41 -0.78c-0.03,-0.06 -0.07,-0.13 -0.1,-0.2 -0.03,-0.06 -0.07,-0.14 -0.09,-0.2l-0.23 -0.66c-0.02,-0.08 -0.04,-0.16 -0.06,-0.23 -0.02,-0.08 -0.04,-0.16 -0.06,-0.23l-0.23 -0.66c-0.03,-0.06 -0.06,-0.14 -0.09,-0.2l-3.39 -8.47c-0.02,-0.07 -0.05,-0.15 -0.08,-0.22l-0.68 -1.99c-0.03,-0.06 -0.07,-0.13 -0.1,-0.2 -0.03,-0.06 -0.07,-0.13 -0.1,-0.19l-0.39 -0.8c-0.03,-0.07 -0.05,-0.15 -0.08,-0.22 -0.02,-0.07 -0.05,-0.15 -0.07,-0.23l-0.94 -2.91c-0.03,-0.06 -0.06,-0.14 -0.09,-0.2 -0.03,-0.06 -0.07,-0.13 -0.1,-0.2 -0.09,-0.18 -0.12,-0.2 -0.21,-0.38l-3 -8.86c-0.02,-0.07 -0.05,-0.15 -0.08,-0.22l-3.03 -10.31c-0.02,-0.07 -0.06,-0.14 -0.08,-0.21 -0.02,-0.07 -0.06,-0.15 -0.08,-0.22l-1.62 -6.09c-0.02,-0.07 -0.06,-0.14 -0.08,-0.21 -0.02,-0.07 -0.06,-0.15 -0.08,-0.22 -0.02,-0.07 -0.05,-0.15 -0.07,-0.22l-1.98 -8.4c-0.02,-0.08 -0.06,-0.15 -0.08,-0.22l-0.25 -0.64c-0.15,-0.54 -0.08,-0.52 -0.18,-1.01l-0.93 -4.11c-0.48,-1.54 -0.73,-2.46 -0.8,-4.23l-0.81 -4.23c-0.25,-0.79 -0.03,0.54 -0.31,-0.87l-1.27 -7.33c-0.08,-2.64 -0.58,-2.59 -0.59,-4.45 -0,-0.44 0.05,-1.06 -0,-1.48 -0.19,-1.38 -0.61,-1.02 -0.59,-2.97 0.02,-1.67 -0.24,-2.01 -0.52,-3.33 -0.08,-0.36 -0.08,-0.74 -0.08,-1.11 -0.04,-4.33 -0.29,-2.65 -0.56,-4.48 -0.23,-1.55 0.16,-4.29 -0.31,-5.62 -0.02,-0.07 -0.07,-0.14 -0.09,-0.21 -0.02,-0.07 -0.06,-0.14 -0.08,-0.21 -0.14,-0.5 -0.12,-0.48 -0.15,-1.04l-0.28 -6.84c-0.13,-0.37 -0.23,-1.14 -0.3,-2.17l0 -17.69 0 -13.51c0.08,-1.03 0.21,-1.87 0.39,-2.41 0.57,-1.68 0.19,-4.23 0.19,-6.04 -0.01,-2.06 0.64,-2.39 0.62,-4.42 -0.01,-0.78 -0.04,-1.63 -0.03,-2.4l0.61 -4.42c-0.04,-2.04 0.6,-2.48 0.61,-4.43 0,-0.87 -0.13,-1.75 0.1,-2.56 0.72,-2.54 0.28,-3.19 0.67,-4.36l2.1 -11.54c0.1,-0.48 0.03,-0.66 0.08,-1.1 0.1,-0.95 -0.04,-0.26 0.2,-0.99l1.56 -7.33c0.05,-0.44 -0.01,-0.63 0.08,-1.11 0.28,-1.41 0.04,-0.04 0.31,-0.88l0.84 -4.2c0.22,-1.54 0.72,-2.41 1.07,-3.96l2.31 -8.66c0.02,-0.07 0.05,-0.15 0.08,-0.22l0.58 -1.79c0.09,-0.42 0.06,-0.61 0.16,-1.03l2.51 -8.16c0.02,-0.07 0.06,-0.15 0.08,-0.22l1.34 -3.99c0.02,-0.07 0.05,-0.15 0.07,-0.22 0.12,-0.38 0.18,-0.61 0.29,-0.9 0.03,-0.09 0.13,-0.34 0.16,-0.43 0.02,-0.07 0.05,-0.15 0.08,-0.22 0.02,-0.07 0.05,-0.15 0.07,-0.22l3.84 -10.39c0.02,-0.07 0.06,-0.15 0.08,-0.22l1.19 -2.96c0.03,-0.07 0.06,-0.14 0.09,-0.21l0.27 -0.92c0.02,-0.07 0.04,-0.15 0.07,-0.23 0.02,-0.07 0.05,-0.15 0.08,-0.22l0.18 -0.41c0.03,-0.06 0.07,-0.13 0.1,-0.2l2.37 -5.93c0.04,-0.08 0.16,-0.31 0.2,-0.39l0.2 -0.39c0.03,-0.06 0.07,-0.14 0.1,-0.2l0.3 -0.59c0.03,-0.06 0.07,-0.14 0.1,-0.2 0.46,-0.91 -0.26,0.51 0.2,-0.39l1.48 -3.56c0.03,-0.06 0.07,-0.14 0.1,-0.2 0.03,-0.06 0.07,-0.14 0.1,-0.2l0.4 -0.79c0.03,-0.06 0.07,-0.14 0.1,-0.2l4.94 -10.47c0.26,-0.52 -0.15,0.31 0.2,-0.4l4.35 -8.1c0.03,-0.07 0.16,-0.33 0.2,-0.4l0.59 -1.19c0.09,-0.17 0.18,-0.35 0.29,-0.59 0.03,-0.06 0.07,-0.14 0.1,-0.2 0.03,-0.06 0.07,-0.14 0.1,-0.2l11.18 -18.76c0.11,-0.17 0.27,-0.32 0.52,-0.67 0.04,-0.05 0.09,-0.12 0.13,-0.17l1.62 -2.53c0.03,-0.06 0.07,-0.13 0.11,-0.19 0.03,-0.05 0.08,-0.13 0.12,-0.18l0.96 -1.41c0.03,-0.06 0.07,-0.13 0.11,-0.19l1.3 -1.96c0.04,-0.05 0.09,-0.12 0.13,-0.17l1.05 -1.62c0.14,-0.2 0.41,-0.45 0.57,-0.62l3.65 -4.95c0.04,-0.06 0.07,-0.13 0.11,-0.19l4.71 -6.26c0.01,-0.01 0.52,-0.65 0.52,-0.66l2.19 -3.14c0.03,-0.06 0.08,-0.13 0.11,-0.18l4.1 -4.79c0.04,-0.05 0.08,-0.13 0.11,-0.18l7.71 -8.89c1.23,-1.96 2.99,-3.5 4.65,-5.13l9.78 -10.38c1.68,-1.68 3.37,-3.34 5.03,-5.04 0.88,-0.9 1.7,-1.22 2.23,-1.63 1.88,-1.46 3.43,-4.12 5.59,-5.38l4.04 -3.67c0.07,-0.06 0.26,-0.21 0.33,-0.26 0.05,-0.04 0.13,-0.08 0.18,-0.11 0.06,-0.04 0.13,-0.07 0.19,-0.11l1.54 -1.13c2.15,-2.19 2.95,-2.4 4.57,-4.02 0.86,-0.86 1.95,-1.32 2.82,-2.22 0.31,-0.32 0.47,-0.5 0.77,-0.71 0.05,-0.04 0.13,-0.08 0.18,-0.11l0.58 -0.31c0.06,-0.03 0.14,-0.07 0.19,-0.1 0.05,-0.03 0.13,-0.08 0.18,-0.11l3.57 -2.95c0.23,-0.23 0.48,-0.46 0.81,-0.67l2.56 -1.88c0.06,-0.03 0.14,-0.07 0.19,-0.1l6.5 -4.47c0.07,-0.05 0.26,-0.21 0.32,-0.27l12.78 -8.57c0.05,-0.04 0.12,-0.08 0.18,-0.12 0.05,-0.04 0.13,-0.08 0.19,-0.11l0.57 -0.32c0.05,-0.03 0.13,-0.08 0.18,-0.12l6.76 -4.2c0.05,-0.03 0.13,-0.08 0.18,-0.11l10.08 -5.63c0.07,-0.04 0.33,-0.16 0.4,-0.2l1.19 -0.58c0.02,-0.01 0.56,-0.28 0.59,-0.3l4.74 -2.67c0.06,-0.03 0.14,-0.07 0.2,-0.1 0.11,-0.06 0.29,-0.14 0.4,-0.2 0.06,-0.03 0.14,-0.07 0.2,-0.1l0.59 -0.3c0.06,-0.03 0.14,-0.07 0.2,-0.1l4.55 -2.27c0.13,-0.06 0.27,-0.13 0.39,-0.2l2.24 -1.02c0.5,-0.16 0.41,-0.08 0.92,-0.27l1 -0.48c0.06,-0.03 0.14,-0.07 0.2,-0.1 0.87,-0.45 -0.48,0.24 0.39,-0.2l2.17 -1.09c0.06,-0.03 0.14,-0.07 0.2,-0.1 0.06,-0.03 0.14,-0.07 0.2,-0.1l7.25 -3.12c0.07,-0.02 0.16,-0.04 0.23,-0.07l9.32 -3.72c0.07,-0.02 0.15,-0.06 0.22,-0.08 0.07,-0.02 0.15,-0.05 0.22,-0.08 0.07,-0.02 0.15,-0.05 0.23,-0.07l8.82 -3.33c0.07,-0.02 0.15,-0.06 0.22,-0.08 0.07,-0.02 0.15,-0.05 0.22,-0.08 0.07,-0.02 0.15,-0.05 0.22,-0.07l5.56 -1.85c0.07,-0.02 0.15,-0.04 0.23,-0.07 0.07,-0.02 0.15,-0.05 0.22,-0.07 0.07,-0.02 0.15,-0.05 0.22,-0.08 0.07,-0.02 0.15,-0.05 0.22,-0.08l4.81 -1.41c0.07,-0.02 0.15,-0.04 0.23,-0.07 0.07,-0.02 0.15,-0.04 0.23,-0.07 0.07,-0.02 0.15,-0.05 0.22,-0.07l1.99 -0.68c0.07,-0.02 0.14,-0.06 0.21,-0.08 0.07,-0.02 0.14,-0.06 0.22,-0.08l2.39 -0.57c0.07,-0.02 0.15,-0.06 0.22,-0.08l10.67 -2.97c0.08,-0.02 0.15,-0.04 0.24,-0.06 0.43,-0.1 0.6,-0.06 1.02,-0.16l9.19 -2.07c1.54,-0.48 2.46,-0.73 4.23,-0.8l10.96 -2.08c0.07,-0.02 0.14,-0.07 0.21,-0.09l1.26 -0.22c1.16,-0.04 1.43,0.16 2.48,-0.19l4.36 -0.68c0.85,-0.3 3.47,-0.15 4.54,-0.5 1.35,-0.46 3.01,-0.16 4.64,-0.4 2.16,-0.31 -0.35,-0.25 1.81,-0.56 1.55,-0.23 4.29,0.16 5.62,-0.31 0.07,-0.02 0.14,-0.07 0.21,-0.09 2.39,-0.81 5.21,0.24 7.67,-0.33l0.42 -0.17c0.36,-0.23 0.01,-0.11 0.65,-0.24l19.21 -0.06z"></path> <path class="fil0" d="M228.84 401.35c-0.18,0.97 0.38,0.41 -0.59,0.59 0.18,-0.97 -0.38,-0.41 0.59,-0.59zm0 0c0.19,-0.72 -0.13,-0.4 0.59,-0.59 -0.2,0.77 0.11,0.33 -0.59,0.59zm8.3 -9.49c1.32,-0.48 12.79,-12.49 13.64,-13.34 31.16,-31.17 62.51,-62.17 93.52,-93.52 0.63,-0.64 1.12,-1.34 1.93,-1.63l0 184.97c-1.25,-0.45 -2.14,-1.54 -3.36,-2.27l-3.56 -2.37c-0.06,-0.03 -0.14,-0.07 -0.19,-0.1l-8.85 -6.26c-0.05,-0.04 -0.12,-0.09 -0.17,-0.13l-0.86 -0.62c-0.08,-0.05 -0.31,-0.16 -0.38,-0.21l-5.18 -3.71c-0.05,-0.04 -0.12,-0.08 -0.18,-0.12l-6.12 -4.26c-0.08,-0.05 -0.31,-0.16 -0.38,-0.21l-5.54 -3.94c-0.08,-0.05 -0.31,-0.16 -0.38,-0.21l-7.52 -5.23c-0.06,-0.03 -0.14,-0.07 -0.19,-0.1l-2.17 -1.68c-0.06,-0.03 -0.14,-0.07 -0.19,-0.1 -0.06,-0.03 -0.13,-0.07 -0.19,-0.11l-2.99 -2.05c-0.06,-0.03 -0.14,-0.07 -0.19,-0.1l-5.74 -4.05c-0.06,-0.03 -0.14,-0.07 -0.19,-0.1l-2.56 -1.89c-0.06,-0.03 -0.13,-0.07 -0.19,-0.11l-2.99 -2.05c-0.06,-0.03 -0.14,-0.07 -0.19,-0.1l-2.56 -1.89c-0.06,-0.03 -0.13,-0.07 -0.19,-0.11 -0.29,-0.19 -0.16,-0.12 -0.51,-0.38l-16.17 -11.4c-0.05,-0.04 -0.12,-0.09 -0.17,-0.13l-12.79 -8.85c-0.05,-0.03 -0.13,-0.08 -0.18,-0.12 -0.02,-0.01 -0.33,-0.28 -0.49,-0.39 -0.05,-0.04 -0.12,-0.09 -0.17,-0.13l-3.49 -2.44c-0.01,-0.01 -0.34,-0.28 -0.49,-0.39l-4.87 -3.43c-0.06,-0.03 -0.14,-0.07 -0.19,-0.1l-3.56 -2.37c-0.97,-0.58 -1.52,-1.65 -2.77,-1.68l0 -0.59zm123.31 -22.53l0 -95.45 3.3 0.56c0.72,0.15 0.54,0.04 1.23,0.25l6.2 2.1c0.08,0.03 0.39,0.1 0.47,0.12 0.07,0.02 0.15,0.04 0.23,0.07l1.81 0.86c0.06,0.03 0.14,0.07 0.2,0.1l1.78 0.89c0.07,0.03 0.33,0.16 0.4,0.2 0.06,0.03 0.14,0.07 0.2,0.1l2.6 1.55c0.05,0.04 0.12,0.08 0.18,0.12l2.35 1.5c0.44,0.26 0.11,0.01 0.54,0.35l1.63 1.33c1.53,0.87 5.77,5.07 7.32,7.5l3.85 5.34c0.03,0.04 0.29,0.57 0.3,0.59 0,0 0.19,0.4 0.19,0.41l0.53 0.95c1.14,1.61 1.36,2.88 2.24,4.58 0.03,0.06 0.07,0.14 0.1,0.2l1.42 3.62c0.13,0.4 0.2,0.61 0.29,0.89 0.31,0.88 0.11,-0.52 0.34,1.15l0.83 4.8c0.25,0.78 0.13,-0.55 0.37,1.11l-0.01 4.16c0.09,2.06 1.04,1.82 0.42,3.62 -0.03,0.07 -0.07,0.14 -0.1,0.21 -0.86,2.35 0.31,2.93 -0.76,6.95l-0.51 2.75c-0.13,0.43 -0.06,0.13 -0.18,0.71l-2.21 6.98c-0.03,0.06 -0.07,0.14 -0.1,0.2 -0.03,0.06 -0.07,0.14 -0.1,0.2l-0.49 0.99c0,0 -0.2,0.4 -0.2,0.4 -0.03,0.06 -0.07,0.14 -0.1,0.2 -0.03,0.06 -0.07,0.14 -0.1,0.2l-2.06 4.16c-0.03,0.06 -0.07,0.13 -0.1,0.19 -0.03,0.06 -0.08,0.13 -0.11,0.18l-2.06 2.98c-0.2,0.34 -0.07,0.2 -0.31,0.58 -0.6,0.95 -1.39,1.28 -1.96,2.19l-3.17 3.65c-0.98,0.98 -2,2.09 -3.16,2.77l-2.55 1.89c-0.29,0.19 -0.16,0.12 -0.51,0.38 -0.07,0.05 -0.26,0.21 -0.33,0.26 -0.05,0.04 -0.12,0.08 -0.18,0.12l-1.6 1.07c-0.05,0.04 -0.12,0.09 -0.18,0.12l-8.9 4.14c-0.29,0.1 -0.52,0.16 -0.9,0.28l-2.64 0.91c-1.85,0.56 -3.6,0.8 -5.72,0.8zm-132.2 32.61l0 1.19c0.82,0.02 1.04,0.13 1.65,0.73l5.26 3.63c0.04,0.02 0.59,0.47 0.66,0.53l2.92 2.12c0.08,0.05 0.31,0.16 0.38,0.21l11.47 8.09c0.07,0.05 0.31,0.16 0.38,0.21l11.86 8.3c0.06,0.03 0.13,0.07 0.19,0.11l7.72 5.33c0.04,0.02 0.59,0.47 0.65,0.53l3.3 2.33c0.06,0.03 0.14,0.07 0.19,0.11l2.36 1.79c0.18,0.12 0.34,0.27 0.67,0.51l6.1 4.28c0.05,0.04 0.12,0.08 0.18,0.12l1.6 1.07c0.05,0.04 0.13,0.08 0.18,0.12 0.05,0.03 0.13,0.08 0.19,0.11 0.06,0.03 0.14,0.07 0.19,0.1l3.59 2.63c0.05,0.04 0.13,0.08 0.18,0.12l1.6 1.07c0.05,0.04 0.13,0.08 0.18,0.12 0.05,0.03 0.13,0.08 0.19,0.11l3.61 2.61c0.05,0.04 0.12,0.09 0.17,0.13l2.14 1.41c0.06,0.03 0.14,0.07 0.19,0.1l0.57 0.32c0.37,0.26 0.49,0.46 0.76,0.72l2.26 1.59c0.05,0.04 0.12,0.08 0.18,0.12l1.97 1.29c0.06,0.03 0.14,0.07 0.19,0.1l1.33 1.04c0.07,0.06 0.62,0.51 0.65,0.53l8.47 5.76c0.05,0.03 0.13,0.08 0.18,0.12l1.03 0.75c0.06,0.03 0.14,0.07 0.19,0.1 0.06,0.03 0.14,0.07 0.19,0.1l1.13 0.94c0.07,0.06 0.62,0.51 0.65,0.53 0.43,0.28 0.33,0.14 0.77,0.42l2.99 2.05c0.06,0.03 0.14,0.07 0.19,0.1l6.32 4.65c0.06,0.03 0.14,0.07 0.19,0.1 0.06,0.03 0.14,0.07 0.19,0.1l0.7 0.49c0.07,0.05 0.26,0.21 0.33,0.26l3.97 2.85c0.84,0.67 -0.61,-0.37 0.35,0.24 0.06,0.04 0.13,0.07 0.19,0.11 0.06,0.03 0.14,0.07 0.19,0.1l0.89 0.59c0.07,0.05 0.26,0.21 0.33,0.26l1.12 0.66c0.01,0.01 0.65,0.51 0.66,0.52l0.37 0.23c0.34,0.21 0.19,0.07 0.58,0.31 1.19,0.77 1.22,1.13 1.79,1.47 0.06,0.03 0.14,0.07 0.19,0.1l3.37 2.26c0.34,0.2 0.19,0.06 0.58,0.31 1.19,0.77 1.22,1.13 1.79,1.47l1.98 1.28c0.06,0.03 0.14,0.07 0.19,0.1l1.79 1.47c0.62,0.32 0.25,0.08 0.9,0.29 1.09,0.35 2.03,0.69 3.33,0.51l1.7 -0.68c0.06,-0.03 0.14,-0.07 0.2,-0.1 0.06,-0.03 0.14,-0.07 0.2,-0.1l0.79 -0.39c1.27,-0.73 2.15,-1.88 2.63,-3.3 0.13,-0.38 0.15,-0.53 0.27,-0.91l0.33 -0.86c0.51,-1.92 0.12,-95.32 0.12,-98.59l2.31 -0.06c0.86,-0.18 0.43,-0.16 0.65,-0.24l2.3 -0.37c0.83,-0.16 0.47,-0.16 0.67,-0.22l2.37 -0.6c0.07,-0.02 0.14,-0.06 0.21,-0.08l1.73 -0.35c0.08,-0.02 0.15,-0.05 0.23,-0.07l14.82 -6.52c0.05,-0.03 0.12,-0.09 0.18,-0.12l5.17 -3.72c1.56,-0.92 2.59,-2.3 4.14,-3.27l5.39 -5.87c0.84,-1.09 1.92,-1.83 2.62,-3.01l0.87 -1.21c0.03,-0.05 0.08,-0.13 0.11,-0.19l2.09 -2.95c0.03,-0.06 0.06,-0.14 0.09,-0.2l3.16 -5.73c0.12,-0.23 0.21,-0.42 0.3,-0.59l1.96 -4.56c0.02,-0.07 0.05,-0.15 0.08,-0.22l0.28 -0.91c0.02,-0.07 0.05,-0.15 0.08,-0.22l3.36 -13.24c0.04,-4.14 0.61,-2.95 0.58,-6.24 -0.01,-1.15 0.06,-2.46 0.02,-3.58 -0.11,-2.56 -0.53,-0.36 -0.64,-2.92 -0.04,-1.03 0.15,-2.6 0.01,-3.56 -0.12,-0.83 -0.1,-0.41 -0.19,-0.7 -0.02,-0.07 -0.07,-0.14 -0.09,-0.21l-1.03 -4.9c-0.02,-0.08 -0.05,-0.15 -0.07,-0.22l-1.94 -6.36c-0.02,-0.07 -0.05,-0.15 -0.08,-0.22l-0.53 -1.55c-0.04,-0.08 -0.17,-0.31 -0.21,-0.39l-0.53 -1.25c-0.1,-0.31 -0.08,-0.36 -0.19,-0.7l-8.07 -13.27c-1.26,-2.14 -1.91,-1.86 -3.85,-4.75l-2.92 -2.41c-0.69,-0.7 -1.08,-1.08 -1.78,-1.78 -1.34,-1.34 -1.73,-1.4 -2.96,-2.38l-5.2 -3.69c-0.58,-0.31 -0.27,-0.14 -0.55,-0.34l-15.38 -6.85c-0.07,-0.02 -0.15,-0.04 -0.23,-0.07l-0.83 -0.36c-0.04,-0.02 -0.12,-0.08 -0.19,-0.11l0 -0.59c0.81,-0.29 0.94,-0.63 1.63,-1.33 16.48,-16.89 33.39,-33.39 50.1,-50.09l45.35 -44.76c1.17,-1.2 2.07,-2.07 3.26,-3.26 0.63,-0.63 1.08,-1.07 1.63,-1.63 0.06,-0.06 0.23,-0.24 0.29,-0.3 0.01,-0.01 0.43,-0.45 0.44,-0.45 0.57,-0.53 0.33,-0.47 1.05,-0.73l0 -1.19c-0.62,-0.23 -0.28,-0.08 -0.74,-0.45 -2.29,-1.82 -4.41,-4.4 -6.52,-6.52 -0.84,-0.83 -1.82,-1.41 -2.22,-2.52l-0.59 0c-0.23,0.62 -0.08,0.28 -0.45,0.74 -1.82,2.29 -79.57,79.58 -80.77,80.78l-241.43 241.43c-0.89,0.89 -1.71,2.12 -2.81,2.52l0 0.59c1.09,0.39 1.71,1.41 2.52,2.22 0.89,0.89 1.48,1.48 2.37,2.37 1.06,1.06 4.1,3.54 4.59,4.89l1.19 0 75.44 -75.73c1.07,-1.07 3.83,-4.4 5.19,-4.89z"></path> <path class="fil0" d="M212.83 251.96l-58.1 0c-0.36,0.89 0.64,0.45 -1.16,0.62 -0.58,0.05 -1.07,-0.09 -1.74,0.04l-0.87 0.31c-0.07,0.02 -0.15,0.05 -0.22,0.08l-11.61 4.99 -7.82 7c-0.22,0.23 -0.09,0.02 -0.43,0.46l-0.66 1.12c-0.16,0.25 -0.59,0.77 -0.76,1.02l-4.82 10.3 -0.74 3.71c-0.17,1.66 -0.17,0.77 -0.38,1.4 -0.47,1.41 -0.37,66.19 -0.23,76.29 0.01,0.93 -0.01,0.82 0.23,1.55l7.35 17.55c1.33,1.71 4.55,4.77 6.46,5.99l1.98 1.57c0.06,0.03 0.14,0.07 0.19,0.1l10.32 4.5c0.47,0.13 0.34,0.06 0.75,0.14 0.42,0.08 0.27,0.01 0.75,0.14l0.43 0.16c0.07,0.02 0.14,0.07 0.21,0.09 1.25,0.4 2.04,0.08 3.36,0.19 1.73,0.14 0.75,0.19 1.38,0.4 0.73,0.24 0.63,0.21 1.55,0.23l19.62 0.01c1.8,-0.19 0.79,0.26 1.15,-0.63 0.91,-0.37 0.64,0.32 0.6,-2.96l-0 -7.41c0.02,-2.16 0.53,-2.81 -0.59,-3.26 -0.29,-0.71 -0.87,-0.62 -1.75,-0.63 -5.01,-0.02 -21.02,0.59 -23.96,-0.34 -0.07,-0.02 -0.15,-0.05 -0.22,-0.08 -0.59,-0.16 -0.71,-0.09 -1.27,-0.21l-3.83 -1.81c-0.06,-0.03 -0.14,-0.07 -0.2,-0.1l-0.6 -0.29c-1.09,-0.55 -1.87,-2 -2.97,-2.37 -0.45,-0.15 -0.27,-0.1 -0.77,-0.12 -0.01,-0.37 0.03,-0.24 -0.06,-0.53 -0.02,-0.05 -0.03,-0.18 -0.06,-0.24 -0.25,-0.67 -1.22,-1.36 -1.67,-1.88l-3.62 -9.13c-0.35,-1.75 -0.09,0.42 -0.46,-1.31 -0.22,-1.03 -0.3,-72.34 0.07,-73.63 0.02,-0.07 0.06,-0.14 0.08,-0.21l1.28 -4.95c0.02,-0.07 0.06,-0.15 0.08,-0.22l0.28 -0.91c0.02,-0.07 0.04,-0.15 0.07,-0.23l0.67 -1.41c0.21,-0.31 0.1,-0.12 0.39,-0.5l0.49 -0.7c0.03,-0.06 0.07,-0.14 0.1,-0.19l3.17 -3.94c1.16,-0.71 1.95,-1.6 3.15,-2.19l5.74 -2.56c1.4,-0.44 2.4,0.01 4.16,-0.58 1.91,-0.64 49.92,-0.21 54.63,-0.21l5.43 -0.8 4.81 -3.49c0.05,-0.04 0.12,-0.09 0.17,-0.13l0.37 -0.23c0.33,-0.2 0.21,-0.08 0.57,-0.32l1.6 -1.07c0.06,-0.03 0.14,-0.07 0.19,-0.11l3.38 -2.54c0.05,-0.04 0.13,-0.08 0.19,-0.11l0.38 -0.21c0.06,-0.03 0.13,-0.07 0.19,-0.11l1.97 -1.29c0.09,-0.06 0.31,-0.26 0.47,-0.42l3.3 -2.33c0.06,-0.03 0.13,-0.07 0.19,-0.11l7.14 -5.02c0.33,-0.2 0.21,-0.08 0.57,-0.32l5.74 -4.04c0.06,-0.03 0.13,-0.07 0.19,-0.11 0.05,-0.03 0.13,-0.08 0.18,-0.12l3.4 -2.53c0.33,-0.2 0.2,-0.08 0.57,-0.31 0.29,-0.19 0.16,-0.12 0.51,-0.38l3.24 -2.1c0.09,-0.06 0.31,-0.26 0.47,-0.42l3.84 -2.69c0.07,-0.05 0.25,-0.22 0.33,-0.27 0.05,-0.04 0.12,-0.09 0.17,-0.13l6.86 -4.7c0.05,-0.03 0.13,-0.08 0.18,-0.12l1.42 -0.95c0.44,-0.26 0.11,-0.01 0.54,-0.35l8.12 -5.81c0.05,-0.04 0.12,-0.09 0.17,-0.13l1.05 -0.73c0.06,-0.03 0.14,-0.07 0.19,-0.1 0.06,-0.03 0.13,-0.07 0.19,-0.11l1.02 -0.76c0.36,-0.23 0.24,-0.12 0.57,-0.32l5.54 -3.94c0.08,-0.05 0.31,-0.16 0.38,-0.21l0.53 -0.35c0.16,-0.11 0.48,-0.38 0.49,-0.39l3.31 -2.32c0.25,-0.16 0.77,-0.59 1.02,-0.76l5.09 -3.51c0.01,-0.01 0.34,-0.28 0.49,-0.39l8.63 -5.9c0.06,-0.03 0.13,-0.07 0.19,-0.11l1.6 -1.07c0.44,-0.26 0.11,-0.01 0.54,-0.35 0.45,-0.36 0.24,-0.24 0.45,-0.44l3.85 -2.67c0.07,-0.05 0.26,-0.21 0.33,-0.26l17.79 -12.45c0.05,-0.04 0.13,-0.08 0.18,-0.12l5.09 -3.51c0.05,-0.04 0.12,-0.09 0.17,-0.13 0.16,-0.12 0.47,-0.38 0.49,-0.39 0.05,-0.04 0.12,-0.08 0.18,-0.12 0.05,-0.04 0.13,-0.08 0.19,-0.11 0.06,-0.03 0.14,-0.07 0.19,-0.1 0.06,-0.03 0.14,-0.07 0.19,-0.1 0.06,-0.03 0.13,-0.07 0.19,-0.11 0.3,-0.19 0.16,-0.12 0.51,-0.38l1.93 -1.33c0.38,-0.36 0.51,-0.56 0.94,-0.84 0.05,-0.04 0.13,-0.07 0.19,-0.11l1.6 -1.07c0.05,-0.04 0.13,-0.08 0.19,-0.11l0.75 -0.44c1.04,-0.72 0.18,-0.48 1.22,-0.85l0 38.24c0,1.26 -0.26,2.91 -0.01,4.16 0.18,0.9 -0.18,0.57 0.6,0.88 0.36,0.89 -0.65,0.44 1.15,0.63 2.54,0.26 9.74,-0.03 12.48,-0.03 0,-5.35 0.39,-58.02 -0.18,-59.7l-3.17 -3.65c-2.87,-1.66 -5.16,-1.68 -7.88,0.24l-2.8 1.94c-0.24,0.15 -0.14,0.06 -0.38,0.21 -0.06,0.03 -0.13,0.07 -0.19,0.11l-2.62 1.83c-0.05,0.04 -0.12,0.08 -0.18,0.12 -0.06,0.03 -0.13,0.08 -0.19,0.11 -0.06,0.03 -0.14,0.07 -0.19,0.1 -0.06,0.03 -0.14,0.07 -0.19,0.1l-1.98 1.58c-0.06,0.03 -0.14,0.07 -0.19,0.1l-1.59 1.08c-0.08,0.05 -0.31,0.16 -0.38,0.21 -0.06,0.03 -0.13,0.07 -0.19,0.11 -0.05,0.03 -0.13,0.08 -0.18,0.12 -0.05,0.04 -0.12,0.09 -0.17,0.13l-3.04 2.3c-0.05,0.04 -0.13,0.07 -0.19,0.11l-7.18 4.98c-0.05,0.04 -0.12,0.09 -0.17,0.13l-0.94 0.55c-0.05,0.03 -0.13,0.08 -0.18,0.12l-7.15 5c-0.06,0.03 -0.14,0.07 -0.19,0.1l-1.61 1.36c-0.05,0.04 -0.13,0.08 -0.18,0.11l-0.94 0.54c-0.11,0.07 -0.72,0.56 -0.84,0.64l-2.89 1.85c-0.6,0.48 -0.51,0.65 -1.25,1.12l-2.36 1.5c-0.06,0.03 -0.13,0.07 -0.19,0.11 -0.05,0.03 -0.13,0.08 -0.18,0.12l-3.4 2.53c-0.06,0.03 -0.14,0.07 -0.19,0.1l-2.34 1.52c-0.05,0.04 -0.12,0.09 -0.17,0.13 -0.33,0.24 -0.49,0.4 -0.67,0.51l-4.91 3.39c-0.19,0.12 -0.34,0.27 -0.67,0.51l-1.45 0.92c-0.33,0.24 -0.49,0.4 -0.67,0.51l-4.34 3.07c-0.08,0.05 -0.31,0.16 -0.38,0.21l-4.52 3.19c-0.01,0.01 -0.65,0.51 -0.66,0.52l-2.53 1.62c-0.44,0.26 -0.11,0.01 -0.54,0.35l-2.69 2.06c-0.05,0.04 -0.12,0.09 -0.17,0.13l-2.72 1.72c-1.19,0.77 -1.22,1.13 -1.79,1.47 -0.06,0.03 -0.14,0.07 -0.19,0.1l-6.49 4.48c-0.01,0.01 -0.65,0.51 -0.66,0.52l-6.68 4.59c-0.06,0.03 -0.13,0.07 -0.19,0.11l-0.35 0.25c-0.06,0.04 -0.27,0.22 -0.33,0.27 -0.05,0.04 -0.12,0.09 -0.17,0.13l-4.52 3.19c-0.08,0.05 -0.31,0.16 -0.38,0.21l-0.37 0.23c-0.01,0.01 -0.65,0.51 -0.66,0.52l-4.52 3.19c-0,0 -0.38,0.21 -0.38,0.21l-5 3.6c-0.84,0.67 0.61,-0.37 -0.35,0.24l-3.22 2.12c-0.05,0.04 -0.12,0.09 -0.17,0.13l-2.73 2.01c-0.06,0.03 -0.14,0.07 -0.19,0.1l-1.4 0.97c-0.05,0.04 -0.13,0.08 -0.19,0.11l-6.5 4.47c-0.05,0.03 -0.13,0.08 -0.18,0.12l-1.22 0.85c-0.06,0.03 -0.14,0.07 -0.19,0.1 -0.06,0.03 -0.14,0.07 -0.19,0.11l-6.28 4.39c-0.71,0.57 -0.12,0.15 -0.59,0.59l-1.6 1.07c-0.01,0.01 -0.65,0.51 -0.66,0.52 -1.71,1.18 -3.48,1.55 -4.11,3.3z"></path> <path class="fil0" d="M450.56 234.76l0 1.19c0.82,0.3 1.45,1.11 2.09,1.77 0.97,0.99 1.48,2.12 2.95,3.57 0.09,0.09 0.54,0.51 0.6,0.58l1.08 1.58c0.01,0.01 0.52,0.66 0.52,0.66 0.19,0.2 0.73,0.67 0.91,0.87l3.48 4.82c0.04,0.05 0.08,0.13 0.11,0.19 0.03,0.06 0.07,0.14 0.1,0.19 0.03,0.06 0.07,0.14 0.1,0.19 0.03,0.06 0.07,0.14 0.11,0.19 0.03,0.05 0.08,0.13 0.11,0.18 0.34,0.48 0.54,0.54 0.87,0.91 0.08,0.09 0.28,0.35 0.38,0.51 0.28,0.43 0.14,0.33 0.42,0.77 0.15,0.24 0.62,0.79 0.77,1.01l2.37 4.15c0.03,0.06 0.06,0.14 0.09,0.2l1.2 1.76c0.74,1.24 1.13,2.47 2.01,3.62l2.14 4.68c0.11,0.23 0.21,0.43 0.3,0.59 0.03,0.06 0.07,0.14 0.1,0.2l4.15 9.48c0.03,0.07 0.06,0.14 0.09,0.21 0.03,0.07 0.05,0.15 0.08,0.22l1.53 4.69c0.02,0.07 0.05,0.15 0.08,0.22l0.97 3.48c0.02,0.08 0.04,0.16 0.06,0.24l0.91 2.64c0.16,0.62 0.11,0.88 0.28,1.5l0.25 0.64c0.22,0.71 0.1,0.07 0.2,0.99 0.1,0.96 -0.06,0.66 0.22,1.56l0.98 4.95c0.13,1.75 0.18,0.75 0.39,1.39 0.31,0.94 0.06,1.67 0.27,2.7 0.2,0.97 0.12,0.32 0.23,0.65 0.09,0.26 0.05,-0.24 0.24,0.65 0.29,1.34 -0.01,3.66 0.36,4.68 0.34,0.95 0.3,2.43 0.3,3.56 -0.01,3.63 0.38,17.48 -0.06,19.51 -0.22,1.01 -0.57,1.7 -0.53,3.32 0.05,2.31 -0.57,2.93 -0.58,5.05 -0,0.22 0,0.65 -0.03,0.86 -0.19,1.38 -0.44,0.86 -0.58,2.39l-6.81 24.01c-0.03,0.06 -0.07,0.14 -0.09,0.2l-3.66 7.9c-0.12,0.23 -0.21,0.42 -0.3,0.59l-1.48 2.96c-0,0 -0.2,0.39 -0.2,0.4l-0.88 1.79c-0.11,0.23 -0.27,0.55 -0.41,0.77l-1.46 2.39c-0.21,0.41 -0.1,0.25 -0.32,0.57l-2.65 4.16c-0.2,0.33 -0.08,0.21 -0.32,0.57 -0.19,0.3 -0.12,0.16 -0.38,0.51l-3.66 5.24c-0.03,0.06 -0.07,0.14 -0.11,0.19 -0.61,0.97 0.43,-0.5 -0.24,0.35 -0.46,0.58 -0.3,0.31 -0.9,0.88l-1.24 1.73c-0.1,0.15 -0.31,0.43 -0.38,0.51 -0.25,0.28 -0.72,0.66 -1.06,1.02l-7.84 8.46c-0.55,0.56 -0.96,1.18 -1.78,1.48l2.22 3.11c1.2,1.19 6.78,6.22 7.26,7.56l1.47 -1.2c2.79,-2.83 6.16,-5.4 8.22,-8.67l9.66 -12.28c0.27,-0.41 0.16,-0.34 0.43,-0.76l3.94 -6.14c0.03,-0.06 0.07,-0.14 0.1,-0.2 0.03,-0.06 0.07,-0.14 0.1,-0.2l1.88 -3.15c0.03,-0.06 0.07,-0.14 0.1,-0.2l2.11 -3.82c0.29,-0.39 0.21,-0.25 0.47,-0.72 0.03,-0.06 0.07,-0.14 0.1,-0.2 0.03,-0.06 0.07,-0.14 0.1,-0.2l4.15 -9.48c0.03,-0.07 0.06,-0.15 0.09,-0.21l6.45 -19.34c0.02,-0.07 0.06,-0.14 0.09,-0.21l0.58 -2.97c0.02,-0.07 0.06,-0.14 0.08,-0.21l0.14 -0.46c0.02,-0.09 0.03,-0.16 0.05,-0.25l0.63 -3.82c0.1,-1.31 0.28,-0.62 0.52,-1.85 0.15,-0.75 -0.01,-1.1 0.2,-1.87l0.34 -0.85c0.34,-1.21 -0.09,-2.7 0.25,-3.9 0.02,-0.07 0.06,-0.14 0.08,-0.21l0.26 -0.63c0.47,-1.65 -0.08,-4.7 0.42,-6.1 0.58,-1.62 0.54,-18.03 0.09,-19.36 -0.03,-0.09 -0.15,-0.32 -0.18,-0.41 -0.21,-0.62 -0.14,-0.09 -0.22,-0.97 -0.13,-1.45 0.28,-3.15 -0.2,-4.55 -0.38,-1.12 -0.32,-2.19 -0.37,-3.49l-0.48 -1.89c-0.21,-0.78 -0.05,-1.13 -0.2,-1.87 -0.25,-1.23 -0.42,-0.54 -0.52,-1.85l-2.51 -12.02c-0.02,-0.08 -0.05,-0.15 -0.07,-0.23 -0.02,-0.07 -0.06,-0.15 -0.08,-0.22l-0.68 -1.98c-0.02,-0.07 -0.05,-0.15 -0.08,-0.22l-2.21 -7.27c-0.03,-0.06 -0.06,-0.14 -0.09,-0.2l-2.71 -7.07c-0.02,-0.07 -0.05,-0.15 -0.08,-0.22l-2.95 -6.53c-0.45,-0.87 0.24,0.48 -0.2,-0.39l-1.68 -3.36c-0.03,-0.06 -0.07,-0.14 -0.1,-0.2l-5.21 -8.72c-0.04,-0.05 -0.09,-0.12 -0.12,-0.18 -0.03,-0.05 -0.08,-0.13 -0.11,-0.18l-6.82 -10.07c-0.47,-0.74 -0.64,-0.64 -1.12,-1.25 -0.35,-0.44 -0.08,-0.08 -0.35,-0.54l-2.57 -3.35c-0.94,-1.6 -2.86,-2.59 -3.84,-4.16l-0.53 -0.96c-0.79,-1.14 -2.17,-1.69 -2.64,-2.99l-0.59 0c-0.48,1.33 -6.73,7.03 -8.14,8.46 -0.41,0.42 -0.63,0.77 -1.34,1.03z"></path> <path class="fil0" d="M420.92 264.41l0 1.19c0.62,0.23 0.28,0.08 0.74,0.45l1.9 1.95c0.04,0.05 0.08,0.13 0.11,0.18l0.53 0.96c0.05,0.07 0.21,0.26 0.26,0.33l4.54 5.84c0.27,0.41 0.16,0.34 0.43,0.76l2.06 2.98c0.04,0.08 0.16,0.31 0.2,0.39 0.03,0.06 0.06,0.14 0.09,0.2l1.78 2.96c0.03,0.06 0.07,0.14 0.1,0.2l0.29 0.6c0.03,0.06 0.07,0.14 0.1,0.2l2.08 4.15c0.03,0.06 0.07,0.14 0.1,0.2l3.51 9.53c0.09,0.27 0.12,0.41 0.21,0.68 0.02,0.07 0.05,0.15 0.07,0.22l2.1 7.98c0.23,0.88 0.03,1.39 0.14,2.23 0.22,1.63 0.58,0.13 0.56,4.78 -0,0.27 -0,0.91 0.03,1.15 0.25,1.69 0.1,0.29 0.37,1.11 0.42,1.24 0.52,10.28 0.19,12.53 -0.25,1.68 -0.51,-0.04 -0.56,4.48l-0.49 2.18c-0.24,0.87 -0.03,1.38 -0.15,2.23 -0.27,2.08 -0.31,-0.35 -0.56,2.11l-0.22 1.56c-0.02,0.07 -0.06,0.14 -0.09,0.21l-2.3 8.08c-0.03,0.09 -0.13,0.34 -0.16,0.44l-0.36 1.12c-0.02,0.07 -0.05,0.15 -0.08,0.22l-1.16 2.99c-0.03,0.06 -0.07,0.14 -0.1,0.2l-1.98 4.55c-0.03,0.06 -0.07,0.14 -0.1,0.2l-1.09 2.17c-0.03,0.06 -0.07,0.14 -0.1,0.2l-0.29 0.6c-0.03,0.06 -0.07,0.14 -0.1,0.2l-1.78 2.96c-0.01,0.02 -0.27,0.55 -0.3,0.59l-3.36 4.94c-0.03,0.06 -0.07,0.14 -0.1,0.19l-7.86 9.33c-0.89,0.89 -1.71,2.12 -2.81,2.52l1.34 1.62c0.5,0.51 0.68,0.69 1.19,1.19l0.82 0.96c0.03,0.06 0.07,0.13 0.1,0.19 1,1.71 5.54,5.36 6.03,6.72l0.59 0c0.69,-1.91 4.08,-3.76 5.23,-5.73l0.42 -0.77c0.88,-1.27 2.35,-2.04 3.14,-3.38 0.2,-0.34 0.07,-0.2 0.31,-0.58 0.21,-0.33 0.44,-0.58 0.67,-0.81l6.44 -9.27c0.03,-0.05 0.09,-0.12 0.12,-0.17l1.66 -2.79c0.17,-0.26 0.14,-0.18 0.39,-0.5 0.05,-0.07 0.21,-0.26 0.27,-0.33l2.4 -4.71c0.03,-0.06 0.07,-0.14 0.1,-0.2 0.03,-0.06 0.07,-0.14 0.1,-0.2l0.69 -1.68c0.02,-0.08 0.04,-0.16 0.06,-0.23l0.32 -0.86c0.04,-0.08 0.17,-0.31 0.21,-0.39l2.51 -6.68c0.02,-0.07 0.05,-0.15 0.08,-0.22l0.9 -2.66c0.33,-1.01 -0.2,0.55 0.14,-0.46l0.39 -1.09c0.12,-0.46 0.06,-0.34 0.13,-0.75 0.07,-0.41 0.02,-0.29 0.14,-0.75l2.26 -10.79c0.26,-1.95 0.49,0.21 0.59,-2.37 0.05,-1.18 -0.18,-2.58 0.18,-3.67 0.86,-2.56 0.56,-16.27 0.33,-17.34 -0.02,-0.08 -0.04,-0.15 -0.07,-0.23 -0.02,-0.07 -0.06,-0.14 -0.08,-0.21 -0.02,-0.07 -0.07,-0.14 -0.09,-0.21 -0.52,-1.46 -0.03,-3.13 -0.5,-4.54 -0.61,-1.82 -0.14,-2.17 -0.68,-3.76l-0.3 -1.48c-0.08,-0.92 0.04,-0.47 -0.21,-1.27l-2.23 -8.44c-0.39,-1.16 -0.46,-2.37 -1.01,-3.44 -0.03,-0.06 -0.08,-0.13 -0.11,-0.19 -0.03,-0.06 -0.08,-0.13 -0.11,-0.19l-0.71 -1.96c-0.02,-0.07 -0.05,-0.15 -0.08,-0.22l-1.28 -3.17c-0.03,-0.07 -0.05,-0.15 -0.08,-0.22l-0.82 -2.15c-0.03,-0.06 -0.07,-0.14 -0.1,-0.2l-1.68 -3.36c-0.75,-1.5 -1.4,-3.07 -2.41,-4.41l-2.62 -4.49c-0.04,-0.08 -0.15,-0.32 -0.19,-0.4 -0.03,-0.06 -0.07,-0.14 -0.1,-0.19 -0.03,-0.06 -0.07,-0.13 -0.11,-0.19l-2.55 -3.38c-0.04,-0.06 -0.08,-0.13 -0.11,-0.19 -0.03,-0.06 -0.07,-0.14 -0.1,-0.19l-4.3 -5.19c-1.32,-1.71 -0.93,-1.56 -2.82,-3.4 -0.57,-0.55 -0.93,-0.78 -1.18,-1.49l-0.59 0c-0.35,0.95 -7.63,8.17 -8.75,9.04 -0.46,0.36 -0.12,0.22 -0.74,0.45z"></path> </g> </g> </svg> 