<?xml version="1.0" encoding="UTF-8"?> <svg xmlns="http://www.w3.org/2000/svg" xmlns:xlink="http://www.w3.org/1999/xlink" xmlns:xodm="http://www.corel.com/coreldraw/odm/2003" xml:space="preserve" width="112.987mm" height="112.987mm" version="1.1" style="shape-rendering:geometricPrecision; text-rendering:geometricPrecision; image-rendering:optimizeQuality; fill-rule:evenodd; clip-rule:evenodd" viewBox="0 0 1290.43 1290.43"> <defs> <style type="text/css"> .fil0 {fill:#2B2A29} </style> </defs> <g id="Слой_x0020_1"> <metadata id="CorelCorpID_0Corel-Layer"></metadata> <g id="_2402579298992"> <path class="fil0" d="M56.16 660.15c-0.16,-0.46 0,-16 0,-17.92 0,-4.09 -0.29,-9.79 0.78,-12.96 0.57,-1.68 0.46,-2.3 0.44,-4.34 -0.04,-4.51 -0.57,-14.59 0.01,-18.51 0.51,-3.49 1.22,-2.1 1.17,-7.79 -0.03,-2.91 -0.41,-6.7 0.41,-9.15 0.05,-0.14 0.13,-0.28 0.18,-0.42 0.91,-2.56 0.44,-5.08 0.55,-7.81 0.15,-3.56 1.32,-3.95 1.25,-7.71 -0.11,-6.04 0.73,-4.77 1.15,-7.81 0.2,-1.42 -0.13,-3.3 0.06,-4.72 0.61,-4.4 0.54,0.76 1.12,-3.66l0.82 -5.75c0.63,-1.91 0.17,-4.33 0.83,-6.34 0.54,-1.66 0.08,1.12 0.65,-1.73l0.72 -5.85c0.22,-0.65 0.16,0.77 0.54,-1.85l2.47 -13.66c0.27,-2.57 0.53,-1.25 1.03,-3.75l1.05 -5.52c0.3,-1.08 0.16,-1.04 0.36,-2.03l4.98 -20.11c0.04,-0.16 0.1,-0.3 0.14,-0.46l1.23 -3.55c0.05,-0.14 0.12,-0.29 0.17,-0.43l0.3 -0.89c0.28,-1.05 0.16,-1.08 0.34,-2.05l6.82 -21.86c0.05,-0.15 0.1,-0.3 0.15,-0.45l1.47 -4.51c0.05,-0.15 0.1,-0.3 0.15,-0.45l2.86 -8.49c0.05,-0.14 0.11,-0.3 0.15,-0.44 0.05,-0.15 0.1,-0.3 0.14,-0.45 0.33,-1.03 0.17,-0.83 0.56,-1.83l2.73 -6.83c0.05,-0.14 0.11,-0.3 0.15,-0.44 0.05,-0.15 0.1,-0.3 0.14,-0.45 0.05,-0.15 0.08,-0.31 0.13,-0.46l4.2 -10.14c0.06,-0.13 0.12,-0.29 0.17,-0.42l3.22 -8.73c0.07,-0.18 0.28,-0.67 0.36,-0.84l4.4 -9.94c0.9,-1.76 -0.49,0.97 0.4,-0.79l1.2 -2.39c0.08,-0.16 0.32,-0.63 0.4,-0.8l5.38 -11.95c0.06,-0.12 0.14,-0.28 0.2,-0.4l1 -1.99c0.06,-0.12 0.14,-0.28 0.2,-0.4l5.97 -11.95c0.17,-0.34 0.36,-0.73 0.6,-1.19l12.16 -21.89c0.06,-0.12 0.13,-0.28 0.19,-0.4l4.96 -8.78c0.22,-0.46 0.54,-1.12 0.82,-1.56l5.77 -9.17c0.07,-0.11 0.15,-0.27 0.22,-0.38l2.63 -3.94c0.07,-0.1 0.18,-0.24 0.26,-0.34l11.69 -17.58c0.07,-0.1 0.18,-0.24 0.26,-0.34l7.02 -9.71c0.07,-0.11 0.15,-0.27 0.21,-0.38l14.74 -19.91c0.07,-0.11 0.14,-0.27 0.21,-0.38 0.07,-0.11 0.16,-0.26 0.23,-0.37l4.34 -5.22c0.77,-1.32 4.29,-4.53 6.19,-7.55l3.18 -3.39c0.72,-0.7 0.6,-0.48 1.2,-1.19 0.11,-0.13 0.43,-0.52 0.53,-0.66l1.29 -2.3c0.17,-0.25 0.89,-1.03 1.12,-1.27l6.89 -6.85c1.11,-1.43 1.67,-2.89 4.18,-5.38 5.4,-5.34 32.44,-33.49 36.2,-36.09l8.01 -6.92c0.54,-0.55 0.6,-0.62 1.18,-1.21l3.49 -2.49c0.11,-0.07 0.26,-0.16 0.37,-0.23l4.53 -4.43c1.69,-1.31 -1.21,0.72 0.71,-0.48 0.11,-0.07 0.27,-0.15 0.38,-0.21l1.17 -0.62c1.92,-1.2 -0.98,0.83 0.71,-0.48 1.71,-1.33 2.77,-3.21 4.53,-4.43l7.9 -5.84c2.36,-1.5 2.45,-2.29 3.61,-2.96 0.12,-0.07 0.28,-0.14 0.39,-0.2 0.12,-0.07 0.28,-0.14 0.39,-0.2 0.91,-0.53 2.55,-2.75 4.8,-4.16l15.72 -11.17c0.14,-0.1 0.52,-0.43 0.67,-0.53l8.71 -6.23c0.87,-0.56 0.66,-0.29 1.54,-0.85l14.84 -9.65c0.11,-0.07 0.25,-0.17 0.36,-0.24l5.95 -3.61c0.46,-0.22 1.12,-0.54 1.56,-0.82 0.28,-0.18 0.74,-0.61 1.34,-1.05 0.79,-0.59 0.49,-0.43 1.45,-0.94l6.37 -3.78c0.12,-0.06 0.28,-0.13 0.4,-0.19l2.01 -0.98c0.12,-0.06 0.28,-0.14 0.4,-0.2 0.12,-0.06 0.28,-0.13 0.4,-0.19l14.35 -7.75c0.94,-0.52 0.66,-0.36 1.44,-0.94l20.44 -10.63c0.16,-0.08 0.63,-0.32 0.8,-0.4 0.12,-0.06 0.28,-0.14 0.4,-0.2l4.76 -2.41c0.12,-0.06 0.27,-0.14 0.4,-0.2l3.59 -1.19c0.14,-0.05 0.29,-0.12 0.43,-0.17l7.16 -3.6c0.12,-0.06 0.27,-0.14 0.4,-0.2l13.09 -5.43c0.14,-0.05 0.3,-0.1 0.44,-0.16l14.75 -6.16c0.13,-0.06 0.29,-0.12 0.42,-0.17 0.14,-0.05 0.3,-0.11 0.44,-0.16l33.36 -11.45c0.15,-0.05 0.72,-0.27 0.88,-0.32l11.93 -3.61c0.15,-0.05 0.3,-0.1 0.46,-0.14l3.49 -0.69c0.15,-0.04 0.29,-0.11 0.44,-0.16l18.78 -5.12c0.16,-0.04 0.31,-0.08 0.48,-0.12l9.54 -2.41c1.51,-0.3 2.22,0.01 3.78,-0.4l31.29 -5.75c4.43,-0.58 -0.76,-0.53 3.67,-1.11 1.8,-0.24 3.07,0.15 4.92,-0.46 2.7,-0.89 4.79,-0.34 7.47,-0.9 2.83,-0.6 0.07,-0.1 1.73,-0.66 1.84,-0.62 4.65,-0.35 6.8,-0.37l3.96 -0.82c2.78,-0.94 5.62,-0.02 8.52,-0.44 4.35,-0.64 -0.71,-0.5 3.64,-1.14 1.1,-0.16 3.53,-0.04 4.75,-0.03 2.75,0.02 6.26,0.36 8.55,-0.41 6.56,-2.21 18.82,0.63 24.66,-1.03l0.85 -0.35c4.29,-1.53 21.29,-0.73 27.53,-0.64 3.77,0.05 4.47,1.3 8.3,1.26 4.51,-0.04 14.59,-0.57 18.51,0.01 4.17,0.61 -0.25,0.32 3.14,1.05 4.75,1.02 9.28,-0.58 15.07,1.06 2.7,0.77 5.84,-0.22 8.59,0.37 2.81,0.6 0.11,0.11 1.73,0.66 2.51,0.84 5.8,0.05 8.52,0.44 4.37,0.64 -0.74,0.53 3.64,1.14 1.42,0.2 3.3,-0.13 4.72,0.06 4.4,0.61 -0.76,0.54 3.66,1.12l5.75 0.82c1.91,0.63 4.33,0.17 6.34,0.83l17.68 3.23c2.6,0.37 1.23,0.33 1.86,0.53l3.56 0.62c2.57,0.27 1.25,0.53 3.75,1.03l5.52 1.05c1.08,0.3 1.04,0.16 2.03,0.36l15.32 3.8c0.15,0.04 0.3,0.1 0.45,0.15l13.16 3.57c0.15,0.04 0.29,0.11 0.44,0.16l22.68 7.19c0.14,0.05 0.29,0.11 0.44,0.16 0.14,0.05 0.3,0.11 0.44,0.16l10.76 3.58c0.15,0.05 0.31,0.1 0.45,0.14l14.61 5.7c0.14,0.05 0.3,0.11 0.44,0.15l5.53 2.24c0.14,0.05 0.3,0.11 0.44,0.15 0.15,0.05 0.31,0.09 0.46,0.14l12.2 5.13c0.12,0.06 0.27,0.14 0.4,0.2l19.54 8.54c0.12,0.06 0.28,0.14 0.4,0.2l27.88 14.54c0.81,0.4 -0.01,-0.01 0.8,0.4l20.32 11.34c0.46,0.22 1.12,0.54 1.56,0.82l3.18 2.19c0.12,0.06 0.28,0.13 0.41,0.19l8.39 5.35c0.06,0.04 0.71,0.38 0.77,0.42l27.1 18.31c0.33,0.32 0.84,0.86 1.24,1.15l16.26 11.82c0.11,0.07 0.26,0.16 0.37,0.23l4.41 3.35c0.11,0.07 0.26,0.16 0.37,0.23 1.64,1.14 2.65,2.89 4.43,3.93 0.12,0.07 0.28,0.14 0.39,0.2 0.12,0.07 0.28,0.14 0.39,0.2 0.11,0.07 0.27,0.14 0.38,0.21l3.1 2.87c0.91,0.94 1.43,1.6 2.51,2.27 0.89,0.56 0.67,0.27 1.56,0.83 2.06,1.29 3.29,3.56 5.24,4.91l3.56 2.41c0.14,0.14 0.99,1.03 1.17,1.22l3.28 3.29c0.54,0.54 0.6,0.62 1.18,1.21l3.49 2.49c1.3,0.81 33.87,32.82 38.67,38.4l3.86 5.1c0.67,0.65 0.56,0.56 1.2,1.19 1.96,1.95 4.14,3.6 5.47,5.88 0.03,0.05 0.38,0.74 0.41,0.79 1.41,2.41 4.95,5.35 5.36,6 0.07,0.11 0.15,0.27 0.21,0.38l1.1 1.89c0.7,0.9 0.41,0.46 0.87,0.92l3.56 3.61c0.07,0.11 0.16,0.26 0.23,0.37l1.06 1.93c0.1,0.15 0.42,0.53 0.53,0.66l4.02 4.94c0.95,1.49 1.3,1.3 2.26,2.51l5.89 7.85c0.07,0.11 0.14,0.28 0.21,0.39l2.97 3.6c0.07,0.11 0.14,0.28 0.21,0.39 0.07,0.11 0.14,0.28 0.21,0.39 0.07,0.11 0.15,0.27 0.22,0.38l1.29 1.7c0.07,0.11 0.17,0.25 0.24,0.36l3.6 4.76c0.56,0.87 0.29,0.66 0.85,1.54 0.38,0.59 0.24,0.33 0.76,1.03 0.1,0.14 0.43,0.52 0.53,0.67l0.46 0.74c0.28,0.46 0.14,0.32 0.42,0.77l1.97 2.81c0.07,0.11 0.14,0.28 0.21,0.39 0.07,0.11 0.14,0.28 0.21,0.39l8.57 12.34c0.06,0.12 0.13,0.28 0.19,0.41 0.06,0.12 0.13,0.28 0.19,0.41l0.6 1.19c0.07,0.11 0.16,0.26 0.23,0.37 0.07,0.11 0.17,0.25 0.24,0.35l1.52 2.06c0.28,0.46 0.14,0.32 0.42,0.77l1.52 2.06c0.07,0.1 0.17,0.25 0.24,0.35 0.07,0.11 0.16,0.26 0.23,0.37l10.55 17.53c0.06,0.12 0.14,0.28 0.2,0.4 0.08,0.16 0.31,0.64 0.4,0.8l1.66 3.12c3.21,4.54 5.04,9.94 8.24,14.46l1.46 2.72c0.06,0.12 0.14,0.28 0.2,0.4 0.4,0.81 -0.01,-0.01 0.4,0.8l1.79 3.59c0.06,0.12 0.14,0.28 0.2,0.4 0.08,0.16 0.32,0.63 0.4,0.8l0.8 1.59c0.08,0.16 0.32,0.63 0.4,0.8 0.06,0.12 0.14,0.28 0.2,0.4 0.08,0.16 0.32,0.63 0.4,0.8 0.23,0.46 0.57,1.14 0.8,1.59l15.56 33.43c0.06,0.13 0.13,0.28 0.19,0.41l2.85 7.3c0.32,1.03 0.15,0.81 0.54,1.85l9.58 25.07c0.05,0.14 0.11,0.3 0.16,0.44 0.05,0.14 0.11,0.29 0.16,0.44l4.78 14.34c0.2,0.59 0.32,1.05 0.57,1.81l9.49 34.12c0.04,0.18 0.05,0.33 0.09,0.51l3.68 16.03c1.15,4.38 1.54,8.9 2.9,13.23l2.85 18.06c0.58,4.43 0.53,-0.76 1.11,3.67l0.98 6.18c0.55,1.96 -0.05,4.19 0.37,6.2 1.01,4.79 0.95,0.73 1.03,8.53 0.01,0.74 0.01,1.51 0.16,2.23 1.6,7.41 0.68,2.06 1.03,10.32 0.13,3.1 1.3,4.32 1.25,8.31 -0.09,8.28 1.19,8.81 1.18,17.34 -0,4.65 -0.96,12.36 0.6,16.73l0.35 0.85c0.75,2.62 0.25,14.09 0.25,17.67 0,4.09 0.29,9.79 -0.78,12.96 -1.64,4.86 0.36,17.38 -0.44,22.86 -0.61,4.17 -0.32,-0.25 -1.05,3.14 -0.25,1.14 -0.14,3.4 -0.12,4.65 0.02,1.57 0.07,3.27 0.05,4.83 -0.01,0.74 -0.01,1.5 -0.16,2.23 -1.59,7.36 -0.68,2.1 -1.03,10.32l-0.82 3.36c-0.84,2.51 -0.05,5.8 -0.44,8.52 -0.64,4.37 -0.53,-0.74 -1.14,3.64 -0.2,1.42 0.13,3.3 -0.06,4.72 -0.61,4.4 -0.54,-0.76 -1.12,3.66l-0.82 5.75c-0.63,1.91 -0.17,4.33 -0.83,6.34 -0.54,1.65 -0.08,-1.12 -0.65,1.73l-1.38 9.97c-0.62,4.33 -0.45,-0.62 -1.07,3.71l-1.68 9.67c-0.5,1.6 -0.07,-1.09 -0.63,1.76l-7.6 31.23c-0.05,0.14 -0.11,0.29 -0.16,0.44l-4.61 16.3c-0.05,0.14 -0.11,0.3 -0.16,0.44 -0.05,0.15 -0.27,0.72 -0.32,0.87l-10.75 31.07c-0.05,0.14 -0.11,0.3 -0.15,0.44l-7.58 19.3c-0.05,0.15 -0.09,0.31 -0.14,0.46 -0.05,0.14 -0.1,0.3 -0.15,0.44l-3.78 7.57c-0.06,0.13 -0.12,0.29 -0.17,0.43l-4.61 10.33c-0.06,0.13 -0.12,0.29 -0.17,0.43l-5.59 12.33c-0.25,0.49 -0.15,0.3 -0.4,0.8l-4.78 9.56c-0.17,0.34 -0.36,0.73 -0.6,1.19 -0.06,0.12 -0.14,0.28 -0.2,0.4l-1.38 2.8c-0.06,0.12 -0.13,0.28 -0.19,0.4l-2.39 3.59c-0.07,0.11 -0.16,0.26 -0.23,0.37l-19.09 33.49c-0.08,0.16 -0.32,0.63 -0.41,0.79l-0.47 0.72c-2.6,3.69 -5.32,7.15 -7.29,11.23l-11.16 16.32c-0.07,0.11 -0.14,0.28 -0.21,0.39l-9.36 12.75c-0.07,0.12 -0.14,0.28 -0.2,0.39l-4.99 6.36c-0.07,0.11 -0.16,0.26 -0.23,0.37l-3.58 4.78c-0.18,0.26 -0.88,1.02 -1.12,1.26l-5.08 6.27c-0.65,0.64 -0.58,0.57 -1.22,1.17 -0.94,0.91 -1.6,1.43 -2.27,2.51l-6.8 8.73c-0.07,0.11 -0.16,0.26 -0.23,0.37l-8.91 9.61c-0.07,0.12 -0.14,0.28 -0.2,0.39l-1.87 2.31c-0.59,0.58 -0.67,0.64 -1.21,1.18 -3.28,3.24 -6.15,6.14 -9.26,9.26l-22.7 22.7c-5.89,5.89 -5.87,4.6 -13.42,12.27l-11.37 8.94c-1.71,1.33 -2.77,3.21 -4.53,4.43l-19.02 14.44c-0.14,0.1 -0.53,0.42 -0.66,0.54 -1.06,0.93 -0.12,0.28 -1.18,1.21l-17.34 11.93c-1.8,1.05 -1.22,1.39 -4,3.17l-32.25 19.72c-0.11,0.07 -0.26,0.16 -0.37,0.23 -0.11,0.07 -0.25,0.17 -0.35,0.25l-3.65 2.33c-0.13,0.06 -0.28,0.13 -0.41,0.19l-7.56 4.39c-0.14,0.07 -0.66,0.33 -0.8,0.4l-14.34 7.77c-0.12,0.06 -0.28,0.14 -0.4,0.2l-17.91 8.97c-0.16,0.08 -0.62,0.33 -0.78,0.41l-1.23 0.56c-0.14,0.05 -0.3,0.11 -0.44,0.15l-4.72 1.85c-1.83,0.94 1.04,-0.53 -0.79,0.4l-4.37 2.2c-0.13,0.05 -0.29,0.12 -0.43,0.17l-7.55 3.2c-0.12,0.06 -0.28,0.14 -0.4,0.2l-1.97 1.02c-0.13,0.06 -0.28,0.13 -0.41,0.19l-26.68 10.36c-0.12,0.06 -0.27,0.15 -0.39,0.2l-15.19 5.12c-0.59,0.2 -1.05,0.32 -1.81,0.57l-0.89 0.3c-0.18,0.06 -0.69,0.26 -0.88,0.32l-8.98 2.97c-0.15,0.05 -0.3,0.1 -0.45,0.15l-21.04 5.85c-0.16,0.04 -0.32,0.08 -0.48,0.12l-14.79 3.73c-4.88,1.49 -8.18,1.65 -10.33,2.22l-1.28 0.51c-0.15,0.05 -0.29,0.12 -0.44,0.16l-23.82 4.26c-1.66,0.54 1.12,0.08 -1.74,0.65 -1.37,0.28 -2.68,-0.01 -4.02,0.16 -4.43,0.58 0.76,0.53 -3.67,1.11 -1.7,0.22 -2.73,-0.19 -4.49,0.29l-1.27 0.53c-0.14,0.05 -0.28,0.12 -0.43,0.16 -1.04,0.29 -0.96,0.25 -2.11,0.28 -1.36,0.04 -2.76,-0.19 -4.09,0.09 -4.79,1.01 -0.73,0.95 -8.53,1.03l-3.96 0.82c-2.48,0.83 -5.7,0.25 -8.59,0.37 -3.1,0.13 -4.32,1.3 -8.31,1.25 -8.28,-0.09 -8.81,1.19 -17.34,1.18 -2.99,-0 -5.97,0 -8.96,-0 -1.51,-0 -3.36,-0.11 -4.82,-0.04l-3.79 0.99c-1.55,0.44 -25.35,0.9 -28.9,0.13 -2.81,-0.61 -0.11,-0.11 -1.73,-0.66 -4.86,-1.64 -17.38,0.36 -22.86,-0.44 -3.49,-0.51 -2.1,-1.23 -7.79,-1.17l-7.06 -0.11c-2.81,-0.61 -0.11,-0.12 -1.73,-0.66 -3.17,-1.07 -8.55,-0.05 -11.95,-1.19 -2.51,-0.84 -5.8,-0.05 -8.52,-0.44 -4.37,-0.64 0.74,-0.53 -3.64,-1.14 -1.42,-0.2 -3.3,0.13 -4.72,-0.06 -4.4,-0.61 0.76,-0.54 -3.66,-1.12 -1.34,-0.18 -2.65,0.11 -4.02,-0.16 -2.86,-0.58 -0.08,-0.11 -1.74,-0.65 -1.91,-0.63 -4.33,-0.17 -6.34,-0.83l-4 -0.78c-0.58,-0.02 -1.17,0.04 -1.75,-0.04 -3.95,-0.52 0.35,-0.52 -3.69,-1.09l-31.17 -6.47c-0.18,-0.06 -0.68,-0.28 -0.86,-0.33l-29.28 -7.76c-2.73,-0.6 0.12,0.08 -1.81,-0.58l-10.3 -3.44c-0.14,-0.05 -0.3,-0.11 -0.44,-0.16 -0.14,-0.05 -0.3,-0.11 -0.44,-0.16 -0.15,-0.05 -0.3,-0.1 -0.45,-0.15l-5.84 -1.93c-0.14,-0.05 -0.3,-0.11 -0.44,-0.16l-25.43 -9.22c-0.14,-0.05 -0.29,-0.12 -0.42,-0.17 -0.13,-0.05 -0.28,-0.13 -0.41,-0.19l-1.16 -0.63c-0.12,-0.06 -0.27,-0.15 -0.39,-0.2l-8.65 -3.29c-0.15,-0.05 -0.31,-0.09 -0.46,-0.14l-11.22 -4.91c-1.76,-0.9 0.97,0.49 -0.79,-0.4l-12.35 -5.57c-0.12,-0.06 -0.27,-0.14 -0.4,-0.2l-0.79 -0.4c-0.26,-0.13 -0.54,-0.27 -0.8,-0.4l-1.59 -0.8c0,0 -0.8,-0.4 -0.8,-0.4l-0.8 -0.4c-0.12,-0.06 -0.28,-0.14 -0.4,-0.2l-14.74 -7.37c-0.81,-0.4 0.01,0 -0.8,-0.4l-2.4 -1.19c-0.11,-0.07 -0.26,-0.16 -0.37,-0.23l-9.18 -5.16c-0.12,-0.06 -0.28,-0.14 -0.4,-0.2l-15.52 -8.97c-0,-0 -0.82,-0.37 -0.82,-0.38l-7.55 -5c-0.15,-0.09 -0.62,-0.33 -0.79,-0.41 -0.12,-0.06 -0.28,-0.13 -0.41,-0.19l-0.82 -0.38c-0.12,-0.06 -0.28,-0.13 -0.41,-0.19l-3.57 -2.4c-0.46,-0.28 -0.32,-0.14 -0.77,-0.42l-2.42 -1.76c-0.44,-0.29 -1.1,-0.6 -1.56,-0.82l-3.07 -1.71c-0.6,-0.44 -1.02,-0.82 -1.35,-1.04 -0.84,-0.54 -0.69,-0.32 -1.53,-0.86 -0.4,-0.26 -0.66,-0.53 -1.36,-1.03 -0.1,-0.07 -0.24,-0.19 -0.34,-0.26l-0.74 -0.46c-0.11,-0.07 -0.28,-0.14 -0.39,-0.21l-5.54 -4.02c-0.11,-0.07 -0.25,-0.16 -0.36,-0.24l-14.03 -9.87c-0.69,-0.41 -0.39,-0.13 -1.16,-0.63l-15.15 -11.74c-2.22,-1.3 -3.84,-3.41 -6.36,-4.99 -0.85,-0.53 -4.49,-4.29 -7.17,-5.97 -0.03,-0.02 -1.32,-1.04 -1.34,-1.05l-2.06 -2.12c-0.7,-0.72 -0.48,-0.6 -1.19,-1.2 -0.13,-0.11 -0.52,-0.43 -0.66,-0.53l-2.3 -1.29c-0.25,-0.17 -1.03,-0.89 -1.27,-1.12l-6.85 -6.89c-1.69,-1.31 1.21,0.72 -0.71,-0.48 -0.11,-0.07 -0.27,-0.15 -0.38,-0.21l-0.79 -0.41c-2.65,-1.55 -9.03,-8.62 -12.75,-12.34 -5.94,-5.95 -20.78,-19.85 -26.3,-26.27l-0.76 -1.03c-0.07,-0.11 -0.15,-0.27 -0.21,-0.39 -0.4,-0.69 -0.13,-0.4 -0.62,-1.17 -2.22,-3.55 -6.54,-5.95 -9.56,-10.75 -2.06,-3.27 -4.05,-3.85 -5.76,-6.78l-14.13 -17.53c-0.07,-0.12 -0.14,-0.28 -0.2,-0.39l-4.99 -6.36c-0.07,-0.11 -0.16,-0.26 -0.23,-0.37l-9.34 -12.76c-0.38,-0.59 -0.24,-0.33 -0.76,-1.03l-8.89 -12.62c-0.07,-0.11 -0.17,-0.25 -0.24,-0.36 -0.07,-0.11 -0.15,-0.26 -0.22,-0.38 -0.07,-0.11 -0.14,-0.27 -0.21,-0.39l-5.54 -8.8c-0.07,-0.11 -0.15,-0.27 -0.22,-0.38l-8.6 -13.51c-0.09,-0.16 -0.31,-0.64 -0.39,-0.81l-4.76 -8.38c-0.06,-0.12 -0.13,-0.28 -0.19,-0.4l-2.81 -4.36c-2.16,-3.63 -3.35,-8.06 -5.89,-11.44l-6.45 -12.07c-0.06,-0.12 -0.14,-0.28 -0.2,-0.4 -0.08,-0.16 -0.32,-0.63 -0.4,-0.8 -0.23,-0.46 -0.57,-1.14 -0.8,-1.59l-5.8 -11.53c-0.06,-0.12 -0.14,-0.27 -0.2,-0.4l-8.95 -20.33c-0.08,-0.16 -0.33,-0.62 -0.41,-0.78 -0.06,-0.12 -0.14,-0.27 -0.2,-0.4 -0.06,-0.13 -0.13,-0.28 -0.19,-0.41l-2.85 -7.3c-0.32,-1.03 -0.15,-0.8 -0.54,-1.85l-5.12 -12.8c-0.05,-0.15 -0.11,-0.3 -0.15,-0.44l-7.59 -21.68c-0.05,-0.15 -0.1,-0.31 -0.15,-0.45l-0.47 -1.32c-0.2,-0.59 -0.32,-1.05 -0.57,-1.82l-8.51 -29.13c-0.04,-0.15 -0.1,-0.3 -0.15,-0.45l-10.32 -48.23c-0.2,-2.63 -0.57,-1.25 -1.07,-3.71 -0.28,-1.37 0.01,-2.68 -0.16,-4.02 -0.58,-4.43 -0.53,0.76 -1.11,-3.67 -0.25,-1.91 0.04,-3.41 -0.64,-5.34 -0.83,-2.35 -0.21,-4.63 -0.72,-7.05 -0.6,-2.83 -0.1,-0.07 -0.66,-1.73 -0.42,-1.25 -0.29,-0.18 -0.44,-1.95 -0.19,-2.23 0.39,-4.84 -0.1,-7.07 -0.61,-2.81 -0.11,-0.11 -0.66,-1.73 -0.94,-2.78 -0.02,-5.62 -0.44,-8.52 -0.48,-3.29 -1.21,-1.37 -1.17,-8.39 0.05,-8.19 -1.2,-8.95 -1.19,-17.33l0.06 -13.8c-0.16,-5.11 -0.57,-1.56 -1.25,-3.53zm555.26 -660.15l37.98 0 27.23 0c2.07,0.16 3.76,0.41 4.85,0.78 5.36,1.81 12.5,-0.63 17.92,1.2 2.51,0.85 5.35,0.42 7.97,0.39 4.68,-0.05 4.42,1.3 8.92,1.24 2.22,-0.03 3.11,-0.24 4.98,0.39 2.94,0.99 6.34,0.24 9.13,1.03l3.8 0.98c5.31,0.17 5.22,1.17 8.97,1.19 5.29,0.02 3.71,0.75 6.63,1.13 0.77,0.1 1.59,0 2.36,0.03l9.8 2.15c0.16,0.04 0.3,0.09 0.47,0.13l11.82 1.92c0.14,0.05 0.28,0.13 0.42,0.18 0.15,0.05 0.29,0.12 0.44,0.16l24.99 5.47c0.19,0.06 0.67,0.27 0.86,0.33l3.92 0.86c0.15,0.04 0.29,0.12 0.43,0.17l4.36 1.01c0.15,0.04 0.29,0.11 0.44,0.16 0.14,0.05 0.29,0.12 0.43,0.17l1.8 0.59c0.15,0.05 0.3,0.1 0.45,0.15 0.14,0.05 0.29,0.11 0.44,0.16 0.18,0.06 0.68,0.27 0.87,0.33 1.51,0.46 2.43,0.39 3.93,0.85l1.79 0.6c0.85,0.19 1.22,0.13 2.07,0.32l56.63 19.24c0.15,0.05 0.3,0.11 0.44,0.15 0.14,0.05 0.29,0.11 0.44,0.16l18.74 7.54c0.16,0.08 0.62,0.33 0.78,0.41l12.33 5.59c0.16,0.08 0.62,0.33 0.78,0.41l11.97 5.35c0.12,0.06 0.28,0.14 0.4,0.2 0.16,0.08 0.63,0.32 0.8,0.4l1.19 0.6c0.12,0.06 0.28,0.14 0.4,0.2 0.16,0.08 0.63,0.32 0.8,0.4l2.39 1.19c0.12,0.06 0.28,0.14 0.4,0.2l4.38 2.19c0.12,0.06 0.28,0.14 0.4,0.2l4.38 2.19c0.12,0.06 0.28,0.14 0.4,0.2 0.16,0.08 0.63,0.32 0.8,0.4l2.39 1.19c0.12,0.06 0.28,0.14 0.4,0.2 0.16,0.08 0.63,0.32 0.8,0.4l11.14 6.19c0.12,0.06 0.28,0.13 0.41,0.19l6.76 3.39c0.29,0.19 0.74,0.6 1.34,1.05 0.79,0.59 0.49,0.42 1.45,0.94 0.16,0.09 0.64,0.31 0.81,0.39l2.74 1.44c0.01,0.01 1.3,1.06 1.32,1.07 0.1,0.07 0.25,0.17 0.35,0.24l3.97 2c0.17,0.08 0.64,0.3 0.81,0.39l2.9 1.88c0.1,0.07 0.24,0.19 0.34,0.26l1.51 0.88c0.11,0.07 0.27,0.15 0.38,0.22l8.03 5.11c0.11,0.07 0.27,0.15 0.38,0.22l6.09 4.07c0.78,0.58 0.5,0.43 1.45,0.94l3.55 1.83c0.02,0.01 1.3,1.04 1.33,1.06 0.11,0.07 0.25,0.17 0.36,0.24l45.39 33.47c0.11,0.07 0.27,0.15 0.38,0.21 0.12,0.07 0.28,0.14 0.39,0.2l5.58 4.58c0.01,0.01 0.78,0.4 0.79,0.41l3.49 3.08c0.24,0.25 1.1,1.15 1.17,1.22l9.7 8.22c4.11,2.58 6.73,7.03 10.75,9.56l1.17 0.62c0.11,0.07 0.27,0.14 0.39,0.21 3.42,2.14 18.49,18.26 22.52,22.29 4.6,4.6 16.17,15.04 18.32,18.72l2.58 3.39c0.41,0.4 0.81,0.79 1.2,1.19l19.32 22.5c1.35,2.31 3.51,3.99 4.99,6.36 1.33,2.12 3.32,3.46 4.57,5.59 0.07,0.11 0.14,0.27 0.21,0.38 0.07,0.11 0.16,0.26 0.23,0.37l2.52 2.86c0.07,0.11 0.15,0.27 0.21,0.39 0.14,0.24 0.26,0.54 0.41,0.79l6.04 7.7c0.07,0.1 0.19,0.24 0.26,0.34l10.44 14.65c0.07,0.11 0.15,0.27 0.22,0.38l10.13 14.36c0.05,0.09 0.58,1.16 0.6,1.19 0.08,0.17 0.3,0.65 0.38,0.82 2.12,4.37 5.87,7.95 7.99,12.32l8.37 14.33c0.07,0.11 0.17,0.25 0.24,0.35l5.92 9.61c0.06,0.12 0.13,0.28 0.19,0.4l1.98 3.99c0.06,0.12 0.13,0.28 0.19,0.4l6.18 11.14c0.06,0.12 0.14,0.28 0.2,0.4 0.08,0.16 0.32,0.63 0.4,0.8l0.8 1.59c0.08,0.16 0.32,0.63 0.4,0.8l0.8 1.59c0.08,0.16 0.32,0.63 0.4,0.8l0.8 1.59c0.08,0.16 0.32,0.63 0.4,0.8l1.79 3.59c0.08,0.16 0.32,0.63 0.4,0.8 0.06,0.12 0.14,0.28 0.2,0.4 0.06,0.12 0.14,0.28 0.2,0.4l1.59 3.19c0.06,0.12 0.14,0.28 0.2,0.4 0.25,0.49 0.15,0.3 0.4,0.8l0.8 1.59c0.25,0.49 0.15,0.3 0.4,0.8l2.39 4.78c0.06,0.12 0.14,0.28 0.2,0.4l11.94 27.49c0.08,0.16 0.32,0.63 0.41,0.79l3.56 8.38c0.05,0.14 0.11,0.3 0.16,0.44l1.87 5.9c0.05,0.14 0.12,0.29 0.17,0.42l2.86 7.3c0.32,1.03 0.17,0.83 0.56,1.83l2.41 5.95c0.05,0.14 0.11,0.3 0.16,0.44l2.7 8.05c0.05,0.15 0.1,0.3 0.15,0.45l2.09 6.27c0.05,0.14 0.11,0.3 0.16,0.44 0.05,0.15 0.1,0.3 0.15,0.45l0.73 2.25c0.05,0.14 0.11,0.29 0.16,0.44 0.05,0.14 0.11,0.3 0.16,0.44l2.26 6.7c0.43,1.42 0.21,1.05 0.49,2.5l2.18 6.78c0.05,0.15 0.09,0.31 0.14,0.46l2.54 10c0.61,2.72 -0.08,-0.12 0.58,1.81l5.4 20.89c0.04,0.16 0.08,0.32 0.12,0.48l0.97 5c0.47,3.33 1.61,5.04 2.19,7.97 0.21,1.08 0.06,1.75 0.2,2.78 0.37,2.6 0.33,1.23 0.53,1.86 0.21,0.62 0.16,-0.75 0.53,1.85l4.25 24.43c0.05,0.14 0.13,0.28 0.18,0.42 0.84,2.51 0.02,5.1 0.83,7.53l2 12.94c-0.03,2.22 -0.24,3.11 0.39,4.98 0.98,2.9 0.27,6.82 1.19,9.56 0.05,0.14 0.13,0.28 0.18,0.42 0.05,0.14 0.13,0.28 0.18,0.41l0.46 2.53c0.11,2.64 -0.42,7.78 0.08,10.08 1.1,5.12 1.09,2.07 1.08,9.08 -0,1.61 -0.03,3.21 -0.03,4.82l0.63 4.15c0.19,0.55 0.09,-0.5 0.48,1.31 0.04,0.2 0.08,0.48 0.12,0.82l0 37.89 0 27.23c-0.17,2.07 -0.41,3.76 -0.78,4.85 -0.61,1.8 -0.42,4.62 -0.42,6.75 0.01,2.7 0.11,7.58 -0.6,9.56l-0.62 2.37c-0.32,3.62 0.46,9.06 -0.57,11.97l-0.62 4.16c0.06,4.47 -1.19,4.97 -1.21,8.94 -0.01,1.76 0.25,3.53 -0.21,5.16 -0.04,0.15 -0.12,0.29 -0.16,0.43l-0.53 1.26c-0.29,1.04 -0.25,0.96 -0.28,2.11 -0.12,3.72 -0.43,3.8 -1.04,6.72l-0.15 5.23c-0.42,3.01 -0.2,0.8 -0.57,1.82 -0.76,2.16 -0.35,3.61 -1.53,8.03l-1.04 5.53c-0.6,1.84 -0.17,3.57 -0.54,5.43 -0.57,2.84 -0.14,0.14 -0.65,1.74 -0.66,2.06 -0.21,3.09 -0.84,5.14l-0.85 3.33c-0.24,1.16 -0.09,0.56 -0.36,1.43l-5.82 25.84c-0.04,0.15 -0.1,0.3 -0.15,0.45l-5.68 20.61c-0.05,0.15 -0.1,0.3 -0.15,0.45l-1.53 4.44c-0.05,0.14 -0.11,0.29 -0.16,0.44l-1.75 6.62c-0.05,0.15 -0.1,0.3 -0.15,0.45l-6.13 18.36c-0.06,0.18 -0.26,0.69 -0.32,0.88 -0.05,0.14 -0.11,0.3 -0.16,0.44 -0.05,0.15 -0.1,0.3 -0.15,0.45l-0.27 0.92c-0.05,0.15 -0.1,0.31 -0.15,0.45l-2.89 7.27c-0.05,0.14 -0.11,0.3 -0.16,0.44l-3.25 8.69c-0.06,0.13 -0.12,0.29 -0.17,0.42 -0.05,0.14 -0.11,0.3 -0.16,0.44l-1.17 3.61c-0.24,0.75 -0.29,1.1 -0.54,1.85l-5.98 14.34c-0.05,0.15 -0.1,0.3 -0.15,0.44l-7.36 15.94c-0.06,0.13 -0.12,0.29 -0.17,0.43l-8.38 17.91c-0.23,0.46 -0.57,1.14 -0.8,1.59 -0.08,0.16 -0.32,0.63 -0.4,0.8 -0.71,1.43 0.57,-1.15 -0.4,0.8 -0.06,0.12 -0.14,0.28 -0.2,0.4l-2.19 4.38c-0.06,0.12 -0.14,0.28 -0.2,0.4 -0.06,0.12 -0.14,0.28 -0.2,0.4l-1 1.99c-0.06,0.12 -0.14,0.28 -0.2,0.4l-0.4 0.8c-0.06,0.12 -0.14,0.28 -0.2,0.4l-3.76 7.59c-0.52,0.94 -0.36,0.66 -0.94,1.44 -1.83,2.43 -2.63,5.16 -4.27,7.67l-1.56 2.02c-0.29,0.44 -0.6,1.1 -0.83,1.56l-5.95 10.77c-0.08,0.17 -0.3,0.64 -0.39,0.81l-6.17 9.96c-0.08,0.16 -0.32,0.63 -0.41,0.79l-18.26 27.14c-0.07,0.11 -0.17,0.25 -0.24,0.36l-3.24 5.13c-1.24,1.93 0.87,-0.99 -0.49,0.71l-8.44 11.27c-0.07,0.11 -0.14,0.27 -0.21,0.39l-2.08 2.7c-3.35,3.22 -5.32,7.85 -8.68,11.04l-1.97 2.21c-0.07,0.11 -0.15,0.27 -0.21,0.38l-5.19 6.76c-0.07,0.11 -0.14,0.27 -0.21,0.39l-5.97 7.17c-0.65,1.03 -1.79,2.04 -2.57,2.81 -4.72,4.63 -4.31,5.61 -10.76,11.94l-2.78 3.19c-0.09,0.16 -0.32,0.63 -0.41,0.79l-0.44 0.75c-2.45,3.52 -8.66,8.75 -11.9,12 -5.36,5.36 -25.18,26.31 -28.88,28.47l-1.89 1.1c-1.31,1.01 -0.45,0.4 -1.51,1.48l-7.76 7.18c-0.12,0.07 -0.28,0.14 -0.39,0.2l-3.79 3.38c-0.39,0.39 -0.79,0.8 -1.19,1.2l-3.39 2.58c-0.11,0.07 -0.27,0.14 -0.38,0.21l-5.24 4.91c-0.11,0.07 -0.26,0.16 -0.37,0.23l-19.92 15.33c-0.88,0.88 -1.55,1.81 -2.78,2.59l-8.36 5.97c-0.11,0.07 -0.27,0.15 -0.39,0.21 -0.69,0.41 -0.38,0.12 -1.17,0.62l-6.82 5.13c-0.11,0.07 -0.27,0.15 -0.38,0.22l-1.15 0.64c-0.11,0.07 -0.25,0.16 -0.36,0.24l-13.28 9.42c-0.1,0.07 -0.25,0.17 -0.35,0.24l-15.93 9.75c-0.16,0.08 -0.63,0.32 -0.79,0.41l-0.72 0.47c-0.02,0.01 -1.29,1.04 -1.33,1.06l-6.3 3.86c-0.3,0.15 -0.75,0.37 -1.2,0.59l-2.77 1.41c-0.11,0.07 -0.25,0.17 -0.35,0.24l-5.62 3.34c-0.28,0.18 -0.74,0.61 -1.34,1.05l-5.05 2.71c-0.12,0.06 -0.28,0.14 -0.4,0.2l-2.41 1.18c-0.12,0.06 -0.28,0.13 -0.41,0.19l-11.92 6.59c-0.12,0.06 -0.28,0.14 -0.4,0.2l-0.8 0.4c-0.16,0.08 -0.63,0.32 -0.8,0.4 -0.12,0.06 -0.28,0.14 -0.4,0.2 -0.12,0.06 -0.28,0.14 -0.4,0.2 -0.12,0.06 -0.28,0.14 -0.4,0.2l-29.48 14.14c-0.12,0.06 -0.28,0.14 -0.4,0.2 -0.12,0.06 -0.28,0.14 -0.4,0.2l-4.84 2.33c-0.15,0.05 -0.31,0.09 -0.46,0.14l-30.52 12.49c-0.13,0.06 -0.28,0.13 -0.41,0.19 -0.13,0.06 -0.29,0.12 -0.42,0.17l-3.61 1.17c-0.14,0.05 -0.3,0.11 -0.44,0.15l-20.31 7.17c-0.15,0.05 -0.3,0.1 -0.45,0.15l-2.69 0.89c-0.14,0.05 -0.3,0.11 -0.44,0.16 -0.15,0.05 -0.3,0.1 -0.45,0.15l-15.54 4.77c-0.15,0.05 -0.31,0.09 -0.46,0.14l-9.27 2.67c-0.15,0.04 -0.3,0.1 -0.45,0.15l-0.86 0.33c-0.15,0.04 -0.3,0.11 -0.45,0.15 -0.16,0.04 -0.31,0.08 -0.48,0.12l-3.88 0.9c-0.46,0.16 -1.11,0.36 -1.8,0.6l-1.31 0.48c-0.14,0.05 -0.29,0.11 -0.44,0.16 -0.15,0.05 -0.3,0.1 -0.46,0.14 -1.04,0.27 -1.09,0.16 -2.04,0.34 -0.18,0.03 -0.33,0.05 -0.51,0.09 -0.16,0.04 -0.32,0.08 -0.48,0.12l-10.01 2.54c-0.19,0.06 -0.67,0.27 -0.86,0.33l-4.34 1.04c-0.48,0.16 0.54,0.19 -1.86,0.53l-6.53 1.24c-0.89,0.09 -1.26,-0.03 -2.23,0.16 -2.84,0.56 -0.07,0.09 -1.77,0.62l-2.99 0.6c-0.16,0.04 -0.32,0.08 -0.48,0.12l-0.87 0.32c-0.48,0.16 0.54,0.19 -1.87,0.53 -0.79,0.11 -1.47,0.01 -2.26,0.13 -4.23,0.6 0.65,0.76 -4.24,1.13l-8.34 1.22c-1.91,0.2 -0.52,-0.07 -1.99,0.4 -1.6,0.51 1.1,0.08 -1.74,0.65 -1.79,0.36 -3.16,-0.13 -5,0.38l-3.81 0.97c-2.34,0.07 -2.88,-0.32 -4.99,0.38l-3.98 0.8c-0.88,0 -2.13,-0.11 -2.98,0.01 -3.03,0.42 -0.78,0.19 -1.82,0.57l-4.16 0.62c-3.37,-0.05 -4.06,0.49 -6.71,1.05 -2.76,0.59 -5.57,-0.24 -8.24,0.72l-2.94 0.64c-2.64,0.11 -7.78,-0.42 -10.08,0.08l-2.16 0.83c-4.71,1.34 -11.7,-0.64 -15.88,0.85 -0.55,0.19 0.5,0.09 -1.31,0.48 -0.4,0.09 -0.48,0.11 -0.49,0.12l0.01 0c0.02,-0 0.05,-0.02 -0.29,0l-58.25 0c-15.23,0 -8.22,-1.23 -18.52,-1.2 -11.52,0.04 -8.11,-0.88 -11.93,-1.22 -3.34,-0.29 -6.83,0.48 -10.15,-0.01 -3.97,-0.58 0.32,-0.57 -3.64,-1.14 -0.51,-0.07 -1.78,-0.06 -2.34,-0.05 -4.47,0.06 -4.97,-1.19 -8.94,-1.21 -2.19,-0.01 -4.01,0.15 -6.01,-0.56 -0.14,-0.05 -0.28,-0.13 -0.42,-0.18 -0.14,-0.05 -0.28,-0.12 -0.43,-0.16 -2.4,-0.68 -4.79,0.11 -7.1,-0.67l-3.98 -0.8c-5.29,-0.02 -3.71,-0.75 -6.63,-1.13 -0.77,-0.1 -1.59,-0 -2.36,-0.03l-16.54 -3.17c-2.01,-0.64 -2.73,-0.17 -4.69,-0.68 -0.15,-0.04 -0.29,-0.11 -0.44,-0.16l-72.11 -19.29c-0.14,-0.05 -0.29,-0.11 -0.44,-0.16l-7.61 -2.55c-0.15,-0.05 -0.3,-0.1 -0.45,-0.15 -0.77,-0.25 -1.22,-0.37 -1.81,-0.57l-4.02 -1.35c-0.14,-0.05 -0.3,-0.11 -0.44,-0.16l-5.95 -2.41c-0.14,-0.05 -0.3,-0.11 -0.44,-0.16 -0.15,-0.05 -0.31,-0.09 -0.46,-0.14l-2.71 -0.88c-0.15,-0.05 -0.3,-0.11 -0.44,-0.15l-3.12 -1.06c-0.12,-0.06 -0.27,-0.14 -0.39,-0.2l-1.57 -0.82c-0.13,-0.06 -0.29,-0.12 -0.42,-0.17l-6.34 -2.02c-0.14,-0.05 -0.29,-0.12 -0.42,-0.17l-2.37 -1.21c-0.13,-0.06 -0.29,-0.12 -0.42,-0.17l-1.85 -0.54c-0.15,-0.05 -0.31,-0.09 -0.46,-0.14l-1.28 -0.51c-0.11,-0.05 -1.37,-0.71 -1.57,-0.82 -0.16,-0.08 -0.63,-0.32 -0.79,-0.41l-5.59 -2.18c-0.13,-0.05 -0.28,-0.13 -0.41,-0.19 -0.13,-0.06 -0.27,-0.14 -0.4,-0.2l-9.94 -4.4c-0.12,-0.06 -0.28,-0.14 -0.4,-0.2l-1.59 -0.8c-0.12,-0.06 -0.28,-0.14 -0.4,-0.2l-7.97 -3.38c-1.76,-0.9 0.97,0.49 -0.79,-0.4l-16.73 -8.36c-0.46,-0.23 -1.14,-0.57 -1.59,-0.8l-5.97 -2.99c-0.16,-0.08 -0.63,-0.32 -0.8,-0.4l-8.24 -4.31c-0.6,-0.45 -1.05,-0.87 -1.34,-1.05 -0.66,-0.43 -0.34,-0.22 -1.16,-0.64l-15.22 -8.68c-0.1,-0.07 -0.25,-0.18 -0.35,-0.24l-1.96 -1.02c-0.12,-0.06 -0.28,-0.13 -0.4,-0.2l-9.95 -6.18c-0.15,-0.09 -0.62,-0.33 -0.79,-0.41l-0.82 -0.38c-0.13,-0.06 -0.29,-0.13 -0.41,-0.19l-16.39 -10.49c-0.11,-0.07 -0.25,-0.17 -0.36,-0.24l-10.25 -7.08c-0.03,-0.02 -1.31,-1.03 -1.34,-1.05l-17.85 -12.62c-0.12,-0.07 -0.28,-0.14 -0.39,-0.2l-2.31 -1.87c-0.94,-0.98 -1.35,-1.57 -2.49,-2.29 -0.9,-0.57 -0.66,-0.26 -1.56,-0.83l-4.39 -3.37c-2.04,-1.19 -4.35,-3.88 -4.8,-4.16l-1.56 -0.83c-1.24,-0.78 -1.69,-1.78 -6.34,-5.01 -0.25,-0.17 -1.03,-0.89 -1.27,-1.12l-8.34 -7.19c-2.84,-2.9 -5.53,-4.28 -8.07,-6.87l-8.61 -7.52c-0.15,-0.1 -0.53,-0.42 -0.66,-0.53 -0.72,-0.62 -0.47,-0.47 -1.19,-1.2 -6.48,-6.64 -36.15,-35.06 -38.41,-38.66l-0.62 -1.17c-1.32,-2.26 -8.07,-8.1 -9.36,-10.36 -0.07,-0.12 -0.14,-0.28 -0.2,-0.39 -0.07,-0.11 -0.14,-0.28 -0.21,-0.39l-10.04 -11.47c-0.75,-0.72 -1.05,-0.94 -1.51,-1.48 -0.11,-0.13 -0.43,-0.52 -0.53,-0.66l-5.84 -7.9c-0.01,-0.02 -1.04,-1.32 -1.05,-1.34l-2.89 -3.08c-0.07,-0.11 -0.15,-0.27 -0.21,-0.39 -0.14,-0.24 -0.26,-0.54 -0.41,-0.79l-2.73 -3.24c-0.07,-0.1 -0.16,-0.26 -0.23,-0.37l-1.06 -1.93c-0.18,-0.26 -0.88,-1.02 -1.12,-1.26l-4.5 -5.66c-0.52,-0.55 -0.92,-0.79 -1.45,-1.54l-8.34 -11.97c-0.07,-0.11 -0.17,-0.25 -0.24,-0.36 -0.07,-0.11 -0.15,-0.27 -0.22,-0.38l-6.62 -9.51c-0.16,-0.25 -1.15,-1.49 -1.29,-1.7l-2.85 -4.32c-0.41,-0.67 -0.16,-0.41 -0.64,-1.15 -0.07,-0.11 -0.16,-0.25 -0.24,-0.36 -0.07,-0.1 -0.18,-0.24 -0.26,-0.34 -0.5,-0.69 -0.82,-1 -1.05,-1.34 -0.29,-0.44 -0.6,-1.1 -0.83,-1.56 -1.77,-3.66 -4.42,-6.32 -6.16,-9.97l-15.53 -26.29c-0.06,-0.12 -0.14,-0.28 -0.2,-0.4 -0.06,-0.12 -0.14,-0.28 -0.2,-0.4 -0.41,-0.82 0.01,0.03 -0.4,-0.8 -2.38,-4.86 -1.39,-1.49 -3.8,-6.35l-6.36 -12.76c-0.06,-0.12 -0.14,-0.28 -0.2,-0.4l-1.39 -2.79c-1.48,-2.97 0.65,1.29 -0.4,-0.8l-1.59 -3.19c-0.23,-0.46 -0.57,-1.14 -0.8,-1.59l-1.59 -3.19c-0.06,-0.12 -0.14,-0.28 -0.2,-0.4l-7.17 -15.53c-0.25,-0.49 -0.15,-0.31 -0.4,-0.8l-0.4 -0.79c-0.06,-0.12 -0.14,-0.28 -0.2,-0.4l-7.17 -16.73c-0.06,-0.12 -0.14,-0.27 -0.2,-0.39 -0.06,-0.12 -0.15,-0.27 -0.21,-0.39l-0.76 -1.63c-0.38,-1.02 -0.22,-0.84 -0.54,-1.85l-2.7 -6.85c-0.06,-0.18 -0.26,-0.69 -0.32,-0.88l-7.33 -19.56c-0.23,-0.68 -0.34,-1.14 -0.56,-1.83 -0.05,-0.15 -0.11,-0.3 -0.16,-0.44l-7.02 -21.06c-0.05,-0.14 -0.11,-0.29 -0.16,-0.44l-0.81 -3.37c-0.03,-0.18 -0.05,-0.34 -0.09,-0.51l-1.79 -5.37c-0.05,-0.14 -0.11,-0.3 -0.16,-0.44l-0.57 -1.82c-0.05,-0.14 -0.11,-0.29 -0.16,-0.44 -0.05,-0.14 -0.12,-0.29 -0.17,-0.43l-2.51 -10.03c-0.16,-0.46 -0.36,-1.11 -0.6,-1.8l-1.22 -4.76c-0.04,-0.16 -0.08,-0.32 -0.12,-0.48l-0.75 -2.24c-0.04,-0.17 -0.06,-0.33 -0.09,-0.51 -0.29,-1.46 -0.08,-1.08 -0.5,-2.48 -0.06,-0.19 -0.27,-0.67 -0.33,-0.86l-0.59 -2.99c-0.04,-0.16 -0.08,-0.32 -0.12,-0.48 -0.04,-0.15 -0.1,-0.3 -0.15,-0.45l-5.61 -26.06c-0.6,-4.23 -0.76,0.65 -1.13,-4.24l-1.22 -8.34c-0.27,-2.57 -0.55,-1.24 -1.05,-3.73 -0.38,-1.91 0.1,-3.49 -0.54,-5.43 -0.92,-2.78 -0.3,-5.71 -1.19,-8.36l-1.38 -8.78c-0.35,-0.98 -0.14,1.14 -0.57,-1.82 -0.07,-0.51 -0.06,-1.77 -0.05,-2.34 0.06,-4.47 -1.19,-4.96 -1.21,-8.94 -0.01,-1.97 0.23,-3.78 -0.38,-5.6l-0.82 -3.36c-0.14,-3.17 0.54,-7.07 -0.37,-9.78 -0.56,-1.65 -0.25,1.17 -0.75,-2.24 -0.69,-4.69 0.63,-9.59 -0.06,-14.28 -0.53,-3.61 -0.39,-0.07 -1.05,-3.13 -0.09,-0.4 -0.11,-0.48 -0.12,-0.49l0 0.01c0,0.02 0.02,0.05 0,-0.29l0 -58.25 0 -9.18c0.03,-0.34 0.07,-0.63 0.12,-0.86 0.61,-2.81 0.11,-0.11 0.66,-1.73 1.81,-5.36 -0.63,-12.5 1.2,-17.92 0.85,-2.51 0.42,-5.35 0.39,-7.97l0.62 -4.76c0.61,-1.71 0.29,-7 1.01,-9.14 0.98,-2.9 0.27,-6.82 1.19,-9.56 0.05,-0.14 0.13,-0.28 0.18,-0.41 0.05,-0.14 0.13,-0.28 0.18,-0.42l0.45 -2.54c0.17,-5.31 1.17,-5.22 1.19,-8.97 0.02,-4.72 0.98,-4.46 1.16,-8.99l1.47 -8.09c0.04,-0.15 0.11,-0.29 0.16,-0.44l0.36 -0.84c0.05,-0.14 0.12,-0.28 0.16,-0.44l7.42 -36.19c0.27,-1.45 0.04,-0.67 0.43,-1.96 0.05,-0.16 0.28,-0.7 0.33,-0.86l8.52 -30.31c0.28,-1.05 0.16,-1.08 0.34,-2.05l4.99 -15.32c0.05,-0.15 0.11,-0.3 0.16,-0.44 0.05,-0.14 0.11,-0.3 0.16,-0.44l5.09 -15.22c0.05,-0.15 0.1,-0.3 0.14,-0.45 0.06,-0.19 0.2,-0.75 0.26,-0.93 0.05,-0.15 0.09,-0.31 0.14,-0.46 0.05,-0.14 0.1,-0.3 0.16,-0.44l2.39 -5.97c0.05,-0.14 0.12,-0.29 0.17,-0.42l2.24 -5.53c0.05,-0.14 0.11,-0.3 0.16,-0.44 0.05,-0.14 0.11,-0.29 0.16,-0.44l11.18 -27.06c0.06,-0.12 0.14,-0.27 0.21,-0.39l5.39 -11.94c0.24,-0.47 0.56,-1.12 0.8,-1.59l14.72 -29.49c0.08,-0.16 0.3,-0.65 0.39,-0.8l4.01 -6.75c0.06,-0.12 0.14,-0.28 0.2,-0.4 0.06,-0.12 0.14,-0.28 0.2,-0.4 0.06,-0.12 0.14,-0.28 0.2,-0.4l8.17 -13.93c0.06,-0.12 0.14,-0.28 0.2,-0.4 0.22,-0.45 0.44,-0.9 0.59,-1.2 0.08,-0.17 0.3,-0.64 0.39,-0.81 0.23,-0.46 0.54,-1.12 0.83,-1.56l19.61 -30.58c0.97,-1.22 1.31,-1.03 2.27,-2.51l11.37 -16.71c0.07,-0.11 0.14,-0.27 0.21,-0.38 0.07,-0.11 0.16,-0.26 0.23,-0.37 0.1,-0.14 0.42,-0.53 0.54,-0.65l4.5 -5.66c0.12,-0.13 1.03,-1.26 1.07,-1.32l9.98 -12.73c0.89,-1.57 2.43,-2.38 4.13,-4.83 0.07,-0.11 0.16,-0.26 0.23,-0.37l0.62 -1.17c1.03,-1.77 2.89,-3.15 4.3,-4.66 0.02,-0.02 1.04,-1.31 1.05,-1.34 0.56,-0.89 0.27,-0.67 0.83,-1.56 1.3,-2.07 3.32,-3.48 4.99,-5.17 0.46,-0.47 0.93,-0.97 1.35,-1.64 0.56,-0.89 0.27,-0.67 0.83,-1.56 2.45,-3.91 7.19,-6.67 9.35,-10.37l0.97 -1.42c5.13,-5.96 15.49,-15.45 21.53,-21.49 3.38,-3.39 6.77,-6.77 10.16,-10.16l6.25 -6.29c1.32,-1.34 -0.32,0.02 1.22,-1.17 1.57,-1.22 2.81,-1.6 5.67,-4.48 6.63,-6.67 4.39,-4.02 8.06,-6.87 2.42,-1.88 4.2,-4.75 6.87,-6.27l2.71 -2.07c0.64,-0.65 0.56,-0.58 1.17,-1.22l2.89 -2.48c2.2,-1.28 3.39,-3.19 5.59,-4.57l7.9 -5.84c0.15,-0.1 0.53,-0.42 0.66,-0.53l33.25 -24.69c0.87,-0.56 0.66,-0.29 1.54,-0.85 0.25,-0.16 1.49,-1.15 1.7,-1.29l23.44 -14.8c0.11,-0.07 0.27,-0.14 0.39,-0.21 0.11,-0.07 0.28,-0.14 0.39,-0.21l6.39 -3.77c0.12,-0.06 0.28,-0.13 0.4,-0.19 0.12,-0.06 0.28,-0.13 0.41,-0.19l3.96 -2.62c0.08,-0.05 1.16,-0.58 1.19,-0.6 1.69,-0.82 -0.87,0.44 0.82,-0.38 0.46,-0.22 1.12,-0.54 1.56,-0.82l4.79 -2.97c0.82,-0.4 -0.02,0.01 0.8,-0.4 0.12,-0.06 0.28,-0.14 0.4,-0.2l1.99 -0.99c4.71,-2.31 2.49,-1.86 8.36,-4.78l3.98 -1.99c0.16,-0.08 0.63,-0.32 0.8,-0.4l1.2 -0.6c0.12,-0.06 0.28,-0.14 0.4,-0.2 0.16,-0.08 0.63,-0.32 0.8,-0.4l1.19 -0.6c0.12,-0.06 0.28,-0.14 0.4,-0.2 0.16,-0.08 0.63,-0.32 0.8,-0.4l1.19 -0.6c0.12,-0.06 0.28,-0.14 0.4,-0.2 0.16,-0.08 0.63,-0.32 0.8,-0.4l8.36 -4.18c0.12,-0.06 0.28,-0.14 0.4,-0.2 0.16,-0.08 0.63,-0.32 0.8,-0.4l1.19 -0.6c0.12,-0.06 0.28,-0.14 0.4,-0.2l2.39 -1.2c0,0 0.8,-0.4 0.8,-0.4l9.98 -4.36c0.16,-0.08 0.62,-0.33 0.78,-0.41l6.89 -3.27c1.02,-0.32 0.83,-0.16 1.85,-0.54l2.41 -1.17c0.12,-0.06 0.27,-0.14 0.39,-0.2l2.81 -1.38c0.14,-0.05 0.3,-0.11 0.44,-0.15l17.94 -7.15c0.15,-0.05 0.31,-0.1 0.45,-0.14l14.63 -5.68c0.14,-0.05 0.3,-0.11 0.44,-0.16 0.68,-0.23 1.14,-0.34 1.83,-0.57l15.22 -5.09c0.14,-0.05 0.3,-0.11 0.44,-0.16 0.14,-0.05 0.3,-0.11 0.44,-0.16 0.15,-0.05 0.3,-0.1 0.45,-0.15l12.34 -3.79c0.18,-0.03 0.34,-0.05 0.51,-0.09l8.5 -2.85c0.15,-0.05 0.29,-0.12 0.44,-0.16l5.24 -1.33c0.16,-0.04 0.31,-0.08 0.48,-0.12l17.92 -4.78c0.85,-0.2 1.21,-0.13 2.06,-0.32l4.27 -1.1c2.11,-0.43 0.91,-0.67 3.72,-1.06l23.24 -4.84c2.23,-0.17 2.25,0.27 4.37,-0.41 1.66,-0.54 -1.11,-0.06 1.75,-0.64l4.22 -0.56c1.6,-0.51 -1.1,-0.08 1.74,-0.65 2.15,-0.43 4.1,-0.18 6.27,-0.9l2.54 -0.45c2.34,-0.07 2.88,0.32 4.99,-0.38 1.64,-0.55 -1.1,-0.06 1.73,-0.66l7.05 -0.72c1.71,-0.61 7,-0.29 9.14,-1.01 1.63,-0.55 -1.08,-0.06 1.73,-0.66 2.41,-0.52 5.06,0.29 7.4,-0.37 7.35,-2.09 9.53,0 13.58,-1.36 4.71,-1.59 12.1,0.21 17.49,-1.03l0.85 -0.35c0.58,-0.37 1.29,-0.53 2.05,-0.6z"></path> <path class="fil0" d="M896.13 651.79c-0.19,0.55 0.1,1.23 -0.38,2.61 -0.05,0.14 -0.12,0.29 -0.18,0.42 -0.05,0.13 -0.14,0.27 -0.2,0.4l-0.83 1.56c-0.06,0.12 -0.14,0.27 -0.2,0.39l-3.56 6 -8.6 6.93c-0.66,0.4 -0.41,0.17 -1.15,0.64 -0.52,0.33 -1.54,1.19 -2.06,1.53l-4.73 3.03c-0.11,0.07 -0.27,0.15 -0.38,0.22l-2.06 1.53c-0.11,0.07 -0.27,0.15 -0.38,0.22 -0.66,0.41 -0.42,0.17 -1.15,0.64l-3.21 2.17c-0.11,0.07 -0.27,0.15 -0.38,0.22l-25.79 17.22c-0.33,0.24 -0.96,0.77 -1,0.8 -0.1,0.07 -0.25,0.17 -0.36,0.24l-1.15 0.64c-0.11,0.07 -0.27,0.15 -0.38,0.22l-5.64 3.92c-0.11,0.07 -0.26,0.15 -0.38,0.22l-0.77 0.42c-0.11,0.07 -0.27,0.15 -0.38,0.22l-9.23 6.31c-0.11,0.07 -0.26,0.15 -0.38,0.22l-0.77 0.42c-0.11,0.07 -0.27,0.15 -0.38,0.22l-6.79 4.56c-0.11,0.07 -0.27,0.15 -0.38,0.22l-10.38 6.95c-0.11,0.07 -0.27,0.15 -0.38,0.22l-5.64 3.92c-0.11,0.07 -0.27,0.15 -0.38,0.22l-1.51 0.88c-0.04,0.03 -0.67,0.56 -1,0.8l-7.87 5.27c-0.11,0.07 -0.26,0.15 -0.38,0.22l-3.21 2.17c-0.73,0.47 -0.49,0.24 -1.15,0.64l-2.43 1.75c-0.11,0.07 -0.26,0.15 -0.38,0.22l-12.93 8.57c-0.69,0.51 -0.44,0.38 -1.03,0.76 -0.73,0.47 -0.49,0.24 -1.15,0.64 -0.11,0.07 -0.27,0.15 -0.38,0.22l-0.7 0.49c-0.33,0.24 -0.96,0.77 -1,0.79l-1.51 0.88c-0.11,0.07 -0.27,0.15 -0.38,0.22 -0.11,0.07 -0.25,0.16 -0.36,0.24 -0.22,0.15 -1.44,1.12 -1.7,1.29l-3.58 2.39c-0.11,0.07 -0.27,0.15 -0.38,0.22l-34.11 22.64c-0.33,0.24 -0.96,0.77 -1,0.8l-7.53 5.02c-0.11,0.07 -0.26,0.15 -0.38,0.22l-4.73 3.03c-0.59,0.38 -0.33,0.25 -1.03,0.76l-21.18 14.07c-0.14,0.1 -0.51,0.44 -0.66,0.54l-7.87 5.27c-0.11,0.07 -0.26,0.15 -0.38,0.22l-0.77 0.42c-0.11,0.07 -0.27,0.15 -0.38,0.22l-13.96 9.34c-0.11,0.07 -0.27,0.15 -0.38,0.22l-10.38 6.95c-0.11,0.07 -0.27,0.15 -0.38,0.22l-10.38 6.95c-0.11,0.07 -0.27,0.15 -0.38,0.22l-9.23 6.31c-0.11,0.07 -0.26,0.15 -0.38,0.22l-3.21 2.17c-0.11,0.07 -0.27,0.15 -0.38,0.22l-7.94 5.2c-0.11,0.07 -0.27,0.15 -0.38,0.22l-27.15 18.25c-0.11,0.07 -0.26,0.15 -0.38,0.22l-10.75 7.17c-0.66,0.41 -0.42,0.17 -1.15,0.64l-3.21 2.17c-0.11,0.07 -0.27,0.15 -0.38,0.22l-6.02 4.14c-0.66,0.41 -0.41,0.17 -1.15,0.64l-3.21 2.17c-0.11,0.07 -0.27,0.15 -0.38,0.22l-9.6 6.53c-0.11,0.07 -0.27,0.14 -0.39,0.21l-8.67 5.07c-0.15,0.05 -0.3,0.1 -0.45,0.15 -2.2,0.72 -3.24,1.71 -6.39,1.97 -5.92,0.49 -10.31,-0.32 -15.16,-2.81 -1.47,-0.75 0.68,0.34 -0.79,-0.4 -0.38,-0.19 -0.68,-0.34 -1.2,-0.6l-3.48 -1.89c-0.84,-0.67 -0.48,-0.44 -0.92,-0.87 -0,-0 -0.67,-0.71 -0.87,-0.92 -1.63,-1.67 -3.07,-2.8 -4.11,-4.86 -0.06,-0.12 -0.13,-0.28 -0.19,-0.41l-0.78 -1.61c-0.06,-0.12 -0.14,-0.28 -0.2,-0.4 -0.06,-0.12 -0.14,-0.28 -0.2,-0.4l-2.29 -5.48c-1.59,-4.6 -0.9,-10.08 -0.9,-15.23l0 -433.73c0,-12.27 -0.5,-11.91 3.98,-21.11l0.98 -2.01c1.91,-3.31 5.77,-6.18 8.98,-7.75l7.54 -3.22c0.4,-0.14 -0.22,-0.13 1.34,-0.45 0.61,-0.12 1.01,-0.13 1.64,-0.16 6.02,-0.25 7.82,0.28 13.03,1.99l4.77 2.4c0.11,0.07 0.26,0.16 0.37,0.22 0.65,0.4 0.41,0.17 1.15,0.64 0.52,0.34 1.54,1.19 2.06,1.53l10.39 6.93c0.11,0.07 0.25,0.17 0.36,0.24l9.06 5.88c0.1,0.07 0.24,0.18 0.34,0.26l17.22 11.46c0.11,0.07 0.26,0.17 0.36,0.24l10.02 6.71c0.11,0.07 0.27,0.15 0.38,0.22l28.68 19.12c0.59,0.38 0.33,0.25 1.03,0.76 0.69,0.52 0.44,0.38 1.03,0.76l3.22 2.15c0.11,0.07 0.25,0.17 0.36,0.24l10.75 7.17c0.11,0.07 0.27,0.15 0.38,0.22l6.79 4.56c0.11,0.07 0.27,0.15 0.38,0.22l13.6 9.1c0.11,0.07 0.25,0.17 0.36,0.24l1.89 1.1c0.04,0.03 0.67,0.56 1,0.8l16.93 11.15c0.04,0.03 0.67,0.56 1,0.8l14.68 9.82c0.11,0.07 0.25,0.17 0.36,0.24l16.57 10.92c0.33,0.24 0.96,0.77 1,0.79 0.11,0.07 0.25,0.17 0.36,0.24l9.06 5.88c0.04,0.03 0.67,0.56 1,0.8l24.44 16.19c0.33,0.24 0.96,0.77 1,0.8 0.11,0.07 0.25,0.17 0.36,0.24l3.59 2.39c0.11,0.07 0.26,0.15 0.38,0.22l13.6 9.1c0.11,0.07 0.25,0.17 0.36,0.24l6.81 4.54c0.11,0.07 0.25,0.17 0.36,0.24l3.58 2.39c0.11,0.07 0.27,0.15 0.38,0.22 0.46,0.28 0.32,0.14 0.77,0.42l2.08 1.51c0.11,0.07 0.25,0.17 0.36,0.24l6.81 4.54c0.11,0.07 0.25,0.17 0.36,0.24l14.34 9.56c0.11,0.07 0.27,0.15 0.38,0.22l14.34 9.56c0.11,0.07 0.27,0.14 0.39,0.21l3.97 2.6c0.11,0.07 0.27,0.15 0.38,0.22l2.06 1.53c0.11,0.07 0.27,0.15 0.38,0.22 0.11,0.07 0.27,0.14 0.39,0.21l2.82 1.96c0.11,0.07 0.26,0.15 0.38,0.22l6.43 4.32c0.11,0.07 0.25,0.17 0.36,0.24 0.11,0.07 0.26,0.15 0.38,0.22 0.11,0.07 0.27,0.14 0.39,0.21l2.82 1.96c0.74,0.47 0.49,0.24 1.15,0.64l20 13.46c0.11,0.07 0.25,0.17 0.36,0.24l18.3 12.17c0.11,0.07 0.27,0.14 0.39,0.21 0.11,0.07 0.28,0.14 0.39,0.21 0.11,0.07 0.27,0.14 0.38,0.21l9.71 13.59c1.07,3.09 1.45,5.78 1.47,9.31 0.05,7.11 -0.71,4.53 -1.21,5.96zm-368.01 -315.44c-0.73,0.46 0.01,0.24 -1.31,0.48l-6.42 0.15c-2.88,0.41 -0.42,0.48 -3.16,1.03 -1.89,0.38 -2.28,-0.06 -4.24,0.54 -0.15,0.04 -0.29,0.12 -0.43,0.17l-0.86 0.33c-0.69,0.24 -1.12,0.34 -1.81,0.58l-13.61 4.91c-0.14,0.05 -0.3,0.11 -0.43,0.17l-2.64 1.54c-0.54,0.41 -1.1,0.9 -1.34,1.05l-3.58 1.8c-0.11,0.07 -0.26,0.16 -0.37,0.23l-3.2 2.18c-0.11,0.07 -0.27,0.14 -0.38,0.21 -0.11,0.07 -0.26,0.16 -0.37,0.23l-4.41 3.35c-2.15,1.35 -3.7,3.46 -5.5,5.26 -2.3,2.3 -4.75,3.98 -6.45,6.69 -0.57,0.9 -0.26,0.66 -0.83,1.56 -0.04,0.06 -0.95,1.19 -1.07,1.32l-10.59 18.09c-0.05,0.15 -0.09,0.31 -0.14,0.46l-2.87 8.48c-0.05,0.14 -0.11,0.29 -0.16,0.44l-2.68 12.85c0,0.67 0.06,1.73 -0.03,2.36 -0.36,2.62 -1.16,2.21 -1.21,5.36 -0.55,39.82 0.04,79.7 0.04,119.53l0 316.04c0,5.02 -0.96,17.72 0.6,22.1 0.84,2.35 0.21,4.63 0.72,7.05l2.13 8.62c0.23,0.66 0.44,1.35 0.6,1.8l0.33 0.87c0.05,0.15 0.1,0.3 0.14,0.46l15.03 28.59c2.04,3.25 10.77,11.24 12.33,12.16 0.12,0.07 0.28,0.14 0.39,0.2l2.39 1.79c0.33,0.32 0.84,0.86 1.24,1.15 0.1,0.07 0.26,0.16 0.37,0.23l3.59 2.39c0.44,0.29 1.1,0.6 1.56,0.83 0,0 0.82,0.37 0.82,0.37 0.16,0.08 0.65,0.3 0.81,0.39 1.16,0.63 0.54,0.28 1.11,0.68l3.21 2.17c0.13,0.06 0.28,0.13 0.42,0.18l5.58 2.19c0.13,0.06 0.28,0.13 0.41,0.19 0.13,0.06 0.29,0.12 0.42,0.17 0.14,0.05 0.3,0.11 0.44,0.16l4.98 1.59c0.15,0.05 0.3,0.1 0.45,0.15l8.58 2.17c3.74,0.53 1.79,1.06 7.87,1.09 0.37,0 1.39,0.02 1.73,0.07 2.96,0.43 0.84,0.22 1.82,0.57l3.56 0.66c5.15,0.12 2.52,-1.12 12.01,-1.22l12.66 -2.87c0.13,-0.05 0.74,-0.27 0.88,-0.32 0.14,-0.05 0.3,-0.11 0.44,-0.16l13.06 -4.86c0.65,-0.32 0.15,-0.08 0.8,-0.4l13.13 -8.38c0.11,-0.07 0.27,-0.15 0.38,-0.22l2.06 -1.53c0.11,-0.07 0.26,-0.15 0.38,-0.22l10.38 -6.95c0.11,-0.07 0.27,-0.15 0.38,-0.22l10.38 -6.95c0.11,-0.07 0.26,-0.15 0.38,-0.22l3.58 -2.39c0.11,-0.07 0.27,-0.14 0.39,-0.21 0.11,-0.07 0.27,-0.14 0.39,-0.21l9.6 -6.53c0.11,-0.07 0.26,-0.15 0.38,-0.22 0.11,-0.07 0.27,-0.14 0.39,-0.21 0.11,-0.07 0.28,-0.14 0.39,-0.21l2.43 -1.75c0.11,-0.07 0.26,-0.15 0.38,-0.22 0.11,-0.07 0.27,-0.14 0.39,-0.21 0.11,-0.07 0.27,-0.14 0.39,-0.21l14.71 -9.78c0.59,-0.38 0.33,-0.25 1.03,-0.76l29.7 -19.88c0.11,-0.07 0.27,-0.15 0.38,-0.22l10.38 -6.95c0.11,-0.07 0.26,-0.15 0.38,-0.22l3.21 -2.17c0.11,-0.07 0.27,-0.15 0.38,-0.22l10.38 -6.95c0.11,-0.07 0.26,-0.15 0.38,-0.22l13.96 -9.34c0.11,-0.07 0.26,-0.15 0.38,-0.22l0.77 -0.42c0.11,-0.07 0.27,-0.15 0.38,-0.22l34.32 -23.03c0.11,-0.07 0.27,-0.15 0.38,-0.22l2.85 -1.93c0.1,-0.07 0.25,-0.17 0.36,-0.24 0.11,-0.07 0.26,-0.15 0.38,-0.22l10.38 -6.95c0.11,-0.07 0.27,-0.15 0.38,-0.22l25.87 -17.15c0.11,-0.07 0.27,-0.15 0.38,-0.22l13.96 -9.34c0.11,-0.07 0.27,-0.15 0.38,-0.22l24.72 -16.51c0.11,-0.07 0.27,-0.15 0.38,-0.22l0.7 -0.49c0.68,-0.49 0.97,-0.78 1.36,-1.03l3.96 -2.61c0.66,-0.4 0.42,-0.17 1.15,-0.64l18.62 -12.44c0.68,-0.5 0.97,-0.78 1.36,-1.03l8.32 -5.42c0.11,-0.07 0.27,-0.15 0.38,-0.22l9.23 -6.31c0.11,-0.07 0.26,-0.15 0.38,-0.22l3.21 -2.17c0.11,-0.07 0.27,-0.15 0.38,-0.22l0.77 -0.42c0.11,-0.07 0.27,-0.15 0.38,-0.22l10.38 -6.95c0.11,-0.07 0.27,-0.15 0.38,-0.22l10.38 -6.95c0.11,-0.07 0.27,-0.15 0.38,-0.22l2.06 -1.53c0.11,-0.07 0.26,-0.15 0.38,-0.22l4.36 -2.81c0.11,-0.07 0.27,-0.15 0.38,-0.22l3.21 -2.17c0.11,-0.07 0.27,-0.15 0.38,-0.22l8.21 -5.53c0.78,-0.69 0.99,-1.22 2.2,-1.98 4.34,-2.76 11.58,-9.63 14.13,-13.95l5.99 -8.35c1.49,-2.95 3.21,-4.34 4.3,-7.65 0.27,-0.82 0.25,-1.06 0.52,-1.87 0.05,-0.14 0.1,-0.3 0.15,-0.44l1.56 -3.22c0.05,-0.14 0.11,-0.3 0.16,-0.44l0.86 -2.73c0.05,-0.14 0.11,-0.3 0.16,-0.44l2.89 -10.85c0.41,-2.86 1.2,-2.37 1.15,-6.01 -0.02,-1.28 -0.17,-2.86 0.1,-4.09 0.66,-3.06 1.95,-4.99 0.96,-9.56 -0.61,-2.8 -0.12,-0.12 -0.66,-1.73 -0.9,-2.67 -0.26,-6.67 -1.19,-9.56l-1.61 -7.35c-0.05,-0.15 -0.09,-0.31 -0.14,-0.46l-2.67 -8.08c-0.05,-0.14 -0.12,-0.29 -0.17,-0.42l-11.07 -19.4c-2.46,-2.6 -0.14,-1.35 -8.06,-9.27l-10.57 -9.14c-0.87,-0.56 -0.66,-0.29 -1.54,-0.85l-6.02 -4.14c-0.11,-0.07 -0.27,-0.14 -0.39,-0.21 -0.11,-0.07 -0.27,-0.14 -0.39,-0.21l-2.81 -1.97c-0.15,-0.09 -0.62,-0.33 -0.77,-0.42 -0.11,-0.07 -0.27,-0.15 -0.38,-0.22l-2.43 -1.75c-0.66,-0.4 -0.42,-0.17 -1.15,-0.64 -0.39,-0.25 -0.67,-0.54 -1.36,-1.03l-16.19 -10.7c-0.11,-0.07 -0.27,-0.15 -0.38,-0.22l-10.38 -6.95c-0.11,-0.07 -0.27,-0.15 -0.38,-0.22l-2.06 -1.53c-0.11,-0.07 -0.27,-0.15 -0.38,-0.22l-0.77 -0.42c-0.11,-0.07 -0.27,-0.15 -0.38,-0.22l-6.02 -4.14c-0.66,-0.41 -0.42,-0.17 -1.15,-0.64l-17.55 -11.73c-0.11,-0.07 -0.27,-0.15 -0.38,-0.22 -0.11,-0.07 -0.25,-0.17 -0.36,-0.24l-10.02 -6.71c-0.11,-0.07 -0.27,-0.15 -0.38,-0.22l-2.06 -1.53c-0.11,-0.07 -0.26,-0.15 -0.38,-0.22 -0.11,-0.07 -0.27,-0.14 -0.39,-0.21 -0.11,-0.07 -0.27,-0.14 -0.39,-0.21 -0.11,-0.07 -0.27,-0.15 -0.38,-0.22l-10.38 -6.95c-0.11,-0.07 -0.27,-0.15 -0.38,-0.22l-3.21 -2.17c-0.11,-0.07 -0.27,-0.15 -0.38,-0.22l-9.23 -6.31c-0.11,-0.07 -0.26,-0.15 -0.38,-0.22l-0.77 -0.42c-0.11,-0.07 -0.27,-0.15 -0.38,-0.22l-9.23 -6.31c-0.11,-0.07 -0.27,-0.15 -0.38,-0.22l-0.77 -0.42c-0.11,-0.07 -0.27,-0.15 -0.38,-0.22l-9.23 -6.31c-0.11,-0.07 -0.26,-0.15 -0.38,-0.22 -0.15,-0.09 -0.62,-0.33 -0.77,-0.42 -0.11,-0.07 -0.27,-0.15 -0.38,-0.22l-4.29 -2.88c-0.68,-0.49 -0.97,-0.78 -1.36,-1.03 -0.83,-0.54 -0.69,-0.32 -1.53,-0.86l-2.06 -1.53c-0.11,-0.07 -0.27,-0.15 -0.38,-0.22l-3.21 -2.17c-0.11,-0.07 -0.26,-0.15 -0.38,-0.22l-0.77 -0.42c-0.11,-0.07 -0.27,-0.15 -0.38,-0.22l-3.21 -2.17c-0.11,-0.07 -0.27,-0.15 -0.38,-0.22l-10.38 -6.95c-0.11,-0.07 -0.27,-0.15 -0.38,-0.22l-9.23 -6.31c-0.11,-0.07 -0.26,-0.15 -0.38,-0.22l-0.77 -0.42c-0.11,-0.07 -0.27,-0.15 -0.38,-0.22l-2.06 -1.53c-0.11,-0.07 -0.26,-0.15 -0.38,-0.22 -0.15,-0.09 -0.62,-0.33 -0.77,-0.42 -0.11,-0.07 -0.27,-0.15 -0.38,-0.22l-6.79 -4.56c-0.11,-0.07 -0.27,-0.15 -0.38,-0.22l-2.06 -1.53c-0.11,-0.07 -0.26,-0.15 -0.38,-0.22 -0.15,-0.09 -0.62,-0.33 -0.77,-0.42 -0.11,-0.07 -0.27,-0.15 -0.38,-0.22l-10.38 -6.95c-0.11,-0.07 -0.27,-0.15 -0.38,-0.22l-3.21 -2.17c-0.11,-0.07 -0.27,-0.15 -0.38,-0.22l-2.06 -1.53c-0.11,-0.07 -0.27,-0.15 -0.38,-0.22l-3.21 -2.17c-0.11,-0.07 -0.26,-0.15 -0.38,-0.22l-3.58 -2.39c-0.46,-0.28 -0.32,-0.14 -0.77,-0.42 -0.11,-0.07 -0.27,-0.15 -0.38,-0.22l-3.21 -2.17c-0.11,-0.07 -0.27,-0.15 -0.38,-0.22l-5.64 -3.92c-0.11,-0.07 -0.26,-0.15 -0.38,-0.22l-0.77 -0.42c-0.11,-0.07 -0.27,-0.15 -0.38,-0.22l-2.06 -1.53c-0.11,-0.07 -0.27,-0.15 -0.38,-0.22l-0.77 -0.42c-0.11,-0.07 -0.27,-0.15 -0.38,-0.22l-10.75 -7.17c-0.11,-0.07 -0.25,-0.16 -0.36,-0.24l-10.02 -6.71c-0.11,-0.07 -0.27,-0.15 -0.38,-0.22l-2.06 -1.53c-0.11,-0.07 -0.26,-0.15 -0.38,-0.22l-4.36 -2.81c-0.11,-0.07 -0.27,-0.15 -0.38,-0.22l-10.38 -6.95c-0.11,-0.07 -0.27,-0.15 -0.38,-0.22l-6.79 -4.56c-0.11,-0.07 -0.27,-0.15 -0.38,-0.22l-12.81 -8.7c-0.11,-0.07 -0.27,-0.15 -0.38,-0.22l-0.77 -0.42c-0.11,-0.07 -0.27,-0.15 -0.38,-0.22l-2.43 -1.75c-0.46,-0.28 -0.32,-0.14 -0.77,-0.42 -0.11,-0.07 -0.27,-0.15 -0.38,-0.22l-5.64 -3.92c-0.11,-0.07 -0.26,-0.15 -0.38,-0.22 -0.15,-0.09 -0.62,-0.33 -0.77,-0.42 -0.11,-0.07 -0.27,-0.15 -0.38,-0.22l-3.21 -2.17c-0.11,-0.07 -0.27,-0.15 -0.38,-0.22l-9.23 -6.31c-0.11,-0.07 -0.26,-0.15 -0.38,-0.22l-0.77 -0.42c-0.11,-0.07 -0.27,-0.15 -0.38,-0.22l-17.92 -11.95c-0.59,-0.38 -0.33,-0.25 -1.03,-0.76l-9.73 -6.41c-0.11,-0.07 -0.25,-0.16 -0.36,-0.24l-5.65 -3.31c-0.12,-0.06 -0.28,-0.14 -0.4,-0.2l-2.81 -1.38c-0.14,-0.05 -0.3,-0.11 -0.44,-0.16l-9.9 -3.25c-0.14,-0.05 -0.3,-0.11 -0.44,-0.16 -0.14,-0.05 -0.3,-0.11 -0.44,-0.16 -0.15,-0.05 -0.3,-0.1 -0.45,-0.15 -0.15,-0.05 -0.31,-0.09 -0.46,-0.14l-8.62 -2.14c-1.96,-0.55 -4.3,-0.06 -6.34,-0.23 -2.89,-0.24 -5.45,-2.17 -10.61,-1.1 -0.16,0.03 -0.33,0.1 -0.46,0.13 -0.13,0.03 -0.33,0.13 -0.43,0.17 -0.1,0.03 -0.29,0.1 -0.42,0.18z"></path> </g> </g> </svg> 