<?xml version="1.0" encoding="UTF-8"?> <svg xmlns="http://www.w3.org/2000/svg" xmlns:xlink="http://www.w3.org/1999/xlink" xmlns:xodm="http://www.corel.com/coreldraw/odm/2003" xml:space="preserve" width="149.505mm" height="154.874mm" version="1.1" style="shape-rendering:geometricPrecision; text-rendering:geometricPrecision; image-rendering:optimizeQuality; fill-rule:evenodd; clip-rule:evenodd" viewBox="0 0 1188.36 1231.03"> <defs> <style type="text/css"> .fil0 {fill:black;fill-rule:nonzero} </style> </defs> <g id="Слой_x0020_1"> <metadata id="CorelCorpID_0Corel-Layer"></metadata> <path class="fil0" d="M430.34 1181.93c2.18,0.5 4.29,0.18 6.28,-0.85l25.04 -13.56 16.57 23.16c1.34,1.8 3.09,3.01 5.27,3.52 3.98,0.92 8.49,-1.02 9.67,-6.15l12.03 -52.14c0.98,-4.24 -1.92,-8.69 -6.15,-9.67 -4.24,-0.98 -8.63,1.66 -9.67,6.15l-8.71 37.76 -9.34 -15.82c-1.48,-2.37 -3.3,-3.87 -5.61,-4.41 -2.44,-0.56 -4.73,-0.01 -6.85,1.53l-15.32 10.12 8.71 -37.76c1.04,-4.49 -1.63,-8.76 -6.12,-9.8 -4.24,-0.98 -8.66,1.79 -9.64,6.03l-12.03 52.14c-1.19,5.14 1.89,8.82 5.87,9.74zm-43.08 -68.51l3.82 49.96c0.62,11.01 17.43,10.41 16.19,-1.55l-5.82 -63.21 3.09 -3.17c5.33,-5.26 9.15,-6.31 13.68,-4.52 2.45,0.97 4.25,2.52 5.33,4.79 0.72,1.42 1.87,2.44 3.59,3.12 4.29,1.69 8.78,-0.36 10.38,-4.41 0.97,-2.45 0.64,-4.85 -0.94,-7.31 -3.11,-5.05 -7.34,-8.7 -12.61,-10.78 -11.4,-4.5 -21.86,-1.68 -31.68,8.48l-50.18 52.18c-7.79,8.26 4.09,19.46 11.85,10.91l33.28 -34.48zm-84.78 -23.48c-6,0.65 -10.36,3.47 -13.18,8.38 -2.82,4.91 -3.07,10.09 -0.61,15.61 2.39,5.63 6.84,10.32 13.46,14.13 7.43,4.27 14.37,5.68 20.77,4.34 7.87,-1.25 8.33,-11.32 2.39,-14.74 -1.49,-0.85 -3.48,-1.09 -5.92,-0.82 -2.75,0.55 -5.95,-0.23 -9.61,-2.33 -5.37,-3.09 -7.16,-6.85 -5.38,-9.94 1.58,-2.74 5.34,-3.47 9.5,-0.92l3.88 2.23c4.52,2.45 8.69,1.81 10.86,-1.97 2.17,-3.77 0.92,-7.68 -3.65,-10.31l-6.01 -3.3c-4.98,-2.71 -5.69,-6.77 -3.85,-9.97 2.17,-3.77 7.74,-4.21 14.03,-0.6 3.31,1.91 6.05,4.54 8.04,7.97 1.33,2.44 2.61,3.93 3.75,4.59 3.66,2.1 8.68,1.04 11.04,-3.08 1.05,-1.83 1.35,-3.94 0.79,-6.39 -1.44,-5.69 -6.56,-11.07 -15.36,-16.13 -15.08,-8.67 -29.05,-7.12 -35.29,3.73 -3.61,6.28 -3.52,12.72 0.34,19.5l0 0zm-58.07 -87.89c-3.63,-2.85 -8.62,-2.25 -11.47,1.38l-32.98 41.97c-2.69,3.42 -2.25,8.62 1.38,11.47 3.42,2.69 8.52,2.17 11.37,-1.46l32.98 -41.97c2.85,-3.63 2.15,-8.7 -1.27,-11.39zm35.05 28.55c-13.16,-10.34 -27,-9.15 -36.45,2.87 -9.45,12.02 -7.25,25.65 5.91,35.99l10.16 7.98 -7 8.91c-2.69,3.42 -2.15,8.71 1.27,11.39 3.63,2.85 8.71,2.15 11.39,-1.27l32.57 -41.45c2.69,-3.42 2.04,-8.79 -1.38,-11.47l-16.48 -12.95zm-10.77 34.61l-9.74 -7.65c-5.7,-4.48 -6.77,-9.51 -3.19,-14.07 3.58,-4.56 8.94,-4.54 14.43,-0.23l9.74 7.65 -11.24 14.3zm-90.94 -81.31l-29.05 -1.44c-5.58,-0.32 -9.3,3.04 -9.41,7.7 -0.11,4.47 3.53,8.47 8.38,8.22l38.52 -0.85 -16.79 16.01c-3.34,3.18 -3.45,8.03 -0.27,11.37 3.18,3.34 8.21,3.46 11.36,0.46l38.82 -37.01c3.15,-3 3.27,-8.03 0.09,-11.37 -3.18,-3.34 -7.93,-3.55 -11.27,-0.36l-17.17 16.37 2.53 -39.74c0.39,-4.74 -3.25,-8.37 -7.91,-8.49 -4.84,-0.3 -8.1,3.35 -8.04,8.94l0.21 30.21zm-85.23 -54.43c2.21,3.11 5.06,4.16 8.51,3.33 -0.29,6.19 1.72,12.2 5.85,18 5.58,7.84 12.84,12.38 22.06,13.74 9.14,1.26 17.74,-0.97 26.01,-6.85 8.27,-5.88 13.42,-13.42 15.23,-22.47 1.74,-9.16 -0.05,-17.59 -5.63,-25.43 -4.2,-5.91 -9.14,-9.67 -15.08,-11.43 2.03,-3.06 1.97,-6.09 -0.24,-9.21 -2.67,-3.76 -7.67,-4.41 -11.21,-1.89l-43.61 31.01c-3.76,2.67 -4.57,7.45 -1.89,11.21zm57.69 -12.56c6.8,9.56 5.01,20.69 -4.44,27.41 -9.45,6.72 -20.4,4.97 -27.35,-4.81 -3.59,-5.05 -4.88,-10.28 -3.98,-15.6l22.23 -15.81c5.44,0.82 9.95,3.76 13.54,8.81zm-140.93 -90.68c0.12,4.63 3.48,8.12 8.11,7.99l105.2 -1.95c4.13,0.07 7.36,-2.9 7.82,-7.47 0.33,-1.69 -0.28,-3.57 -1.93,-5.61 -1.58,-2.21 -3.68,-3.22 -6.35,-3.17l-105.32 2c-4.09,0.05 -7.61,3.71 -7.53,8.21zm4.79 -89.72c0.81,4.54 4.94,7.42 9.48,6.61l51.9 -9.27c4.54,-0.81 7.29,-4.92 6.48,-9.46 -0.81,-4.54 -4.79,-7.31 -9.33,-6.5l-44.24 7.9 -4.96 -27.76 44.24 -7.9c4.54,-0.81 7.29,-4.92 6.48,-9.46 -0.76,-4.28 -5.05,-7.27 -9.33,-6.5l-51.9 9.27c-4.54,0.81 -7.44,4.81 -6.63,9.35l7.81 43.72zm-14.05 -130.78c0.1,3.82 1.87,6.28 5.2,7.51 -3.7,4.97 -5.39,11.08 -5.21,18.19 0.24,9.62 3.74,17.44 10.62,23.73 6.88,6.15 15.26,9.11 25.4,8.85 10.14,-0.26 18.63,-3.63 25.19,-10.13 6.56,-6.63 9.78,-14.62 9.54,-24.23 -0.18,-7.25 -2.18,-13.13 -6.12,-17.91 3.39,-1.4 5.04,-3.95 4.95,-7.77 -0.12,-4.61 -3.89,-7.94 -8.24,-7.83l-53.49 1.35c-4.61,0.12 -7.95,3.63 -7.83,8.24zm54.87 21.82c0.3,11.73 -7.4,19.96 -19,20.26 -11.59,0.29 -19.7,-7.28 -20,-19.27 -0.16,-6.19 1.69,-11.25 5.42,-15.17l27.27 -0.69c4.05,3.72 6.15,8.68 6.31,14.87zm-1.12 -80.76l-47.47 16.02c-10.52,3.31 -5.79,19.46 5.49,15.31l59.82 -21.23 3.84 2.22c6.42,3.87 8.37,7.31 7.76,12.14 -0.33,2.61 -1.4,4.74 -3.33,6.35 -1.2,1.04 -1.9,2.42 -2.13,4.25 -0.58,4.58 2.52,8.42 6.83,8.97 2.61,0.33 4.86,-0.58 6.85,-2.72 4.13,-4.26 6.62,-9.26 7.34,-14.88 1.55,-12.16 -3.76,-21.6 -16.03,-28.61l-62.94 -35.76c-9.93,-5.51 -17.85,8.76 -7.65,14.17l41.62 23.76zm-1.08 -86.88c-2.37,-5.55 -6.33,-8.9 -11.85,-10.17 -5.52,-1.27 -10.55,0 -15.11,3.95 -4.69,3.92 -7.88,9.54 -9.6,16.99 -1.93,8.35 -1.25,15.4 1.89,21.13 3.49,7.16 13.26,4.68 14.8,-2 0.38,-1.67 0.03,-3.65 -0.94,-5.9 -1.32,-2.47 -1.51,-5.76 -0.56,-9.87 1.39,-6.04 4.48,-8.84 7.94,-8.04 3.08,0.71 4.87,4.1 3.64,8.82l-1.01 4.37c-1.03,5.04 0.8,8.84 5.04,9.82 4.24,0.98 7.62,-1.35 8.8,-6.49l1.41 -6.71c1.15,-5.55 4.82,-7.41 8.42,-6.58 4.24,0.98 6.28,6.18 4.65,13.25 -0.86,3.72 -2.59,7.11 -5.29,10.01 -1.95,1.98 -3,3.63 -3.3,4.92 -0.95,4.11 1.53,8.6 6.15,9.67 2.05,0.47 4.16,0.15 6.34,-1.11 5.03,-3.03 8.68,-9.49 10.97,-19.38 3.91,-16.95 -1.63,-29.86 -13.83,-32.68 -7.06,-1.63 -13.2,0.34 -18.56,6l0 0zm-3.31 -87.36c-1.4,3.56 -0.73,6.51 1.86,8.95 -5.34,3.13 -9.28,8.1 -11.9,14.72 -3.53,8.95 -3.36,17.52 0.52,25.99 3.93,8.35 10.5,14.34 19.94,18.06 9.44,3.72 18.57,3.92 27.14,0.5 8.62,-3.54 14.71,-9.64 18.24,-18.59 2.66,-6.74 3.12,-12.94 1.35,-18.88 3.67,0.03 6.18,-1.67 7.59,-5.22 1.69,-4.29 -0.48,-8.83 -4.53,-10.43l-49.78 -19.63c-4.29,-1.69 -8.74,0.24 -10.43,4.53zm42.01 41.49c-4.3,10.91 -14.61,15.49 -25.4,11.24 -10.79,-4.25 -15.29,-14.39 -10.89,-25.55 2.27,-5.76 5.95,-9.7 10.9,-11.85l25.38 10.01c2.28,5.01 2.28,10.39 0.01,16.15zm-6 -165.1c-3.68,2.81 -4.54,7.58 -1.74,11.26l63.15 84.16c2.36,3.39 6.66,4.27 10.64,1.97 1.56,-0.72 2.74,-2.32 3.42,-4.85 0.87,-2.58 0.46,-4.87 -1.15,-7l-63.26 -84.23c-2.44,-3.28 -7.46,-4 -11.06,-1.3zm118.4 -87.19c-1.62,1.55 -2.51,3.48 -2.75,5.71l-2.45 28.37 -28.46 1.09c-2.24,0.13 -4.22,0.93 -5.84,2.47 -2.96,2.82 -3.82,7.65 -0.18,11.46l36.92 38.73c3,3.15 8.31,3.18 11.46,0.18 3.15,-3 3.36,-8.12 0.18,-11.46l-26.74 -28.04 18.34 0.9c2.79,0.07 5.05,-0.62 6.77,-2.26 1.81,-1.73 2.61,-3.95 2.49,-6.56l-0.03 -18.36 26.74 28.04c3.18,3.34 8.21,3.46 11.55,0.28 3.15,-3 3.27,-8.22 0.27,-11.37l-36.92 -38.73c-3.64,-3.82 -8.4,-3.28 -11.36,-0.46zm80.45 1.29l-43.95 -24.06c-9.56,-5.49 -18.24,8.92 -7.54,14.42l56.15 29.61 0.97 4.32c1.5,7.34 0.3,11.11 -3.68,13.93 -2.15,1.53 -4.43,2.18 -6.93,1.86 -1.58,-0.17 -3.07,0.24 -4.57,1.31 -3.76,2.67 -4.49,7.56 -1.97,11.1 1.53,2.15 3.72,3.18 6.64,3.2 5.93,0.15 11.29,-1.4 15.91,-4.69 9.99,-7.1 13.34,-17.41 10.18,-31.17l-16.35 -70.52c-2.67,-11.04 -18.54,-7.19 -15.61,3.98l10.73 46.71zm65.74 -58.45c2.72,-5.39 2.73,-10.58 0.14,-15.62 -2.58,-5.04 -6.8,-8.07 -12.76,-9.01 -6.02,-1.06 -12.38,0.12 -19.18,3.6 -7.62,3.91 -12.59,8.96 -14.94,15.06 -3.23,7.28 4.96,13.15 11.06,10.03 1.53,-0.78 2.81,-2.33 3.91,-4.52 1.04,-2.6 3.43,-4.87 7.18,-6.79 5.51,-2.82 9.64,-2.27 11.27,0.89 1.44,2.82 0,6.37 -4.4,8.47l-3.99 2.04c-4.51,2.46 -6.25,6.31 -4.26,10.18 1.98,3.87 5.94,4.95 10.63,2.55l6.04 -3.24c4.98,-2.7 8.77,-1.09 10.45,2.2 1.98,3.87 -0.68,8.79 -7.13,12.09 -3.4,1.74 -7.11,2.6 -11.06,2.41 -2.77,-0.21 -4.72,0.05 -5.89,0.65 -3.75,1.92 -5.59,6.71 -3.43,10.94 0.96,1.88 2.57,3.28 4.93,4.14 5.56,1.89 12.85,0.52 21.89,-4.1 15.48,-7.93 21.79,-20.49 16.08,-31.63 -3.31,-6.45 -8.76,-9.88 -16.55,-10.33l0 0zm105.31 -0.91c4.37,-1.48 6.6,-5.99 5.12,-10.36l-17.11 -50.56c-1.39,-4.12 -5.99,-6.6 -10.36,-5.12 -4.12,1.39 -6.47,5.95 -5,10.32l17.11 50.56c1.48,4.37 6.11,6.56 10.23,5.16zm-43.07 13.74c15.86,-5.37 22.43,-17.61 17.53,-32.09 -4.9,-14.48 -17.51,-20.09 -33.37,-14.73l-12.23 4.14 -3.63 -10.74c-1.39,-4.12 -6.11,-6.56 -10.23,-5.16 -4.37,1.48 -6.56,6.11 -5.16,10.23l16.9 49.94c1.39,4.12 6.24,6.51 10.36,5.12l19.85 -6.72zm-23.09 -27.94l11.73 -3.97c6.87,-2.32 11.67,-0.47 13.53,5.02 1.86,5.49 -1.08,9.97 -7.7,12.21l-11.73 3.97 -5.83 -17.23zm117.97 -31.86l17.24 -23.43c3.35,-4.48 2.6,-9.43 -1.22,-12.1 -3.67,-2.56 -9.01,-1.74 -11.48,2.45l-20.55 32.59 -4.08 -22.83c-0.81,-4.54 -4.79,-7.31 -9.33,-6.5 -4.54,0.81 -7.42,4.94 -6.65,9.22l9.43 52.8c0.76,4.28 4.89,7.16 9.43,6.35 4.54,-0.81 7.33,-4.66 6.52,-9.2l-4.17 -23.35 31.74 24.05c3.74,2.95 8.78,1.91 11.44,-1.91 2.92,-3.87 1.68,-8.6 -3.02,-11.64l-25.3 -16.5zm92.93 -41.45c-3.82,0.1 -6.28,1.87 -7.51,5.2 -4.97,-3.7 -11.08,-5.39 -18.19,-5.21 -9.62,0.24 -17.44,3.74 -23.73,10.62 -6.15,6.88 -9.11,15.26 -8.85,25.4 0.26,10.14 3.63,18.63 10.13,25.19 6.63,6.56 14.62,9.78 24.23,9.54 7.25,-0.18 13.13,-2.18 17.91,-6.12 1.4,3.39 3.95,5.04 7.77,4.95 4.61,-0.12 7.94,-3.89 7.83,-8.24l-1.35 -53.49c-0.12,-4.61 -3.63,-7.95 -8.24,-7.83zm-21.82 54.87c-11.73,0.3 -19.96,-7.4 -20.26,-19 -0.29,-11.59 7.28,-19.7 19.27,-20 6.19,-0.16 11.25,1.69 15.17,5.42l0.69 27.27c-3.72,4.05 -8.68,6.15 -14.87,6.31zm150.37 -69.83c-4,-2.32 -8.74,-1.29 -11.06,2.71l-53.53 90.58c-2.23,3.48 -1.39,7.78 2.26,10.58 1.27,1.16 3.19,1.64 5.79,1.3 2.71,-0.19 4.68,-1.44 6.02,-3.74l53.55 -90.71c2.1,-3.51 0.83,-8.42 -3.04,-10.72zm73.26 53.32c-4.29,-1.69 -8.91,0.31 -10.6,4.6l-19.34 49.04c-1.69,4.29 0.36,8.78 4.65,10.48 4.29,1.69 8.74,-0.24 10.43,-4.53l16.48 -41.81 26.24 10.34 -16.48 41.81c-1.69,4.29 0.36,8.78 4.65,10.48 4.05,1.6 8.83,-0.48 10.43,-4.53l19.34 -49.04c1.69,-4.29 -0.19,-8.86 -4.48,-10.55l-41.32 -16.29zm117.71 57.92c-3.31,-1.91 -6.34,-1.67 -9.12,0.53 -2.32,-5.74 -6.66,-10.37 -12.83,-13.91 -8.34,-4.8 -16.84,-5.88 -25.79,-3.27 -8.83,2.67 -15.72,8.29 -20.77,17.09 -5.06,8.8 -6.59,17.8 -4.45,26.78 2.25,9.05 7.39,15.96 15.74,20.75 6.28,3.61 12.34,4.97 18.48,4.09 -0.57,3.63 0.75,6.36 4.06,8.27 4,2.3 8.81,0.81 10.98,-2.96l26.67 -46.39c2.3,-4 1.04,-8.68 -2.96,-10.98zm-47.17 35.51c-10.17,-5.85 -13.2,-16.71 -7.42,-26.76 5.78,-10.05 16.46,-13.03 26.86,-7.06 5.37,3.09 8.73,7.3 10.13,12.52l-13.6 23.65c-5.28,1.52 -10.61,0.74 -15.98,-2.35zm68.18 42.84l10.65 -48.96c2.56,-10.73 -13.72,-14.97 -15.96,-3.15l-12.53 62.23 -3.87 2.15c-6.62,3.52 -10.57,3.43 -14.4,0.41 -2.07,-1.63 -3.35,-3.63 -3.74,-6.12 -0.28,-1.56 -1.1,-2.87 -2.55,-4.01 -3.63,-2.85 -8.52,-2.17 -11.21,1.25 -1.63,2.07 -2,4.46 -1.19,7.28 1.53,5.73 4.54,10.44 8.99,13.94 9.64,7.57 20.47,7.87 32.78,0.95l63.02 -35.62c9.83,-5.68 1.66,-19.82 -8.23,-13.84l-41.77 23.5zm73.93 47.25c5.94,1.07 10.92,-0.39 15.02,-4.3 4.1,-3.91 5.8,-8.81 5.01,-14.8 -0.69,-6.08 -3.63,-11.83 -8.91,-17.37 -5.91,-6.2 -12.17,-9.52 -18.68,-10.05 -7.9,-1.03 -11.2,8.49 -6.47,13.45 1.18,1.24 3.03,2.03 5.44,2.46 2.79,0.25 5.64,1.91 8.55,4.96 4.27,4.48 4.92,8.6 2.35,11.06 -2.29,2.18 -6.1,1.81 -9.37,-1.81l-3.09 -3.24c-3.64,-3.63 -7.82,-4.2 -10.97,-1.19 -3.15,3 -3.06,7.11 0.58,10.92l4.82 4.87c4.01,4.01 3.54,8.1 0.86,10.65 -3.15,3 -8.62,1.85 -13.62,-3.4 -2.64,-2.77 -4.52,-6.07 -5.45,-9.92 -0.59,-2.72 -1.38,-4.51 -2.29,-5.46 -2.91,-3.05 -8.03,-3.45 -11.46,-0.18 -1.53,1.45 -2.41,3.39 -2.56,5.91 -0.23,5.87 3.15,12.47 10.15,19.82 12,12.59 25.84,15.07 34.9,6.43 5.25,-5 6.98,-11.21 5.2,-18.8l0 0zm75.1 44.57c-2.21,-3.11 -5.06,-4.16 -8.51,-3.33 0.29,-6.19 -1.72,-12.2 -5.85,-18 -5.58,-7.84 -12.84,-12.38 -22.06,-13.74 -9.14,-1.26 -17.74,0.97 -26.01,6.85 -8.27,5.88 -13.42,13.42 -15.23,22.47 -1.74,9.16 0.05,17.59 5.63,25.43 4.2,5.91 9.14,9.67 15.08,11.43 -2.03,3.06 -1.97,6.09 0.24,9.21 2.67,3.76 7.67,4.41 11.21,1.89l43.61 -31.01c3.76,-2.67 4.57,-7.45 1.89,-11.21zm-57.69 12.56c-6.8,-9.56 -5.01,-20.69 4.44,-27.41 9.45,-6.72 20.4,-4.97 27.35,4.81 3.59,5.05 4.88,10.28 3.98,15.6l-22.23 15.81c-5.44,-0.82 -9.95,-3.76 -13.54,-8.81zm141.93 84.77c-0.35,-4.61 -3.88,-7.94 -8.49,-7.59l-104.97 7.11c-4.13,0.13 -7.21,3.26 -7.44,7.85 -0.24,1.7 0.45,3.56 2.2,5.51 1.69,2.13 3.83,3.04 6.5,2.85l105.09 -7.16c4.08,-0.25 7.41,-4.08 7.12,-8.57zm-2.36 89.58c-0.61,-2.15 -1.91,-3.84 -3.77,-5.09l-23.96 -15.39 12.3 -25.69c0.93,-2.04 1.15,-4.16 0.53,-6.32 -1.12,-3.93 -4.99,-6.94 -10.06,-5.5l-51.47 14.62c-4.18,1.19 -6.69,5.87 -5.5,10.06 1.19,4.18 5.62,6.76 10.06,5.5l37.27 -10.59 -9.35 15.81c-1.36,2.44 -1.8,4.76 -1.15,7.04 0.68,2.41 2.27,4.15 4.64,5.26l16.26 8.53 -37.27 10.58c-4.44,1.26 -6.89,5.66 -5.63,10.09 1.19,4.18 5.75,6.73 9.93,5.54l51.47 -14.62c5.07,-1.44 6.82,-5.91 5.7,-9.84zm-38.11 70.59l41.96 -27.38c9.35,-5.84 0.74,-20.29 -9.15,-13.45l-52.61 35.52 -4.27 -1.19c-7.18,-2.14 -9.93,-4.98 -10.55,-9.82 -0.33,-2.62 0.17,-4.94 1.64,-6.98 0.9,-1.31 1.24,-2.81 1,-4.65 -0.58,-4.58 -4.54,-7.53 -8.86,-6.98 -2.61,0.33 -4.56,1.77 -5.96,4.34 -2.93,5.15 -4.1,10.62 -3.38,16.24 1.55,12.16 9.05,19.97 22.67,23.69l69.89 18.88c10.99,2.85 15.09,-12.95 3.86,-15.64l-46.24 -12.59zm22.26 83.91c3.68,4.78 8.35,7.04 14.02,6.9 5.66,-0.14 10.22,-2.63 13.65,-7.6 3.56,-4.97 5.25,-11.21 5.06,-18.85 -0.22,-8.56 -2.63,-15.23 -7.1,-19.99 -5.16,-6.07 -14.01,-1.23 -13.83,5.62 0.04,1.71 0.88,3.54 2.38,5.48 1.9,2.06 2.9,5.2 3.01,9.42 0.16,6.19 -2.13,9.68 -5.69,9.77 -3.16,0.08 -5.74,-2.75 -5.73,-7.63l-0.11 -4.48c-0.26,-5.14 -2.98,-8.36 -7.33,-8.25 -4.35,0.11 -7.04,3.21 -6.9,8.48l0.3 6.85c0.28,5.66 -2.82,8.38 -6.51,8.47 -4.35,0.11 -7.63,-4.42 -7.81,-11.67 -0.1,-3.82 0.73,-7.53 2.62,-11.01 1.39,-2.41 2,-4.27 1.97,-5.59 -0.11,-4.22 -3.63,-7.95 -8.37,-7.83 -2.11,0.05 -4.06,0.89 -5.87,2.65 -4.11,4.19 -6.04,11.36 -5.78,21.5 0.44,17.39 9.03,28.51 21.54,28.2 7.25,-0.18 12.7,-3.62 16.48,-10.44l0 0zm-47.15 95.18c-0.58,4.58 2.5,8.55 7.08,9.14l52.95 6.73c4.31,0.55 8.55,-2.5 9.14,-7.08 0.55,-4.31 -2.52,-8.42 -7.09,-9l-52.95 -6.73c-4.58,-0.58 -8.57,2.63 -9.12,6.94zm6.48 -44.75c-2.11,16.6 6.02,27.87 21.19,29.8 15.17,1.93 25.73,-6.96 27.84,-23.56l1.63 -12.81 11.24 1.43c4.31,0.55 8.57,-2.63 9.12,-6.94 0.58,-4.58 -2.63,-8.57 -6.95,-9.12l-52.3 -6.65c-4.32,-0.55 -8.59,2.76 -9.14,7.08l-2.64 20.79zm35.23 -8.54l-1.56 12.29c-0.91,7.19 -4.68,10.7 -10.43,9.97 -5.75,-0.73 -8.49,-5.33 -7.61,-12.26l1.56 -12.29 18.04 2.29zm-25.64 121.17l12.22 26.39c2.31,5.1 7.01,6.83 11.19,4.76 4.01,-1.98 5.87,-7.06 3.39,-11.24l-18.64 -33.72 21.97 7.43c4.37,1.48 8.71,-0.67 10.19,-5.04 1.48,-4.37 -0.75,-8.88 -4.87,-10.28l-50.81 -17.19c-4.12,-1.39 -8.63,0.84 -10.11,5.21 -1.48,4.37 0.54,8.67 4.91,10.15l22.47 7.6 -36.37 16.21c-4.38,1.86 -5.91,6.77 -3.84,10.94 1.98,4.43 6.73,5.61 11.66,2.97l26.65 -14.22zm-3.86 99.46c1.57,-3.48 1.04,-6.47 -1.41,-9.03 5.49,-2.87 9.67,-7.63 12.6,-14.12 3.96,-8.77 4.22,-17.33 0.75,-25.98 -3.52,-8.53 -9.78,-14.84 -19.03,-19.02 -9.25,-4.18 -18.36,-4.83 -27.09,-1.83 -8.78,3.12 -15.16,8.91 -19.13,17.68 -2.99,6.61 -3.75,12.77 -2.27,18.79 -3.67,-0.21 -6.26,1.36 -7.83,4.85 -1.9,4.2 0.05,8.85 4.01,10.64l48.76 22.04c4.2,1.9 8.74,0.19 10.64,-4.01zm-39.92 -43.5c4.83,-10.69 15.35,-14.76 25.92,-9.98 10.57,4.78 14.57,15.12 9.63,26.05 -2.55,5.64 -6.42,9.39 -11.47,11.3l-24.86 -11.24c-2.03,-5.11 -1.77,-10.49 0.79,-16.13zm-8.33 166.68c3.93,-2.44 5.25,-7.11 2.81,-11.04l-54.79 -89.82c-2.03,-3.61 -6.22,-4.89 -10.4,-2.98 -1.62,0.57 -2.95,2.04 -3.87,4.5 -1.11,2.48 -0.93,4.8 0.47,7.08l54.9 89.9c2.11,3.5 7.04,4.69 10.89,2.35zm-80.24 40.05c3.49,-3.02 3.85,-8.04 0.83,-11.53l-34.52 -39.85c-3.02,-3.49 -7.95,-3.75 -11.44,-0.73 -3.49,3.02 -3.83,7.85 -0.81,11.34l29.43 33.97 -21.32 18.47 -29.43 -33.97c-3.02,-3.49 -7.95,-3.75 -11.44,-0.73 -3.29,2.85 -3.66,8.05 -0.81,11.34l34.52 39.85c3.02,3.49 7.94,3.93 11.43,0.91l33.57 -29.08zm-105.35 77.89c3.22,-2.06 4.4,-4.86 3.73,-8.34 6.17,0.59 12.27,-1.13 18.26,-4.97 8.1,-5.19 12.98,-12.23 14.79,-21.38 1.7,-9.07 -0.12,-17.77 -5.6,-26.31 -5.48,-8.54 -12.76,-14.05 -21.72,-16.29 -9.06,-2.17 -17.57,-0.79 -25.67,4.4 -6.1,3.91 -10.1,8.67 -12.14,14.52 -2.96,-2.17 -5.99,-2.27 -9.21,-0.2 -3.88,2.49 -4.78,7.45 -2.43,11.11l28.88 45.05c2.49,3.88 7.22,4.92 11.11,2.43zm-9.78 -58.23c9.88,-6.33 20.91,-4.01 27.17,5.75 6.26,9.76 3.98,20.62 -6.12,27.09 -5.22,3.34 -10.5,4.38 -15.78,3.23l-14.72 -22.97c1.08,-5.39 4.23,-9.76 9.45,-13.1zm-69.31 41.05l38.5 32.06c8.33,7.23 19.61,-5.25 10.17,-12.7l-49.41 -39.86 -0.12 -4.43c-0.06,-7.49 1.84,-10.96 6.29,-12.97 2.4,-1.09 4.77,-1.29 7.16,-0.49 1.52,0.47 3.05,0.36 4.73,-0.4 4.2,-1.9 5.86,-6.55 4.07,-10.52 -1.09,-2.4 -3.03,-3.83 -5.9,-4.42 -5.79,-1.29 -11.35,-0.8 -16.52,1.54 -11.17,5.05 -16.43,14.52 -15.98,28.63l2.48 72.35c0.5,11.35 16.81,10.62 16.08,-0.91l-1.55 -47.9zm-76.13 44.01c-3.72,4.75 -4.74,9.84 -3.19,15.29 1.55,5.45 5.09,9.24 10.75,11.33 5.7,2.22 12.16,2.3 19.52,0.21 8.24,-2.34 14.09,-6.33 17.6,-11.85 4.59,-6.51 -2.29,-13.87 -8.89,-12 -1.65,0.47 -3.21,1.73 -4.71,3.67 -1.52,2.35 -4.31,4.1 -8.37,5.25 -5.96,1.69 -9.9,0.35 -10.88,-3.08 -0.86,-3.04 1.24,-6.24 5.97,-7.45l4.31 -1.22c4.91,-1.53 7.36,-4.97 6.17,-9.15 -1.19,-4.18 -4.86,-6.02 -9.93,-4.58l-6.56 2c-5.42,1.67 -8.82,-0.65 -9.82,-4.2 -1.19,-4.18 2.39,-8.49 9.36,-10.47 3.68,-1.04 7.48,-1.16 11.31,-0.2 2.68,0.75 4.63,0.88 5.9,0.52 4.06,-1.15 6.8,-5.49 5.5,-10.06 -0.58,-2.03 -1.88,-3.71 -4.03,-5.02 -5.08,-2.94 -12.5,-3.03 -22.27,-0.25 -16.74,4.75 -25.37,15.84 -21.95,27.88 1.98,6.97 6.66,11.4 14.21,13.37l0 0zm-74.81 46.15c3.79,-0.48 6.06,-2.5 6.95,-5.93 5.32,3.18 11.57,4.24 18.63,3.35 9.54,-1.21 16.97,-5.48 22.53,-12.96 5.43,-7.47 7.52,-16.1 6.24,-26.17 -1.28,-10.07 -5.5,-18.17 -12.62,-24.04 -7.25,-5.85 -15.53,-8.26 -25.07,-7.04 -7.19,0.91 -12.84,3.49 -17.2,7.9 -1.74,-3.23 -4.44,-4.62 -8.23,-4.14 -4.58,0.58 -7.51,4.67 -6.96,8.99l6.75 53.08c0.58,4.58 4.41,7.54 8.99,6.96zm16.16 -56.79c11.64,-1.48 20.61,5.35 22.07,16.86 1.46,11.5 -5.25,20.33 -17.15,21.84 -6.14,0.78 -11.36,-0.55 -15.63,-3.86l-3.44 -27.06c3.29,-4.4 8.01,-7 14.16,-7.78zm-142.54 86.32c4.22,1.91 8.82,0.41 10.73,-3.81l44.14 -95.51c1.87,-3.69 0.6,-7.89 -3.31,-10.3 -1.38,-1.03 -3.34,-1.31 -5.89,-0.71 -2.68,0.46 -4.51,1.9 -5.62,4.33l-44.15 95.64c-1.73,3.7 0.02,8.46 4.1,10.36z"></path> </g> </svg> 